<?xml version="1.0" encoding="UTF-8"?>
<svg id="Capa_1" data-name="Capa 1" xmlns="http://www.w3.org/2000/svg" xmlns:xlink="http://www.w3.org/1999/xlink" version="1.1" viewBox="0 0 500 500">
  <defs>
    <style>
      .cls-1 {
        fill: url(#Degradado_sin_nombre_46);
      }

      .cls-1, .cls-2, .cls-3, .cls-4, .cls-5, .cls-6, .cls-7, .cls-8, .cls-9 {
        stroke-width: 0px;
      }

      .cls-2 {
        fill: url(#Degradado_sin_nombre_46-6);
      }

      .cls-3 {
        fill: url(#Degradado_sin_nombre_46-5);
      }

      .cls-4 {
        fill: url(#Degradado_sin_nombre_46-4);
      }

      .cls-5 {
        fill: url(#Degradado_sin_nombre_46-7);
      }

      .cls-6 {
        fill: url(#Degradado_sin_nombre_46-3);
      }

      .cls-7 {
        fill: url(#Degradado_sin_nombre_46-2);
      }

      .cls-8 {
        fill: red;
      }

      .cls-9 {
        fill: #fff;
      }
    </style>
    <linearGradient id="Degradado_sin_nombre_46" data-name="Degradado sin nombre 46" x1="61.29" y1="448.05" x2="61.29" y2="375.26" gradientUnits="userSpaceOnUse">
      <stop offset=".09" stop-color="#666e76"/>
      <stop offset=".51" stop-color="#fff"/>
    </linearGradient>
    <linearGradient id="Degradado_sin_nombre_46-2" data-name="Degradado sin nombre 46" x1="124.44" y1="450.14" x2="124.44" y2="375.26" xlink:href="#Degradado_sin_nombre_46"/>
    <linearGradient id="Degradado_sin_nombre_46-3" data-name="Degradado sin nombre 46" x1="184.04" x2="184.04" xlink:href="#Degradado_sin_nombre_46"/>
    <linearGradient id="Degradado_sin_nombre_46-4" data-name="Degradado sin nombre 46" x1="249.72" y1="448.04" x2="249.72" y2="375.26" xlink:href="#Degradado_sin_nombre_46"/>
    <linearGradient id="Degradado_sin_nombre_46-5" data-name="Degradado sin nombre 46" x1="317.56" y1="448.73" x2="317.56" y2="374.39" xlink:href="#Degradado_sin_nombre_46"/>
    <linearGradient id="Degradado_sin_nombre_46-6" data-name="Degradado sin nombre 46" x1="380" y1="447.86" x2="380" y2="375.08" xlink:href="#Degradado_sin_nombre_46"/>
    <linearGradient id="Degradado_sin_nombre_46-7" data-name="Degradado sin nombre 46" x1="441.11" y1="448.04" x2="441.11" y2="375.26" xlink:href="#Degradado_sin_nombre_46"/>
  </defs>
  <path class="cls-9" d="M328.32,267.48l31.63,12.34-14.16-31.54c.41-.6.84-1.18,1.24-1.79,13.03-19.74,20.06-38.82,22.18-57.95l74.49-15.59-75.29-16.18c-1.67-10.88-4.68-21.9-8.89-33.19-15.83-42.5-58.44-59.58-58.44-59.58,0,0-5.3,6.67-8.64-7.08-3.33-13.75-11.25-52.08-11.25-52.08v80.41s5.42-9.58,10.83-8.75c5.42.83,50,17.92,60,75,8.27,47.2-16.51,91.84-58.33,109.18.53-3,.96-6.04,1.27-9.18,3.35-1.51,8.02,1.56,8.02,1.56-.98-3.94-4.95-8.51-7.56-11.18,0-1.2-.03-2.41-.08-3.66,2.85-2.77,8.62-.5,8.62-.5-1.72-3.58-6.37-7.16-9.47-9.26-.16-1.22-.35-2.47-.55-3.75,2.74-2.74,8.45-.88,8.45-.88-2.01-3.61-7.18-7.03-10.39-8.9-.28-1.22-.58-2.46-.91-3.74-.05-.19-.1-.37-.15-.56,2.73-2.07,7.6-.98,7.6-.98-2.12-3.06-6.8-5.73-10.17-7.36-.71-1.99-1.44-3.89-2.18-5.66,2.39-2.3,7.09-2.12,7.09-2.12-2.42-2.42-6.91-4.13-10.43-5.17-2.53-5.06-4.5-8.09-4.5-8.09,0,0,10.92-1.53,18.5,3.21,0,0-6.99-8.67-16.61-13.62-9.61-4.95-15.73-5.46-15.73-5.46,0,0,11.73-2.62,26.58-.66,0,0-7.43-10.41-23.45-11.87,0,0,12.66-6.84,23.44-17.91,10.78-11.07,9.76-25.47,9.76-25.47,0,0-2.3,11.3-18.89,19.51-21.89,10.84-44.3,20.68-58.45,26.35-7.52,3.01-8.39,8.3-8.74,17.91,0,0-19.66,8.74-25.78,11.36-6.12,2.62-6.12,11.36-6.12,11.36,0,0,3.06-1.75,8.74-2.18,5.68-.44,14.86-.44,14.86-.44l-13.34,1.96s4.09,7.72,13.04,6.63c8.96-1.09,14.02-2.13,19.07-2.91,5.47,4.08,15.09-.22,15.09-.22,0,0,11.14,6.55,12.02,21.41.87,14.86-4.81,23.6-14.2,31.9-5.73,5.06-10.4,9.79-13.58,13.81-51.78-11.22-84.5-61.19-75.17-114.43,10-57.08,54.58-74.16,60-75,5.42-.83,10.83,8.75,10.83,8.75V4.83s-7.92,38.33-11.25,52.08c-3.33,13.75-8.64,7.08-8.64,7.08,0,0-42.61,17.08-58.44,59.58-4.2,11.29-7.22,22.3-8.89,33.19l-75.29,16.18,74.49,15.59c2.12,19.14,9.16,38.22,22.18,57.95.41.61.83,1.19,1.24,1.79l-14.16,31.54,31.63-12.34s.03.02.08.04c5.08,4.25,10.38,7.83,15.72,10.85,3.62,3.01,7.54,6.64,11.42,10.93,13.33,14.73,12.94,29.43,12.94,29.43l30.42,22.75.03-.07,6.98,19.65,6.98-19.65.03.07,30.42-22.75s-.39-14.7,12.94-29.43c3.88-4.29,7.81-7.92,11.42-10.93,5.35-3.02,10.64-6.6,15.72-10.85.05-.03.08-.04.08-.04ZM232.7,170.61c-1.89.73-11.8,1.75-11.8,1.75,0,0,4.52-6.12,5.54-6.41,1.02-.29,15.29-2.33,15.29-2.33,0,0-7.14,6.26-9.03,6.99ZM328.28,267.49s.02-.01.03-.02h.02s-.05.02-.05.02ZM173.12,267.48h.02s.02,0,.03.01h-.05Z"/>
  <g>
    <g>
      <g>
        <path class="cls-8" d="M55.65,385.19c2.4-1.87,3.35-1.43,4.27-1.93.07-.59.14-1.22.21-1.83.26-.45.7-.29,1.08-.33.29-.26.58-.53.88-.8h1.55c.31-.29.6-.55.9-.83h1.51c.32-.19.38-.41.4-.69.04-.59.22-.85.55-.87.4-.02.8,0,1.2,0,.21-.13.49-.21.62-.4.48-.69,1.63-.18,1.95-1.16h2.44c.22.2.51.46.81.73.55-.52,1.11-1.05,1.68-1.6h8.74c.22-.22.41-.41.59-.59.09-.02.24-.1.28-.06.66.64,1.31,1.29,1.89,1.88.02.52-.05.85-.34,1.18-.71.83-.67.92.25,1.91.04.12.1.24.1.36,0,2,0,3.99,0,6.05-.22.25-.47.55-.77.9v9.49c-.27.3-.54.59-.82.9v.77c.25.28.52.57.78.84v12.74c-.28.31-.55.6-.76.84-.15.67.17,1.06.6,1.39.06.26.16.5.17.74.01,1.86,0,3.73,0,5.59,0,.38.04.77.06,1.1.24.24.42.42.61.61.04.12.12.23.12.35,0,7.32,0,14.63,0,21.96-.26.59-.74.98-1.27,1.32-1.1-1.01-1.17-1.01-2.21-.05-.54.01-.64-.75-1.22-.68-.13.01-.26,0-.44,0-.27.24-.56.5-.87.79h-3.16c-.27-.25-.56-.5-.84-.76-.29.26-.58.52-.81.73h-2.41c-.41-.41-.79-.79-1.15-1.15.3-.7,1.34-.07,1.56-.96v-1.46c-.18-.29-.4-.43-.67-.39-.45.06-.84-.13-.88-.54-.08-.78-.02-1.57-.02-2.26.28-.28.5-.45.65-.66.23-.34.26-.76,0-1.06-.34-.4-.78-.72-.59-1.52.7-.7,1.52-1.52,2.33-2.34-.19-.32-.41-.45-.69-.41-.45.06-.87-.14-.88-.54-.05-2.11-.02-4.23-.02-6.19-.48-.51-.84-.9-1.17-1.25h-1.62c-.31.28-.6.54-.9.82h-1.54c-.5.5-.97.97-1.44,1.44-.36.09-.72.19-1.08.28-.44.93-1.81.42-2.22,1.43h-1.56c-.3.28-.59.54-.89.82h-1.57c-.38.38-.8.73-1.13,1.14-.51.63-1.54.32-1.93,1.12-.51.05-1.03.11-1.69.18-.18.15-.47.4-.79.67-.7-.08-1.19.31-1.62.86h-.74c-.88.37.03,1.78-1.22,1.73v8.96c-.36.38-.71.76-1.05,1.13-3.03.23-8.48.26-13.88.08-.09-.09-.27-.19-.27-.28-.03-.79-.02-1.59-.02-2.4.25-.27.51-.56.77-.83v-1.56c-.29-.32-.55-.61-.75-.84v-6.4l.65-.65c.07-.57.14-1.2.21-1.81.21-.21.4-.4.65-.65-.21-.26-.43-.53-.71-.87v-6.36c.2-.23.46-.51.75-.84v-2.33c.28-.3.55-.59.82-.89v-.75c.26-.3.51-.58.75-.85-.22-.21-.41-.4-.59-.59-.21-.51.43-.51.43-.37.12-.73.17-.97.2-1.22.04-.38-.09-.78.16-1.13.28-.38.72-.17,1.08-.29.11-.04.22-.16.27-.28.03-.06-.05-.2-.12-.27-.17-.2-.42-.24-.72-.2-.26.03-.48-.12-.66-.39v-.78c.52-.55,1.06-1.12,1.62-1.7v-1.55c.22-.22.41-.41.6-.6.39-.75-.03-1.55.07-1.82.2-1.13,1.1-1.38.89-2.16.23-.3.51-.58.71-.91.19-.32-.03-.77.29-1.08.19-.18.38-.38.58-.58v-.76c.55-.59,1.09-1.15,1.64-1.73v-1.55c.5-.5.97-.97,1.46-1.46.18-.44.06-.99.54-1.36.52-.41.95-.93,1.42-1.4.19-.1.38-.01.56.27.19.31.38.38.56.19.08-.09.2-.2.21-.31.01-.25-.03-.51-.05-.77-.19-.19-.38-.37-.56-.56-.1-.52-.42.11-.05-.28.09-.1.19-.19.28-.28,1.6-1.6,3.19-3.2,4.8-4.79.07-.07.26,0,.39,0-.09-.5.21-.71.63-.79.26-.05.53,0,.8,0,.79-.04.96-.18.97-.86,0-.39,0-.79-1.2.15-1.28,1.8-1.21,2.04-.95,2.15.21.09.45.13.67.16.25.04.52-.07.58-.33.03-.12-.22-.41-.38-.44-.36-.07-.74-.02.08-1.54ZM38.34,420.53c-.09-.09-.23-.27-.26-.25-.28.15-.38.35-.27.51.07.1.22.27.25.25.28-.15.36-.34.27-.52ZM40.5,429.81c-.57.89-.57,1.06-.02,1.64.26.28.5.57.7.79.91,0,1.68.04,2.45-.02.29-.02.4-.31.32-.5-.05-.11-.17-.25-.27-.26-.25-.04-.51-.01-.85-.01-.21-.25-.46-.54-.68-.8h-.92c-.22-.25-.47-.54-.73-.84ZM42.47,426.25c.35.53.89.39,1.39.41.4.02.75-.05,1.01-.41v-.62c-.27-.91-1.26-.29-1.59-1.02,0-.46.04-.98-.02-1.49-.02-.14-.31-.25-.45-.36-.39.37-.76.73-1.13,1.08.28.29.55.57.8.84v1.56ZM43.14,419.99c0-.09.02-.21-.03-.27-.27-.4-1.14-.38-1.31.02-.03.08-.03.2.02.27.27.4,1.13.38,1.32-.02ZM44.34,430.52c.18.09.37,0,.52-.27.02-.03-.15-.19-.25-.25-.17-.11-.36,0-.51.27-.02.04.16.17.25.26ZM46.33,426.92c-.09-.09-.23-.27-.26-.25-.28.15-.38.35-.27.51.07.1.22.27.25.25.28-.16.36-.34.27-.52ZM47.98,425.54c-.09-.17-.2-.39-.36-.47-.33-.17-.5,0-.33.33.08.16.29.27.47.36.03.02.25-.2-.48-.71.08-.28.01-.52-.25-.63-.21-.09-.45-.12-.67-.16-.25-.04-.52.07-.58.33-.03.12.23.41.39.44.35.07.73.02,1.82.5ZM49.66,422.26c-.09-.09-.17-.24-.28-.26-.87-.23-1.75-.21-2.63-.01-.11.02-.19.17-.29.27v.75c.33.54.81.58,1.3.33.33-.17.57-.56.9-.65.37-.09.75-.08,1-.43ZM46.73,416.14c.18.09.37,0,.52-.27.02-.03-.15-.19-.25-.25-.17-.11-.36,0-.51.27-.02.03.16.17.25.26ZM47.94,430.92c-.09-.09-.17-.25-.27-.26-.25-.04-.51-.04-.77,0-.1.01-.21.14-.28.25-.05.07-.05.19-.02.27.17.41,1.05.43,1.31.02.04-.07.02-.18.03-.27ZM47.67,445.04c.57-.53.58-1.06,0-1.59-.09.08-.18.17-.27.26-.09.09-.2.17-.27.27-.17.27-.7.38-.5.8.2.43.67.21,1.03.26ZM48.09,408.66c.26.27.54.54.77.83.06.08-.04.29.02.38.32.43-.15-.04.39,0,.37-.37.73-.74,1.11-1.13.12-1.2.04-1.29-1.16-1.22-.37.37-.74.74-.36,2.7.04-.11.04-.32,0-.34-.25-.1-.45,0-.62.2-.16.19-.14.35.16.5.05.03.18-.05.25-.1.08-.07.18-.16-.55-1.84ZM51.26,428.66c0-.13-.02-.26,0-.38.07-.29,0-.51-.25-.67-.18-.12-.33-.02-.55.24-.25.29-.55.53-.82.79.56.59,1.09.59,1.62.02ZM49.66,404.68c.36.36.72.72,1.09,1.09.75-.1.44-.68.5-1.1-.54-.57-1.07-.56-1.59,0ZM75.14,401.57c-.09-.17-.2-.38-.36-.46-.34-.17-.5,0-.34.33.08.16.29.27.47.36.03.02.25-.2-.48-.71v-1.18c-.28-.29-.55-.58-.8-.85-.01-.28-.03-.54-.04-.77-.27-.31-.53-.6-.73-.82-.33-.91.63-1.14.7-1.47v-1.49c-.49-.64-.81-1.06-1.05-1.38h-1.72c-.4,1.04-1.8.46-2.22,1.43-.36.09-.72.19-1.07.28-.47.47-.94.94-1.41,1.41-.26.02-.52.03-.7.05-1.92,1.91-3.79,3.78-5.59,5.59h-.92c-.86.55-.11,1.51-.57,2.15l-1.41,1.41c-.01.26-.03.52-.04.8-.25.27-.52.56-.8.85v.77c-.27.29-.54.58-.8.85-.01.29-.03.54-.04.77-.27.31-.53.6-.8.91v1.47c-.3.37-.55.66-.82.98v1.48c-.25.25-.49.42-.62.63-.39.64,0,1.3.76,1.3.12,0,.25-.03.38-.05.19-.19.34-.43.57-.55.54-.3,1.28-.19,1.64-.85.04-.08.21-.12.33-.14.51-.06,1.09.18,1.52-.16.41-.32.73-.66,1.33-.68.31,0,.61-.44.94-.7.25.22.53.47.81.73.67-.31.12-1.3.84-1.59.26-.01.52-.02.75-.04.31-.27.6-.53.86-.76.44-.01.84-.03,1.09.36.18.27.38.39.56.31.28-.13.37-.37.28-.68-.09-.3,0-.53.34-.7.58-.07,1.21-.14,1.8-.21.37-.47.75-.81,1.38-.67.29-.26.57-.52.89-.8h1.49c.69-.69,1.34-1.34,2.05-2.05,0-.16.03-.42.05-.71-.25-.27-.51-.56-.8-.86v-2.37c.25-.28.51-.56.76-.83-.27-.29-.53-.59-.76-.85,0-.44-.04-.84.28-1.04.59.04.65.87,2.03,1.18ZM54.98,400.16c.09-.09.25-.17.26-.27.04-.25.04-.51,0-.77-.01-.11-.14-.21-.25-.28-.07-.05-.19-.05-.27-.02-.41.17-.42,1.05-.02,1.31.07.04.18.02.27.03ZM57.25,423.46c-.57.54-.57,1.07,0,1.6.57-.53.57-1.06,0-1.6ZM64.76,421.54c-.09-.17-.2-.39-.36-.47-.34-.16-.5,0-.34.34.08.16.29.27.47.36.03.02.25-.2-.48-.71,0-.13-.01-.26,0-.39.04-.37-.18-.84.26-1.05.42-.19.53.35.84.51.58-.18.89-.68,1.25-1.13-.81-.42-.81-.41-2.9-.17-.09,0-.16.18-.24.28,0,.65,0,1.3,0,2.3.04-.11.04-.32,0-.34-.25-.1-.45,0-.62.2-.16.19-.14.35.16.5.05.03.18-.05.25-.1.09-.07.18-.16.22-.62.27,0,.53,0,1.51.48ZM64.72,422.93c-.09-.09-.17-.25-.27-.26-.25-.04-.51-.04-.77,0-.1.01-.21.14-.28.25-.04.07-.05.19-.02.26.17.4,1.05.42,1.31.02.05-.06.02-.18.03-.27ZM75.23,420.27c.08.47-.21,1.01.22,1.43.72.2,1.43.4,2.09-.14.23-.6-.1-1.25.23-1.83.15-.26.37-.34.66-.26v1.98c.36.49.85.59,1.32.27.41-.28.72-.69,1.05-1.03-.28-.33-.5-.6-.73-.86.14-.14.22-.25.33-.32.27-.19.38-.38.29-.56-.14-.28-.37-.33-.67-.28-.25.04-.52,0-.79,0,0-.13-.05-.31,0-.39.23-.29.51-.56.76-.83-.26-.42-.67-.34-1.05-.4-.39-.06-.56-.43-.52-.89.05-.48.15-.59.74-.69.76-.13.96-.33.85-.96-.04-.23-.25-.42-.38-.64h-1.58c-.29-.27-.58-.54-.85-.79h-.78c-.67.49-.22,1.6-1.13,1.93-.02.25-.04.51-.07.9.34.27.75.6,1.37,1.09.06.02.44.07.78.21.35.14.32.37-.25.66-.68-.16-1.56.15-2.47-.16-.49-.17.1.1-.27-.38,0-.46.01-.98-.01-1.51,0-.1-.17-.19-.27-.28-.16.15-.41.28-.45.46-.14.61.24,1.32-.37,1.83-.27.01-.53.02-.81.04-.27-.26-.56-.53-.85-.8h-.38c-.13,0-.27-.01-.4,0-.38.04-.88-.2-1.05.28-.14.39.38.55.59.88-.22.25-.46.53-.71.82.24.26.5.54.76.83v.78c.38.38.75.75,1.16,1.16.27-.24.55-.47.85-.74h.73c.29-.28.58-.54.87-.82.39,0,.79,0,1.18,0ZM73.62,385.47c.08-.23.02-.51.02-.86-.55-.41-1.45-.25-1.89-.97-.08-.14-.4,0-.5.29-.08.23-.02.51-.02.86.54.41,1.45.25,1.89.97.08.14.4,0,.5-.29h0ZM72.03,387.9c.54.57,1.07.57,1.6,0-.54-.57-1.07-.57-1.6,0ZM72.57,415.6c-.18-.09-.37,0-.52.27-.02.04.15.19.25.26.17.11.36,0,.51-.27.02-.04-.16-.17-.25-.26ZM74.83,381.91c-.56.81-.56.82.02,1.6h.78c.56-.81.56-.82-.02-1.6h-.78ZM78.43,383.91c-.86-.56-.89-.59-1.63.06-.34.29-.67.35-1.06.34-.52.38-1.02.78-1.31,1.38q0,1.96.39,2.61c.29-.27.57-.54.84-.79.91-.13,1.86.34,2.73-.35-.24-.28-.47-.55-.72-.84-.01-.23-.02-.49-.04-.77.26-.28.53-.56.8-.85,0-.25,0-.52,0-.78ZM77.1,408.14c.18.09.37,0,.52-.27.02-.03-.15-.19-.25-.25-.17-.11-.36,0-.51.27-.02.03.16.17.25.26ZM79.1,388.58c-.09-.09-.17-.25-.27-.26-.25-.04-.51-.04-.77,0-.11,0-.21.14-.28.24-.04.07-.05.19-.02.27.17.41,1.05.43,1.31.02.04-.07.02-.18.03-.27ZM79.66,425.06h-.84c-.46.38-.55.84-.24,1.35.15.25.4.24.69.26.61.04.64.07.73.67.04.28.03.52.21.71.2.21.38.16.59-.19v-1.59c-.24-.25-.51-.54-.78-1.22.38,0,.77.02,1.15,0,.1,0,.19-.15.29-.22.32-.85.13-1.72.13-2.6-.36-.31-.69-.27-.75.1-.04.25,0,.5,0,.72-.29.3-.55.58-.8.84,0,.4,0,.78-.37,1.16ZM79.76,401.76c.09-.09.27-.23.25-.26-.15-.28-.35-.38-.51-.27-.11.06-.27.22-.25.25.15.28.34.37.52.28ZM79.76,434.52c.09-.09.27-.23.25-.26-.15-.28-.35-.38-.51-.27-.1.07-.27.22-.25.25.15.28.34.36.52.27ZM79.63,385.11c-.09.09-.2.17-.26.27-.1.17,0,.37.27.52.03.02.19-.15.25-.25.11-.17,0-.35-.26-.53ZM79.36,404.02c.09.09.23.27.26.25.28-.15.38-.35.27-.51-.07-.1-.22-.27-.25-.25-.28.16-.36.34-.27.52ZM80.55,387.63c-.09,0-.21-.02-.27.03-.4.27-.38,1.14.02,1.31.08.03.2.03.27-.02.4-.27.38-1.13-.02-1.32ZM80.82,431.05c-.09-.09-.17-.2-.27-.26-.17-.11-.36,0-.51.27-.02.03.15.19.25.25.17.11.35,0,.53-.26ZM81.62,411.08c-.09-.09-.17-.2-.27-.26-.17-.11-.36,0-.51.27-.02.03.15.19.25.25.17.11.35,0,.53-.26ZM82.44,433.05c.13,0,.27.04.38,0,.11-.04.21-.16.27-.27.1-.17-.01-.38-.3-.51-.1-.05-.26.02-.38-.01-.3-.08-.52,0-.66.28-.14.27.19.52.68.53Z"/>
        <path class="cls-8" d="M99.95,419.93c.22-.86.08-1.1-.72-1.26,0-.13-.05-.31,0-.39.25-.3.53-.58.79-.85-.02-.29-.03-.54-.04-.8-.16-.26-.39-.32-.65-.37-.9-.17-.91-.19-.9-.92,0-.39.03-.77.05-1.12.23-.22.42-.42.64-.64.26-.99.04-2.05.11-3.09.06-.91-.12-1.84.12-2.73.97-1.04.96-1.11-.09-2.25v-1.6c.21-.23.47-.52.74-.81-.25-.28-.51-.56-.76-.83v-1.56c.27-.3.51-.58.75-.85-.22-.22-.41-.41-.6-.6-.05-.11-.16-.22-.16-.33,0-1.86-.01-3.72,0-5.58,0-.52-.1-1.05.1-1.55.59-.59.58-.59.69-1.31-.32-.76-1.14-1.07-1.51-1.82.19-.21.45-.49.71-.77v-.77c-.28-.3-.55-.59-.8-.86,0-.42-.05-.81.33-1.1.2-.15.31-.39.42-.53v-1.57c-.24-.24-.42-.42-.62-.62-.19-.62-.21-1.25,0-1.86.17-.26.4-.34.7-.27.29.08.55-.02.66-.31.07-.19-.11-.4-.4-.48-.25-.07-.51-.06-.75-.08-.43-.26-.32-.68-.34-1.04.29-.77,1.26-.25,1.59-.89.34-.65,1.31-.12,1.6-.89.01-.23.03-.49.04-.75.16-.25.38-.36.65-.36,1.73,0,3.45,0,5.23,0,.26.23.55.49.86.76.23,0,.5.02.77.04.28-.26.56-.53.85-.8h1.59c.54.54,1.07,1.07,1.61,1.61q.37-.55.38-1.19c.09-.1.16-.24.27-.28.76-.27,1.55-.09,2.41-.15.25.21.55.45.88.72.2.02.45.05.76.09.27-.23.56-.49.89-.78h4.76c.25.23.53.49.82.76.28-.26.56-.52.82-.76h3.16c.32.29.61.54.87.78.44.01.84.03,1.09-.36.18-.27.38-.39.56-.31.28.14.37.38.28.68-.09.3,0,.59.29.65.16.03.38-.19.55-.32.11-.08.19-.18.31-.31.27.25.55.49.85.76h1.55c.58.55,1.14,1.09,1.67,1.6.32.03.7-.04.81.1.44.55,1.03.7,1.66.84.3.07.38.36.28.84.03.07.04-.15,0-.16-.25-.1-.45,0-.62.2-.16.19-.14.35.16.5.05.03.18-.04.25-.1.09-.07.18-.16.22-.44.51-.27.76.04.79.46.03.42.09.79.49.95.23.09.58-.03.68.07.73.66,1.4,1.31,2.05,1.93v.82c.48.48.95.95,1.42,1.42.31.76.1,1.55.17,2.33.13.21.24.44.4.63.36.39.75.76,1.16,1.17v3.13c.28.3.54.59.82.91v7.95c-.25.27-.52.56-.79.86v3.95c-.28.3-.55.59-.82.9v1.51c-.3.34-.55.64-.77.89v1.38c-.18.22-.48.48-.65.81-.17.32-.2.71-.29,1.07-.47.47-.95.95-1.42,1.42-.01.26-.02.52-.04.78-.58.46-.85,1.4-1.94,1.23-.8.78-1.65,1.6-2.48,2.41-.28.01-.55.03-.8.04-.38.38-.75.75-1.14,1.14v.8c.25.26.51.55.79.84v.78c.2.2.4.37.57.58.39.49,1.02.76,1.07,1.57.03.44.67.83.71,1.27.06.61.45.9.75,1.3.22.29-.02.77.29,1.07.19.18.38.38.58.58v.76c.28.3.55.59.82.88v.78c.29.29.57.57.85.85.19.19.38.37.72.71.23.22-.25.95.46,1.17.23-.21.51-.46.78-.71.3.27.59.53.91.8h1.52c.23.23.42.42.65.65.58.06,1.21.13,1.8.2.58.59.15,1.3.31,1.92.21.13.41.33.64.37.39.06.8-.03,1.19.04.19.03.34.28.5.44-.19.19-.38.38-.57.56-.39.86,0,1.8-.28,2.68-.19.19-.38.38-.65.65-.02.43-.04.94-.07,1.57-.18.22-.42.51-.78.94,0,.51-.02,1.16,0,1.81.02.65-.25.97-.91.92-.27-.02-.46.13-.66.35-.16.18-.4.43-.61.42-1.05-.02-2.1.15-3.11-.07-.21-.21-.4-.4-.62-.62-1.02-.21-2.08,0-3.12-.11-.41-.05-.64-.39-.56-.85.05-.29-.07-.5-.37-.68-.26.23-.54.48-.84.75h-.76c-.28-.25-.57-.52-.87-.8h-.74c-.32-.29-.61-.55-.87-.78-.3-.03-.56-.05-.5-.05-1.1-1.1-2.04-2.03-3.03-3.01.02-.28,0-.67-.41-.93h-.81c-.34-.37-.7-.76-1.13-1.23v-1.65c-.53-.42-1.16-.91-1.64-1.29v-1.83c-.38-.38-.76-.75-1.13-1.14-.17-.18-.47-.43-.44-.59.16-.8-.7-1.06-.81-1.67-.04-.23.03-.52.14-.73.13-.22.36-.38.55-.57-.1-.45-.42-.52-.81-.49-.27.02-.49-.1-.69-.42v-1.11c0-.67,0-.67-.97-.86-.12-.02-.23-.08-.48-.16-.93-.96-1.95-2.01-2.95-3.05h-.8c-.42-.33-.65-.87-1.3-.8-.46.05-.64-.39-.97-.65-.45-.28-.99-.07-1.49-.14-.66.23-1,.81-1.46,1.3v3.89c-.27.32-.5.59-.73.86.23.23.42.42.61.61.07.46-.39.56-.6.91.21.25.44.52.72.84v13.65c-.31.25-.72.58-1.42,1.14-.4.16-1.2-.18-1.96.05-.34-.28-.63-.53-.96-.8-.21-.02-.46-.05-.76-.08-.27.24-.56.5-.86.77-.27-.25-.55-.5-.83-.76h-.77c-.31.28-.59.55-.84.76h-7.2c-.4-.4-.78-.78-1.16-1.16v-1.03c.48-.37,1.1-.87,1.61-1.26-.05-.47-.08-.73-.1-.99-.19-.19-.38-.38-.67-.67-.02-.41-.05-.92-.07-1.39.35-.79,1.05-1.21,1.58-1.83-.52-.55-1.04-1.11-1.55-1.65v-3.15c.29-.32.55-.61.79-.88-.03-.29-.06-.55-.08-.8-.19-.19-.38-.38-.56-.56-.05-.25-.15-.49-.15-.73,0-3.19,0-6.39,0-9.58,0-.38.03-.78.13-1.14.1-.29.38-.38.68-.28,0,.37-.01.75,0,1.12,0,.1.12.21.2.28.07.06.2.14.25.12.11-.05.23-.15.26-.25h0ZM102.42,387.49c0-.13.04-.27,0-.38-.04-.11-.16-.21-.27-.27-.17-.1-.38.01-.51.3-.05.1.02.26-.01.38-.08.3,0,.52.28.66.28.13.52-.19.53-.68ZM107.21,389.1c-.29.09-.51,0-.67-.26-.25-.42.01-1.03-.55-1.33-.34.05-.76-.16-1.18.48.06.9-.08,2.03.07,3.16.01.1.17.18.33.34.31,0,.69-.02,1.06,0,.42.04.72-.11.93-.47v-1.93h1.19c.13-.21.3-.4.4-.63.09-.23.06-.51.18-.72.13-.22.36-.38.55-.57-.52-.67-.59-.68-1.48-.12-.01.26-.03.52-.04.75-.2.5-.92.63-.8,1.29ZM107.62,395.5c.46-.38.56-.85.25-1.33-.28-.43-.66-.79-.92-1.1-.55.08-.98-.09-1.34.55.34.48-.46,1.32.46,1.89.52,0,1.04,0,1.56,0ZM106.82,433.05c-.13,0-.26.02-.38,0-.29-.07-.51,0-.67.25-.19.31-.21.88-.04,1.05.62.64,1.25,1.28,1.87,1.92.75-.65.37-1.41.31-2.13-.37-.37-.73-.73-1.09-1.09ZM107.62,413.08c.57-.54.57-1.07,0-1.6-.58.53-.58,1.06,0,1.6ZM132.79,410.68h-1.2c-.65.65-1.3,1.31-1.95,1.97.17.14.34.38.54.41.51.09,1.03.05,1.53.16.3.06.38.36.28.66h-1.36c-.42.5-.92,1.1-1.34,1.6-1.21-.05-1.21-.06-1.29-1.09-.36-.48-.71-.97-1.3-1.21-.19.19-.38.38-.56.56-.44.05-.55-.39-.86-.58-.86-.13-1.75-.22-2.62.07-.1.04-.17.19-.25.28v2.75c-.63.1-.78-.53-1.23-.8-.71,0-1.45,0-2.2,0-.29,0-.46-.24-.56-.8.38,0,.77.02,1.15,0,.1,0,.19-.15.46-.36-.03-.72.04-1.59-.05-2.46,0-.1-.17-.18-.26-.27-.09.03-.21.03-.27.08-.36.35-.71.71-1.03,1.04v1.98c-.13,0-.31.05-.39,0-.3-.25-.58-.53-.85-.79-.29.02-.72-.05-.78.06-.46.96-1.78.48-2.25,1.39-.04.08-.21.12-.33.14-.4.05-.75-.04-.96-.41.26-.29.52-.58.82-.91-.24-.58.25-1.31-.43-1.85-.27.25-.54.53-.83.76-.08.06-.26,0-.39,0,0-.38.04-.77-.02-1.14-.03-.15-.31-.25-.47-.36-.38.38-.74.74-1.11,1.11,0,1.01.02,2.03-.02,3.05,0,.19-.28.37-.43.55-.38,0-.76,0-2.75.86.83-.26.95-.99,1.6-.86-.13-.5.3-.7.57-.95.25-.23.25-.38-.23-.65h-1.02c-.69,0-.91.22-.91.91,0,.39,0,.77,1.6.69,0,.53,0,1.06,0,1.95.04-.11.04-.32,0-.34-.25-.1-.45,0-.62.2-.16.19-.14.35.16.5.05.03.18-.05.25-.1.09-.07.18-.16.22-.62.13,0,.32-.06.39,0,.39.36.75.74,1.13,1.12.02.24.05.5.08.8.23.25.51.53.75.82.21.25.39.39.56.3.28-.13.34-.37.29-.68-.04-.26,0-.53,0-.79h2c.29-.45.92-.67,1.09-1.26-.23-.28-.44-.54-.61-.76.42-.44.76-.82,1.13-1.17.07-.06.25,0,.38,0v2.37q0,.68.54.68l1.4-1.4c.25-.02.51-.04.8-.06.26-.24.55-.5.81-.74.75.25.15,1.25.88,1.54h.74c.29-.26.57-.52.83-.76.29.25.57.48.84.71.13-.13.24-.22.32-.32.2-.27.38-.38.56-.3.28.14.34.37.28.67-.04.25,0,.53,0,.79h-1.19c-.37.25-.45.61-.41,1.03.14.2.27.42.44.6.27.28.57.53.82.76.45,0,.84,0,1.24,0,.27,0,.55-.09.61-.37.02-.1-.32-.39-.5-.41-.4-.04-.77-.06-1.02-.43v-1.19c.13,0,.31-.05.38,0,.29.24.56.51.82.76.3-.27.59-.53.82-.74h1.56c.34.29.62.55.92.81.52,0,1.07-.09,1.5.03.37.11.51.71.89.59.47-.15.25-.67.3-1.03-.27-.29-.54-.57-.8-.85v-1.97c.12,0,.3.05.37,0,.27-.25.51-.54.73-.78h.84c.27-.25.54-.5.87-.81.42,0,.93.05,1.41-.02.37-.06.66-.32.57-.78h1.76c.86-.24.49-.92.76-1.33.46-.46.92-.92,1.39-1.39.11-.48.23-.96-.36-1.21-.28.23-.55.46-.78.66-.34-.29-.63-.53-.88-.72-.86-.04-1.64.08-2.28-.08-.4-.29-.67-.57-1.01-.71-.46-.2-.89.16-.98.79ZM108.81,422.26c-.54-.57-1.07-.57-1.6,0,.53.57,1.07.57,1.6,0ZM108.68,407.75c-.09-.09-.23-.27-.26-.25-.28.15-.38.35-.27.51.07.1.22.27.25.25.28-.15.36-.34.27-.52ZM110.81,385.91c.56-.81.56-.82-.02-1.6h-.78c-.56.81-.56.82.02,1.6h.78ZM110.41,389.5c.25.35.59.43,1,.41.49-.03,1.04.13,1.42-.45-.27-.25-.55-.5-.83-.76-.57-.53-.79-.53-1.59.04v.77ZM113.34,387.38c.09-.09.25-.17.26-.27.04-.25.04-.51,0-.77-.01-.1-.14-.21-.25-.28-.07-.05-.19-.05-.27-.02-.41.17-.43,1.05-.02,1.31.07.05.18.02.27.03ZM132.79,395.09c-.99-.99-1.82-1.85-2.69-2.66-.15-.14-.51-.04-.72-.15-.34-.18-.62-.45-1.07-.79h-2.18c-.66,0-1.33.03-1.99,0-.77-.04-1.56.16-2.3-.16-.2-.2-.38-.38-.63-.63-1.52,0-3.11,0-4.69,0-.1,0-.21.12-.31.2-.19.19-.38.38-.59.59-.23,0-.49-.02-.75,0-.37.03-.8-.16-1.19.37-.11,1.02-.1,2.18,0,3.29.23.23.42.42.6.6.04.12.12.23.12.34,0,2.25,0,4.5,0,6.76,0,.12-.08.23-.12.34-.19.19-.38.38-.62.62.22.26.44.53.71.86v1.53c.47.42.79,1,1.4,1.26.8-.05,1.58.11,2.35-.13.19-.19.38-.37.62-.62.26.22.53.44.84.69.25-.22.53-.46.83-.73h.76c.27.25.56.52.85.79h4.75c.29-.27.58-.54.85-.8.28-.01.54-.03.8-.04.41-.55.92-.9,1.6-.84.31-.26.61-.51.84-.7.71-.13,1.43.27,1.92-.42v-.78c.26-.29.52-.57.76-.83-.27-.31-.53-.59-.72-.82v-1.56c.3-.36.55-.65.7-.84v-1.56c-.32-.4-.55-.7-.74-.93v-2.27ZM113.61,380.71v.78q.78.58,1.6.02v-.78c-.78-.58-.79-.58-1.6-.02ZM114.4,383.91c.54.57,1.07.57,1.6,0-.53-.57-1.06-.57-1.6,0ZM116.81,384.03c.21.17.52.4.78.68.22.24.38.36.55.25.26-.15.3-.37.27-.67-.04-.38,0-.77,0-1.16-.77-.59-.78-.59-1.59-.03v.93ZM119.87,377.39c-.09-.09-.23-.27-.26-.25-.28.15-.38.35-.27.51.07.1.22.27.25.25.28-.16.36-.34.27-.52ZM120.8,383.11v.78q.78.58,1.6.02v-.78q-.78-.58-1.6-.02ZM121.46,412.81c.09-.18,0-.37-.27-.52-.03-.02-.19.15-.25.25-.1.17,0,.36.27.51.03.02.17-.16.26-.25ZM122,409.88c.36-.36.72-.72,1.09-1.09-.1-.75-.68-.44-1.09-.5-.57.54-.56,1.07,0,1.59ZM123.07,377.65c0-.09.02-.2-.03-.27-.26-.41-1.14-.39-1.31.02-.03.08-.03.2.02.27.27.4,1.14.38,1.32-.02ZM129.31,424.13c.09-.09.25-.17.26-.27.04-.25.04-.51,0-.77-.01-.1-.14-.21-.25-.28-.07-.04-.19-.05-.27-.02-.41.17-.43,1.05-.02,1.31.07.05.18.02.27.03ZM133.2,385.91c.39,0,.8.05,1.18-.01.52-.09,0,.15,0-.39-.37-.36-.74-.73-1.17-1.15h-1.59c-.2.17-.45.47-.77.67-.31.19-.75-.03-1.06.28-.2.2-.16.38.2.58h1.58c.24-.22.53-.48.82-.75.27.25.55.51,2.01.77v1.18c.27.29.54.57.81.86v1.56c.38.38.75.76,1.19,1.19h1.11c.74,0,1.26-.77.78-1.26-.48-.5-.67-1.04-.82-1.66-.08-.3-.36-.37-.67-.28,0-.37.04-.75-.02-1.1-.03-.17-.28-.29-.42-.43-.26.24-.52.48-.77.71-.28-.27-.54-.53-.82-.76-.08-.05-.24,0-1.54,0ZM129.99,383.51c-.09.09-.2.17-.26.27-.11.17,0,.36.27.51.03.02.19-.15.25-.25.11-.16,0-.35-.26-.53ZM135.98,408.27c0-.13.04-.27,0-.38-.04-.11-.16-.21-.27-.27-.17-.1-.38.01-.51.3-.05.1.02.26-.01.38-.08.3,0,.52.28.66.28.14.52-.19.53-.68ZM135.85,384.58c-.09-.09-.23-.27-.26-.25-.28.15-.38.35-.27.51.07.1.22.27.25.25.28-.15.36-.34.27-.52ZM138.38,406.68c-.37,0-.75-.05-1.12.02-.16.03-.28.29-.42.44.36.36.71.71,1.07,1.07.15-.14.41-.26.44-.42.07-.37.02-.75.02-1.12.72-.27.72-.28,1.5-1.3-.78-.46-.86-.46-1.5.18v1.12ZM139.84,394.43c.09-.18,0-.37-.27-.52-.03-.02-.19.15-.25.25-.11.16,0,.36.27.51.03.02.17-.16.26-.25ZM140.91,401.62c.09.09.23.27.26.25.28-.15.38-.35.27-.51-.07-.1-.22-.27-.25-.25-.28.15-.36.34-.27.52Z"/>
        <path class="cls-8" d="M177.29,385.19c2.4-1.87,3.35-1.43,4.27-1.93.07-.59.14-1.22.21-1.83.26-.45.7-.29,1.08-.33.29-.26.58-.53.88-.8h1.55c.31-.29.6-.55.9-.83h1.51c.32-.19.38-.41.4-.69.04-.59.22-.85.55-.87.4-.02.8,0,1.2,0,.21-.13.49-.21.62-.4.48-.69,1.63-.18,1.95-1.16h2.44c.22.2.51.46.81.73.55-.52,1.11-1.05,1.68-1.6h8.74c.22-.22.41-.41.59-.59.09-.02.24-.1.28-.06.66.64,1.31,1.29,1.89,1.88.02.52-.05.85-.34,1.18-.71.83-.67.92.25,1.91.04.12.1.24.1.36,0,2,0,3.99,0,6.05-.22.25-.47.55-.77.9v9.49c-.27.3-.54.59-.82.9v.77c.25.28.52.57.78.84v12.74c-.28.31-.55.6-.76.84-.15.67.17,1.06.6,1.39.06.26.16.5.17.74.01,1.86,0,3.73,0,5.59,0,.38.04.77.06,1.1.24.24.42.42.61.61.04.12.12.23.12.35,0,7.32,0,14.63,0,21.96-.26.59-.74.98-1.27,1.32-1.1-1.01-1.17-1.01-2.21-.05-.54.01-.64-.75-1.22-.68-.13.01-.26,0-.44,0-.27.24-.56.5-.87.79h-3.16c-.27-.25-.56-.5-.84-.76-.29.26-.58.52-.81.73h-2.41c-.41-.41-.79-.79-1.15-1.15.3-.7,1.34-.07,1.56-.96v-1.46c-.18-.29-.4-.43-.67-.39-.45.06-.84-.13-.88-.54-.08-.78-.02-1.57-.02-2.26.28-.28.5-.45.65-.66.23-.34.26-.76,0-1.06-.34-.4-.78-.72-.59-1.52.7-.7,1.52-1.52,2.33-2.34-.19-.32-.41-.45-.69-.41-.45.06-.87-.14-.88-.54-.05-2.11-.02-4.23-.02-6.19-.48-.51-.84-.9-1.17-1.25h-1.62c-.31.28-.6.54-.9.82h-1.54c-.5.5-.97.97-1.44,1.44-.36.09-.72.19-1.08.28-.44.93-1.81.42-2.22,1.43h-1.56c-.3.28-.59.54-.89.82h-1.57c-.38.38-.8.73-1.13,1.14-.51.63-1.54.32-1.93,1.12-.51.05-1.03.11-1.69.18-.18.15-.47.4-.79.67-.7-.08-1.19.31-1.62.86h-.74c-.88.37.03,1.78-1.22,1.73v8.96c-.36.38-.71.76-1.05,1.13-3.03.23-8.48.26-13.88.08-.09-.09-.27-.19-.27-.28-.03-.79-.02-1.59-.02-2.4.25-.27.51-.56.77-.83v-1.56c-.29-.32-.55-.61-.75-.84v-6.4l.65-.65c.07-.57.14-1.2.21-1.81.21-.21.4-.4.65-.65-.21-.26-.43-.53-.71-.87v-6.36c.2-.23.46-.51.75-.84v-2.33c.28-.3.55-.59.82-.89v-.75c.26-.3.51-.58.75-.85-.22-.21-.41-.4-.59-.59-.21-.51.43-.51.43-.37.12-.73.17-.97.2-1.22.04-.38-.09-.78.16-1.13.28-.38.72-.17,1.08-.29.11-.04.22-.16.27-.28.03-.06-.05-.2-.12-.27-.17-.2-.42-.24-.72-.2-.26.03-.48-.12-.66-.39v-.78c.52-.55,1.06-1.12,1.62-1.7v-1.55c.22-.22.41-.41.6-.6.39-.75-.03-1.55.07-1.82.2-1.13,1.1-1.38.89-2.16.23-.3.51-.58.71-.91.19-.32-.03-.77.29-1.08.19-.18.38-.38.58-.58v-.76c.55-.59,1.09-1.15,1.64-1.73v-1.55c.5-.5.97-.97,1.46-1.46.18-.44.06-.99.54-1.36.52-.41.95-.93,1.42-1.4.19-.1.38-.01.56.27.19.31.38.38.56.19.08-.09.2-.2.21-.31.01-.25-.03-.51-.05-.77-.19-.19-.38-.37-.56-.56-.1-.52-.42.11-.05-.28.09-.1.19-.19.28-.28,1.6-1.6,3.19-3.2,4.8-4.79.07-.07.26,0,.39,0-.09-.5.21-.71.63-.79.26-.05.53,0,.8,0,.79-.04.96-.18.97-.86,0-.39,0-.79-1.2.15-1.28,1.8-1.21,2.04-.95,2.15.21.09.45.13.67.16.25.04.52-.07.58-.33.03-.12-.22-.41-.38-.44-.36-.07-.74-.02.08-1.54ZM159.98,420.53c-.09-.09-.23-.27-.26-.25-.28.15-.38.35-.27.51.07.1.22.27.25.25.28-.15.36-.34.27-.52ZM162.14,429.81c-.57.89-.57,1.06-.02,1.64.26.28.5.57.7.79.91,0,1.68.04,2.45-.02.29-.02.4-.31.32-.5-.05-.11-.17-.25-.27-.26-.25-.04-.51-.01-.85-.01-.21-.25-.46-.54-.68-.8h-.92c-.22-.25-.47-.54-.73-.84ZM164.11,426.25c.35.53.89.39,1.39.41.4.02.75-.05,1.01-.41v-.62c-.27-.91-1.26-.29-1.59-1.02,0-.46.04-.98-.02-1.49-.02-.14-.31-.25-.45-.36-.39.37-.76.73-1.13,1.08.28.29.55.57.8.84v1.56ZM164.78,419.99c0-.09.02-.21-.03-.27-.27-.4-1.14-.38-1.31.02-.03.08-.03.2.02.27.27.4,1.13.38,1.32-.02ZM165.97,430.52c.18.09.37,0,.52-.27.02-.03-.15-.19-.25-.25-.17-.11-.36,0-.51.27-.02.04.16.17.25.26ZM167.97,426.92c-.09-.09-.23-.27-.26-.25-.28.15-.38.35-.27.51.07.1.22.27.25.25.28-.16.36-.34.27-.52ZM169.62,425.54c-.09-.17-.2-.39-.36-.47-.33-.17-.5,0-.33.33.08.16.29.27.47.36.03.02.25-.2-.48-.71.08-.28.01-.52-.25-.63-.21-.09-.45-.12-.67-.16-.25-.04-.52.07-.58.33-.03.12.23.41.39.44.35.07.73.02,1.82.5ZM171.3,422.26c-.09-.09-.17-.24-.28-.26-.87-.23-1.75-.21-2.63-.01-.11.02-.19.17-.29.27v.75c.33.54.81.58,1.3.33.33-.17.57-.56.9-.65.37-.09.75-.08,1-.43ZM168.37,416.14c.18.09.37,0,.52-.27.02-.03-.15-.19-.25-.25-.17-.11-.36,0-.51.27-.02.03.16.17.25.26ZM169.58,430.92c-.09-.09-.17-.25-.27-.26-.25-.04-.51-.04-.77,0-.1.01-.21.14-.28.25-.05.07-.05.19-.02.27.17.41,1.05.43,1.31.02.04-.07.02-.18.03-.27ZM169.3,445.04c.57-.53.58-1.06,0-1.59-.09.08-.18.17-.27.26-.09.09-.2.17-.27.27-.17.27-.7.38-.5.8.2.43.67.21,1.03.26ZM169.72,408.66c.26.27.54.54.77.83.06.08-.04.29.02.38.32.43-.15-.04.39,0,.37-.37.73-.74,1.11-1.13.12-1.2.04-1.29-1.16-1.22-.37.37-.74.74-.36,2.7.04-.11.04-.32,0-.34-.25-.1-.45,0-.62.2-.16.19-.14.35.16.5.05.03.18-.05.25-.1.08-.07.18-.16-.55-1.84ZM172.9,428.66c0-.13-.02-.26,0-.38.07-.29,0-.51-.25-.67-.18-.12-.33-.02-.55.24-.25.29-.55.53-.82.79.56.59,1.09.59,1.62.02ZM171.3,404.68c.36.36.72.72,1.09,1.09.75-.1.44-.68.5-1.1-.54-.57-1.07-.56-1.59,0ZM196.78,401.57c-.09-.17-.2-.38-.36-.46-.34-.17-.5,0-.34.33.08.16.29.27.47.36.03.02.25-.2-.48-.71v-1.18c-.28-.29-.55-.58-.8-.85-.01-.28-.03-.54-.04-.77-.27-.31-.53-.6-.73-.82-.33-.91.63-1.14.7-1.47v-1.49c-.49-.64-.81-1.06-1.05-1.38h-1.72c-.4,1.04-1.8.46-2.22,1.43-.36.09-.72.19-1.07.28-.47.47-.94.94-1.41,1.41-.26.02-.52.03-.7.05-1.92,1.91-3.79,3.78-5.59,5.59h-.92c-.86.55-.11,1.51-.57,2.15l-1.41,1.41c-.01.26-.03.52-.04.8-.25.27-.52.56-.8.85v.77c-.27.29-.54.58-.8.85-.01.29-.03.54-.04.77-.27.31-.53.6-.8.91v1.47c-.3.37-.55.66-.82.98v1.48c-.25.25-.49.42-.62.63-.39.64,0,1.3.76,1.3.12,0,.25-.03.38-.05.19-.19.34-.43.57-.55.54-.3,1.28-.19,1.64-.85.04-.08.21-.12.33-.14.51-.06,1.09.18,1.52-.16.41-.32.73-.66,1.33-.68.31,0,.61-.44.94-.7.25.22.53.47.81.73.67-.31.12-1.3.84-1.59.26-.01.52-.02.75-.04.31-.27.6-.53.86-.76.44-.01.84-.03,1.09.36.18.27.38.39.56.31.28-.13.37-.37.28-.68-.09-.3,0-.53.34-.7.58-.07,1.21-.14,1.8-.21.37-.47.75-.81,1.38-.67.29-.26.57-.52.89-.8h1.49c.69-.69,1.34-1.34,2.05-2.05,0-.16.03-.42.05-.71-.25-.27-.51-.56-.8-.86v-2.37c.25-.28.51-.56.76-.83-.27-.29-.53-.59-.76-.85,0-.44-.04-.84.28-1.04.59.04.65.87,2.03,1.18ZM176.62,400.16c.09-.09.25-.17.26-.27.04-.25.04-.51,0-.77-.01-.11-.14-.21-.25-.28-.07-.05-.19-.05-.27-.02-.41.17-.42,1.05-.02,1.31.07.04.18.02.27.03ZM178.89,423.46c-.57.54-.57,1.07,0,1.6.57-.53.57-1.06,0-1.6ZM186.39,421.54c-.09-.17-.2-.39-.36-.47-.34-.16-.5,0-.34.34.08.16.29.27.47.36.03.02.25-.2-.48-.71,0-.13-.01-.26,0-.39.04-.37-.18-.84.26-1.05.42-.19.53.35.84.51.58-.18.89-.68,1.25-1.13-.81-.42-.81-.41-2.9-.17-.09,0-.16.18-.24.28,0,.65,0,1.3,0,2.3.04-.11.04-.32,0-.34-.25-.1-.45,0-.62.2-.16.19-.14.35.16.5.05.03.18-.05.25-.1.09-.07.18-.16.22-.62.27,0,.53,0,1.51.48ZM186.35,422.93c-.09-.09-.17-.25-.27-.26-.25-.04-.51-.04-.77,0-.1.01-.21.14-.28.25-.04.07-.05.19-.02.26.17.4,1.05.42,1.31.02.05-.06.02-.18.03-.27ZM196.87,420.27c.08.47-.21,1.01.22,1.43.72.2,1.43.4,2.09-.14.23-.6-.1-1.25.23-1.83.15-.26.37-.34.66-.26v1.98c.36.49.85.59,1.32.27.41-.28.72-.69,1.05-1.03-.28-.33-.5-.6-.73-.86.14-.14.22-.25.33-.32.27-.19.38-.38.29-.56-.14-.28-.37-.33-.67-.28-.25.04-.52,0-.79,0,0-.13-.05-.31,0-.39.23-.29.51-.56.76-.83-.26-.42-.67-.34-1.05-.4-.39-.06-.56-.43-.52-.89.05-.48.15-.59.74-.69.76-.13.96-.33.85-.96-.04-.23-.25-.42-.38-.64h-1.58c-.29-.27-.58-.54-.85-.79h-.78c-.67.49-.22,1.6-1.13,1.93-.02.25-.04.51-.07.9.34.27.75.6,1.37,1.09.06.02.44.07.78.21.35.14.32.37-.25.66-.68-.16-1.56.15-2.47-.16-.49-.17.1.1-.27-.38,0-.46.01-.98-.01-1.51,0-.1-.17-.19-.27-.28-.16.15-.41.28-.45.46-.14.61.24,1.32-.37,1.83-.27.01-.53.02-.81.04-.27-.26-.56-.53-.85-.8h-.38c-.13,0-.27-.01-.4,0-.38.04-.88-.2-1.05.28-.14.39.38.55.59.88-.22.25-.46.53-.71.82.24.26.5.54.76.83v.78c.38.38.75.75,1.16,1.16.27-.24.55-.47.85-.74h.73c.29-.28.58-.54.87-.82.39,0,.79,0,1.18,0ZM195.25,385.47c.08-.23.02-.51.02-.86-.55-.41-1.45-.25-1.89-.97-.08-.14-.4,0-.5.29-.08.23-.02.51-.02.86.54.41,1.45.25,1.89.97.08.14.4,0,.5-.29h0ZM193.67,387.9c.54.57,1.07.57,1.6,0-.54-.57-1.07-.57-1.6,0ZM194.2,415.6c-.18-.09-.37,0-.52.27-.02.04.15.19.25.26.17.11.36,0,.51-.27.02-.04-.16-.17-.25-.26ZM196.47,381.91c-.56.81-.56.82.02,1.6h.78c.56-.81.56-.82-.02-1.6h-.78ZM200.07,383.91c-.86-.56-.89-.59-1.63.06-.34.29-.67.35-1.06.34-.52.38-1.02.78-1.31,1.38q0,1.96.39,2.61c.29-.27.57-.54.84-.79.91-.13,1.86.34,2.73-.35-.24-.28-.47-.55-.72-.84-.01-.23-.02-.49-.04-.77.26-.28.53-.56.8-.85,0-.25,0-.52,0-.78ZM198.73,408.14c.18.09.37,0,.52-.27.02-.03-.15-.19-.25-.25-.17-.11-.36,0-.51.27-.02.03.16.17.25.26ZM200.74,388.58c-.09-.09-.17-.25-.27-.26-.25-.04-.51-.04-.77,0-.11,0-.21.14-.28.24-.04.07-.05.19-.02.27.17.41,1.05.43,1.31.02.04-.07.02-.18.03-.27ZM201.3,425.06h-.84c-.46.38-.55.84-.24,1.35.15.25.4.24.69.26.61.04.64.07.73.67.04.28.03.52.21.71.2.21.38.16.59-.19v-1.59c-.24-.25-.51-.54-.78-1.22.38,0,.77.02,1.15,0,.1,0,.19-.15.29-.22.32-.85.13-1.72.13-2.6-.36-.31-.69-.27-.75.1-.04.25,0,.5,0,.72-.29.3-.55.58-.8.84,0,.4,0,.78-.37,1.16ZM201.4,401.76c.09-.09.27-.23.25-.26-.15-.28-.35-.38-.51-.27-.11.06-.27.22-.25.25.15.28.34.37.52.28ZM201.4,434.52c.09-.09.27-.23.25-.26-.15-.28-.35-.38-.51-.27-.1.07-.27.22-.25.25.15.28.34.36.52.27ZM201.26,385.11c-.09.09-.2.17-.26.27-.1.17,0,.37.27.52.03.02.19-.15.25-.25.11-.17,0-.35-.26-.53ZM201,404.02c.09.09.23.27.26.25.28-.15.38-.35.27-.51-.07-.1-.22-.27-.25-.25-.28.16-.36.34-.27.52ZM202.19,387.63c-.09,0-.21-.02-.27.03-.4.27-.38,1.14.02,1.31.08.03.2.03.27-.02.4-.27.38-1.13-.02-1.32ZM202.46,431.05c-.09-.09-.17-.2-.27-.26-.17-.11-.36,0-.51.27-.02.03.15.19.25.25.17.11.35,0,.53-.26ZM203.26,411.08c-.09-.09-.17-.2-.27-.26-.17-.11-.36,0-.51.27-.02.03.15.19.25.25.17.11.35,0,.53-.26ZM204.07,433.05c.13,0,.27.04.38,0,.11-.04.21-.16.27-.27.1-.17-.01-.38-.3-.51-.1-.05-.26.02-.38-.01-.3-.08-.52,0-.66.28-.14.27.19.52.68.53Z"/>
        <path class="cls-8" d="M265.08,439.09c-.55.45-.84.37-.9.07-.1-.5-.13-1.03-.13-1.54-.01-1.71,0-3.41,0-4.97.33-.33.52-.52.75-.76-.23-.27-.46-.54-.73-.86v-5.55c.23-.25.5-.54.77-.84v-.77c-.26-.28-.53-.57-.8-.86,0-3.45,0-6.9-.01-10.35,0-.09-.17-.19-.28-.29-.83.39-1.25,1.24-2.04,1.76-.02.52-.04,1.04-.08,1.66-.18.22-.42.51-.73.88v1.46c-.27.31-.53.6-.8.91-.01.23-.03.49-.05.78-.52.54-1.06,1.11-1.6,1.67-.01.28-.03.54-.04.77-.27.31-.53.59-.8.91v1.52c-.51.51-.98.98-1.45,1.45-.18.84-.26,1.06-.88,1.68v1.55c-.55.58-1.09,1.14-1.64,1.72v1.55c-.28.31-.55.6-.79.86-.02.29-.04.55-.07.81-.59.38-.82.96-.84,1.52-.4.46-.75.86-1.07,1.22h-1.62c-.32.29-.61.55-.88.79-1.09-.08-1.04-.09-1.17-1.16-.04-.29-.51-.54-.75-.85-.07-.08,0-.26,0-.39.37,0,.75.01,1.12,0,.1,0,.21-.12.28-.2.06-.07.14-.2.12-.25-.04-.11-.15-.23-.25-.26-.86-.22-1.1-.08-1.26.72-.3.09-.6.01-.67-.29-.11-.5-.12-1.02-.19-1.68-.16-.18-.4-.48-.68-.81.22-.25.46-.53.71-.81-.52-.55-1.05-1.11-1.56-1.64-.03-.31-.05-.57-.07-.82-.75-.75-1.5-1.5-2.26-2.26.07-.72-.3-1.22-.86-1.65v-1.56c-.55-.58-1.09-1.15-1.61-1.69-.02-.3-.04-.56-.06-.82-.47-.47-.94-.94-1.44-1.44-.07-.61-.24-1.19-.8-1.63-.14-.11-.08-.49-.13-1-.46-.36-1.08-.85-1.57-1.24v-1.01c-.28-.3-.55-.59-.82-.88v-1.55c-.12-.12-.2-.24-.31-.3-.45-.24-1.26.06-1.26.46,0,1.05,0,2.1,0,3.07.28.28.46.46.65.65.05.11.14.22.14.34,0,1.46,0,2.92,0,4.38,0,.12-.08.23-.12.34-.19.19-.38.38-.62.62.22.26.44.54.72.86v19.19c-.46.46-1.02,1.01-1.56,1.58-.07.07,0,.26-.01.57.03.07.04-.15,0-.16-.25-.1-.45,0-.62.2-.16.19-.14.35.16.5.05.03.18-.04.25-.1.09-.07.18-.16.22-.44.14-.18.3-.23.4-.17.37.23.45.62.4,1.02-.04.35-.28.5-.86.57-.13.01-.25.03-.35.04-.31.27-.6.53-.82.72h-10.36c-.45-.42-.83-.79-1.19-1.14v-2.4c.28-.3.55-.59.82-.89v-11.1c.27-.32.5-.59.73-.86-.23-.23-.42-.42-.61-.61-.18-3.48-.19-8.48-.01-12.26q.44-.27,1.08-.28c.38-.38.75-.75,1.13-1.13-.17-.15-.31-.39-.5-.44-.23-.06-.53,0-.74.1-.22.12-.38.37-.58.54-.05.05-.21.02-.27-.02-.1-.07-.24-.19-.24-.29-.02-1.06,0-2.12,0-3.11.28-.33.52-.6.76-.88-.51-.5-.98-.98-1.45-1.45-.2-.78-.07-1.56-.11-2.41.22-.26.47-.55.77-.9v-2.3c.28-.3.54-.59.82-.9v-.78c-.3-.68-1.29-.13-1.58-.81v-1.58c.29-.32.55-.61.79-.88-.03-.29-.05-.55-.08-.8-.19-.19-.38-.38-.6-.6-.22-.58-.21-1.22,0-1.84.1-.3.37-.38,1.03-.05.26.07.16-.15,0-.23-.34-.17-.5,0-.34.33.08.16.29.27.47.36.03.02.25-.2-.13-.47-.36-1.44-.36-2.63-.36-3.82.26-.29.52-.57.76-.83-.27-.31-.53-.6-.76-.86-.02-.45-.02-.84.37-1.09.28.25.56.5.84.75.66-1.03.55-1.36-.51-1.58-.65-.13-.66-.12-.71-1.15.25-.27.51-.56.8-.86v-.77c-.26-.28-.53-.57-.78-.83v-1.56c.27-.31.5-.58.74-.86-.51-.5-.98-.98-1.45-1.45-.2-.77-.07-1.56-.11-2.41.22-.26.47-.55.75-.88-.22-.25-.47-.53-.74-.83v-.77c.45-.72,1.18-.3,1.9-.43.22-.18.51-.42.86-.71.24.21.51.44.81.69.43.05.92.18,1.13-.37-.19-.4-.78-.5-.54-.94.22-.42.73-.32,1.02-.18.36.17.61.5.92.77h8.71c.23.23.42.42.65.65.58.06,1.2.13,1.81.2.63.58.05,1.3.53,2.14.04.04.31.33.56.6.02.29.04.55.05.77.27.31.53.6.8.92v1.47c.31.53.74.36,1.09.39.61.28.33.93.6,1.34.21.31.68.49.64.92-.06.64.43.91.76,1.29.02.25.03.51.05.8.25.27.52.56.8.85v.76c.28.29.55.58.8.85.01.28.03.55.04.76.27.33.71.63.72.93.02.6.34.93.67,1.34.21.27.21.7.3,1.06.91.49.63,1.35.67,2.12.2.59,1.1.84.75,1.78.67.56,1.38,1.16,2.34,1.97,0,0,.4-.01.78,0,.65.03.97-.25.92-.91-.02-.27.1-.49.36-.65.51-.32.42-.89.5-1.3.81-.81,1.57-1.57,2.32-2.32-.25-.28-.5-.56-.74-.84.26-.29.52-.58.75-.84.03-.3.05-.56.08-.81.19-.19.38-.38.57-.57.05-.24.12-.48.16-.73.05-.38.04-.78.13-1.14.08-.3.36-.38.67-.29-.08.28-.01.52.25.63.21.09.45.13.67.16.25.04.52-.07.58-.34.03-.12-.23-.41-.39-.44-.36-.07-.74-.02-1.11-.02v-1.2c.38-.38.75-.75,1.13-1.13.41-.16,1.02.13,1.19-.54q-.95-1.03-.28-1.93h.77c.8-.8.24-1.78.4-2.72.22-.25.47-.54.75-.85.01-.23.03-.49.04-.77.25-.27.52-.56.8-.86v-.75c.3-.72,1.3-.1,1.53-.9-.21-.26-.71-.46-.6-.82.13-.47.67-.27,1.05-.31.29-.26.58-.53.85-.78h2.35c.31.27.58.5.86.74.22-.22.41-.41.68-.68,1.34-.21,2.78.02,4.11-.11.28-.28.46-.47.71-.71h1.63c.19.16.48.41.84.71h3.06c.23.2.44.35.63.53.99.98.99,1.13-.05,2.25.23.27.46.54.73.86v1.54c-.25.75-1.27.13-1.54.87.24.26.51.55.79.85v3.95c.21.22.4.4.59.59.24,2.99.28,11.25.08,17.06-.19.19-.38.37-.56.56-.04.12-.13.23-.13.34,0,2.53,0,5.06,0,7.59-.12.62-1.09.84-.76,1.76.2.22.45.51.74.84v20.7c.28.29.54.59.82.88v6.36c-.27.29-.54.58-.8.85-.01.28-.03.54-.04.74-.69.69-1.35,1.35-2.01,2.01h-.74c-.31-.28-.6-.54-.84-.75h-6.4c-.22.22-.38.46-.6.59-.21.12-.49.2-.72.16-.23-.04-.47-.21-.63-.38-.29-.33-.63-.38-1.04-.42-.21-.02-.38-.29-.57-.44.04-1.05.05-1.01,1.14-1.17.29-.04.54-.49.84-.74.26-.21.38-.39.28-.57-.15-.26-.38-.34-.69-.26-.13.03-.26.02-.36.02-.29.26-.57.5-.84.74-.13-.13-.29-.22-.3-.31-.03-.52-.01-1.05-.01-1.65.21-.22.48-.51.75-.8,0-.39,0-.79.25-1.54.07-.26-.15-.16-.23,0-.17.33,0,.5.33.33.16-.08.27-.29.36-.47.02-.03-.2-.24-.47.13ZM220.63,408.41c-.18-.09-.37,0-.52.27-.02.03.15.19.25.25.17.11.36,0,.51-.27.02-.03-.17-.17-.25-.26ZM221.43,378.85c-.18-.09-.37,0-.52.27-.02.03.15.19.25.25.17.11.36,0,.51-.27.02-.04-.16-.17-.25-.26ZM221.83,418.4c.09.09.23.27.26.25.28-.15.38-.35.27-.51-.07-.1-.22-.27-.25-.25-.28.16-.36.34-.27.52ZM224.49,395.5c.57-.54.57-1.07,0-1.6-.58.54-.58,1.07,0,1.6ZM224.09,398.29c.09.09.17.21.28.27.18.09.36-.03.52-.31v-1.56c-.09-.09-.17-.22-.28-.27-.18-.09-.37.03-.52.31v1.56ZM244.07,405.49v1.59c.33.67,1.31.12,1.6.86-.01.26-.03.52-.04.78q-.71.76-.38,1.14h.79c.27-.25.56-.52.84-.78.38-.04.81.15,1.08-.32.03-.1.08-.22.09-.34.01-.26,0-.53,0-.8,0-.72-.2-.91-.88-.95-.5-.03-1.07.21-1.47-.36.24-.27.49-.55.75-.84v-1.55c.32-.71,1.3-.16,1.6-.88q-.02-.62-.31-1.07c-.12-.03-.24-.08-.36-.08-.26-.01-.53,0-.8,0-.71,0-.91.2-.92.9,0,.39,0,.78,0,1.09-.45.45-.82.83-1.6,1.2v-2.01c-.37-.35-.75-.72-1.14-1.1-.68.05-1.21-.29-1.64-.88h-1.54c-.26,0-.54.05-.79-.01-.29-.08-.46-.33-.36-.49.21-.31.65-.49.67-.91.02-.41.08-.75.48-1h.63c.55-.25.49-.66.5-1.05-.35-.55-.79-1.01-1.35-1.34q-3.49,0-4.23.38v.81c.29.69,1.26.14,1.58.82v2.38q-.84.58-1.58-.04v-.78q.75-.8.38-1.18c-.48,0-1.01.05-1.53-.02-.29-.04-.4-.29-.36-.5.19-.19.38-.38.57-.57-.21-.61-.72-.95-1.19-1.32-.39,0-.79.04-1.05-.38.25-.27.52-.53.76-.83.06-.08,0-.25,0-.39.29.08.52,0,.65-.25.28-.59.16-1.2.07-1.8-.01-.1-.23-.27-.25-.25-.17.12-.44.27-.46.42-.05.63-.02,1.26-.02,1.89-.3.09-.52,0-.68-.28-.23-.41.04-1.04-.55-1.28-.29.26-.57.52-.83.75-.43,0-.84.06-1.12-.39v-1.51c-.27-.29-.53-.58-.8-.88.25-.27.51-.55.77-.83,0-.66,0-1.32.48-2.69-.17.09-.39.2-.47.36-.17.33,0,.5.34.33.16-.08.27-.29.36-.47.02-.03-.2-.25-.71.48h-1.21c-.36.37-.73.75-1.11,1.14-.03.23-.05.48-.11.98-.46.37-1.08.86-1.57,1.25v1.02c.31.67,1.28.12,1.56.82-.26.29-.52.58-.77.85.07,1.02.08,1.02.72,1.14.9.17.93.19.78,1.3l-1.4,1.4c-.17,1.23-.06,1.34,1.07,1.25.72-.68,1.38-1.31,2.03-1.93v-.82q.87-.58,1.59.08c-.01.26-.03.51-.04.75-.27.31-.53.59-.72.81v1.56c.3.36.55.65.74.88.17.96-.41,1.94.41,2.71h.8c.68-.3.13-1.27.83-1.57.57.48.96,1.16,1.65,1.46.31-.25.6-.49.87-.71.58.03,1.09.05,1.51.07.28.28.46.46.65.65.89.14,1.78.24,2.66-.07.19-.19.38-.37.56-.56.67.18.38.8.55,1.17.39.4.76.78,1.12,1.15.42,0,.82,0,1.22.4ZM227.16,419.74c-.09-.09-.17-.25-.27-.26-.25-.04-.51-.04-.77,0-.1.01-.21.14-.28.25-.04.07-.05.19-.02.27.17.41,1.05.43,1.31.02.05-.07.02-.18.03-.27ZM228.89,403.92c0,.44-.05.97.02,1.49.04.3.3.42.5.34.11-.05.27-.18.27-.27.02-1.06.02-2.13,0-3.19,0-.09-.18-.19-.35-.36-.55,0-1.18-.2-1.77.1-.59.59-1.16,1.15-1.71,1.72-.05.05-.04.21,0,.27.07.11.18.24.29.25.26.04.52.01.74.01.33-.29.62-.56.88-.8.43,0,.84-.05,1.14.43ZM228.09,400.69c-.54-.57-1.07-.57-1.6,0,.53.58,1.06.58,1.6,0ZM227.82,406.02c-.18-.09-.37,0-.52.27-.02.03.15.19.25.25.17.11.36,0,.51-.27.02-.04-.16-.17-.25-.26ZM227.96,383.24c.09-.18,0-.37-.27-.52-.03-.02-.19.15-.25.25-.11.17,0,.36.27.51.03.02.17-.16.26-.25ZM232.09,391.1c0-.13-.02-.26,0-.38.07-.29,0-.51-.25-.67-.18-.12-.34-.02-.55.24-.25.29-.55.53-.82.79.56.59,1.09.59,1.62.02ZM232.09,407.08c-.53-.57-1.06-.57-1.6,0,.06.42-.25,1,.51,1.09.37-.37.73-.73,1.09-1.09ZM231.96,386.18c-.09-.09-.17-.25-.27-.26-.25-.04-.51-.04-.77,0-.1.01-.21.14-.28.25-.04.07-.05.19-.02.26.17.4,1.05.42,1.31.02.05-.06.02-.17.03-.27ZM232.75,384.58c-.09-.09-.23-.27-.26-.25-.28.15-.38.35-.27.51.07.1.22.27.25.25.28-.15.36-.34.27-.52ZM234.48,388.7c0-.13-.02-.27,0-.39.07-.29,0-.51-.26-.66-.18-.11-.34,0-.55.25-.25.28-.55.51-.87.79.63.53,1.16.6,1.68,0ZM234.22,377.25c-.18-.09-.37,0-.52.27-.02.03.15.19.25.25.17.11.36,0,.51-.27.02-.03-.17-.17-.25-.26ZM235.15,392.03c.09-.18,0-.37-.27-.52-.03-.02-.19.15-.25.25-.11.17,0,.36.27.51.03.02.17-.16.26-.25ZM235.28,394.33c0,.13.03.26,0,.38-.08.29,0,.52.28.65.17.08.34-.03.55-.28.24-.29.5-.54.76-.81-.82-.54-.83-.54-1.58.05ZM238.35,404.82c.09-.18,0-.37-.27-.52-.03-.02-.19.15-.25.25-.11.17,0,.36.27.51.03.02.17-.16.26-.25ZM240.61,405.22c-.18-.09-.37,0-.52.27-.02.03.15.19.25.25.17.11.36,0,.51-.27.02-.03-.16-.17-.25-.26ZM244.07,411.88c-.54-.57-1.07-.57-1.6,0,.54.57,1.07.57,1.6,0ZM244.6,418.54c.09-.09.25-.17.26-.27.04-.25.04-.51,0-.77-.01-.1-.14-.21-.25-.28-.07-.04-.19-.05-.26-.02-.4.17-.42,1.05-.02,1.31.06.05.17.02.27.03ZM244.07,414.27c.81.56.82.56,1.6-.02v-.78c-.81-.56-.82-.56-1.6.02v.78ZM245.67,421.05c0-.13.04-.27,0-.38-.04-.11-.16-.21-.27-.27-.17-.1-.38.01-.51.3-.05.1.02.26-.01.38-.08.3,0,.52.28.66.27.14.52-.19.53-.68ZM246.87,420.27c.13,0,.26-.02.38,0,.29.07.51,0,.67-.25.12-.18.02-.33-.24-.55-.29-.25-.53-.54-.79-.82-.6.56-.59,1.09-.02,1.62ZM248.06,415.07q-.82-.52-1.6.02v.78c.81.56.82.56,1.6-.02v-.78ZM250.99,412.95c.09-.09.25-.17.26-.27.04-.25.04-.51,0-.77-.01-.1-.14-.21-.25-.28-.07-.05-.19-.05-.26-.02-.4.17-.42,1.05-.02,1.31.07.04.18.02.27.03ZM250.46,419.07v.78q.78.58,1.6.02v-.78c-.78-.58-.79-.58-1.6-.02ZM251.93,405.61c0-.09.02-.21-.03-.27-.27-.4-1.14-.38-1.31.02-.03.08-.03.2.02.27.27.39,1.14.38,1.32-.02ZM251.93,408.81c0-.09.02-.2-.02-.27-.26-.41-1.14-.39-1.31.02-.03.08-.02.2.02.27.26.41,1.13.39,1.32-.02ZM251.63,404.25c.09-.07.18-.14.27-.21.09-.08.2-.17.27-.27.19-.27.68-.41.54-.8-.17-.46-.66-.23-1.01-.28-.6.76-.59.76-.07,1.57ZM251.93,416c.09-.18,0-.37-.27-.52-.03-.02-.19.15-.25.25-.11.16,0,.36.27.51.03.02.17-.16.26-.25ZM254.19,396.96c.09-.09.27-.23.25-.26-.15-.28-.35-.38-.51-.27-.1.07-.27.22-.25.25.15.28.34.36.52.27ZM254.9,393.93c.34-.36.74-.69,1.01-1.11.3-.46.21-.94-.29-1.35-.34.36-.74.69-1.01,1.11-.3.46-.21.94.29,1.35ZM259.27,402.69c-.13,0-.28-.04-.38,0-.29.14-.39.34-.3.51.06.11.16.22.27.27.11.05.25,0,.38,0,.5,0,.82-.25.68-.53-.14-.27-.36-.36-.66-.27ZM264.84,398.69h1.17l.83.79c.09-.09.25-.17.27-.28.18-.93.2-1.08-.01-1.84-.08-.29-.36-.36-.66-.27,0-.25,0-.5,0-.76,0-.45-.25-.84-.54-.84-.88,0-1.77,0-2.58-.02-.29-.45.22-1.06-.57-1.6-.49.36-1.34-.47-1.92.46.03.37-.12.8.37,1.09.25-.22.53-.45.8-.68.46.15.58.87,1.23.74.09.3.01.56-.28.67-.34.13-.77.1-1.05.3-.53.36-.21.96-.25,1.46-.05.52,0,1.05-.02,1.93.04-.11.04-.32,0-.34-.25-.1-.45,0-.62.2-.16.19-.14.35.16.5.05.03.18-.04.25-.1.09-.07.18-.16.22-.62h1.18c.28.27.56.53.84.8.39,0,.78,0,1.89.48-.09-.17-.2-.39-.36-.47-.34-.16-.5,0-.34.34.08.16.29.27.47.36.03.02.25-.2-.48-.71v-1.6ZM263.24,378.27c.04-.11.04-.32,0-.34-.25-.1-.45,0-.62.2-.16.19-.14.35.16.5.05.03.18-.04.25-.1.09-.07.18-.16.71-1.33-.17.09-.39.2-.47.36-.17.33,0,.5.34.33.16-.08.27-.29.36-.47.02-.03-.2-.25-.72.84ZM263.11,392.03c.09-.18,0-.37-.27-.52-.03-.02-.19.15-.25.25-.11.17,0,.36.27.51.03.02.17-.16.26-.25ZM265.12,405.15c-.1.13-.2.25-.29.38.55.24,1.09.48,1.62.71v.83c.53.59,1.06.58,1.6.01v-.78c-.47-.41-.78-1.01-1.22-1.16h-1.7ZM264.84,388.7c.53.57,1.06.57,1.62-.02-.13-.37.24-.98-.53-1.07-.37.37-.73.73-1.09,1.09ZM268.44,381.91h-.76c-.35.23-.37.58-.46.95-.1.42-.43.77-.65,1.12.37.39.72.76,1.13,1.2.44-.63.37-1.45,1-1.98.38-.33.21-.93-.25-1.29ZM270.44,397.09c-.64.11-.78-.57-1.23-.77-.61.49-.37,1.19-.33,1.79.02.31.41.61.81,1.15.21.38-.5,1.29.38,1.79.64-.64,1.29-1.29,1.94-1.94-.03-.43.26-1-.48-1.12-.1.1-.21.18-.28.28-.19.27-.38.37-.55.27-.26-.15-.32-.38-.27-.67.04-.25,0-.52,0-.78.37,0,.75.01,1.12,0,.1,0,.21-.12.28-.2.06-.07.14-.2.12-.25-.04-.11-.15-.23-.25-.26-.85-.22-1.1-.08-1.26.72ZM270,410.71c.5-.41.6-.89.29-1.35-.27-.42-.67-.75-1.01-1.11-.51.41-.6.89-.29,1.35.27.41.67.74,1.01,1.11ZM268.84,390.3c.81.56.82.56,1.6-.02v-.78q-.82-.52-1.6.02v.78ZM270.44,407.08c.81.56.82.56,1.6-.02v-.78c-.81-.56-.82-.56-1.6.02v.78ZM271.63,421.87c.57-.53.58-1.06,0-1.59-.09.08-.18.17-.27.26-.09.09-.2.17-.27.27-.17.27-.7.38-.5.8.21.43.67.21,1.03.26ZM272.42,385.97c-.46.44-.83.78-1.19,1.12.26.37.61.41,1,.43.4.02.59.42.88.65.16.12.41.02.51-.27.08-.22.02-.5.02-.81-.34-.31-.72-.66-1.21-1.11ZM273.23,408.28c-.57.54-.57,1.07,0,1.6.58-.53.58-1.07,0-1.6Z"/>
        <path class="cls-8" d="M298.81,385.35c-.36-.64-.36-1.04-.36-1.42.3-.59.98-.26,1.36-.59.4-.35.76-.75,1.13-1.13.28-.28.56-.56.85-.85.85-.85,1.69-1.69,2.56-2.56.61-.1,1.3-.11,1.53-.82.35-.03.61-.05.9-.08.26-.24.55-.5.86-.79h3.14c.72-.32.17-1.31.85-1.59h.8c.28.17.35.4.4.66.2.93.21.93.9.92.39,0,.78,0,1.09,0-.29.3.66.03.39-.38-.41-.64-1.28-.16-1.59-.84v-.78c.4-.45.86-.55,1.36-.21.21.15.38.37.57.56.26.02.51.04.8.06.27-.25.56-.51.87-.8h3.16c.28.25.56.51.83.76.29-.25.56-.48.82-.71.32.18.43.41.37.7-.07.3,0,.54.25.7.19.12.32-.03.58-.25.71-.62,1.08-.56,1.64.06.09.1.19.19.31.31h2.35c.3.28.59.54.89.82h1.56c.29.28.58.55.86.8.28.01.54.03.8.04.47.47.94.94,1.39,1.39.42.35,1.13-.08,1.41.93,0,.04-.2.57.27.71.36.11.54-.45.85-.59.1-.04.35.29.55.42.62.38.67,1.04.8,1.62.6.53,1.31.11,1.81.28.74.71,1.41,1.35,2.07,1.98v.82c.48.48.95.95,1.42,1.42.09.36.19.72.28,1.08l1.41,1.41c.02.25.04.51.07.81.24.26.5.55.79.87v2.33c.25.4.6.44,1.01.48.21.02.4.27.61.42v1.54c.29.32.55.61.82.91v2.33c.22.22.41.41.65.65.28.98.04,2.04.11,3.08.06.92-.11,1.84.12,2.74.19.19.38.38.57.57.04.12.11.23.11.35,0,3.59,0,7.19,0,10.85-.21.25-.46.55-.76.9v4.68c-.28.31-.54.59-.82.91v1.54c-.28.3-.55.59-.82.89v1.56c-.39.39-.76.76-1.14,1.14-.12.01-.25.04-.38.05-.8.08-1.14.69-.74,1.31.14.22.37.38.62.63-.21.26-.44.53-.68.83-.02.21-.04.47-.08.92-.59.51-1.29,1.11-2.19,1.89-1.01.24-1.07.12-1,1.33,0,.13,0,.27,0,.4-.01.12-.05.25-.07.37-.93.93-1.86,1.87-2.7,2.7-.42.05-.67.09-.92.12-.76.76-1.51,1.51-2.26,2.26-.26.01-.52.02-.8.04-.56.54-1.13,1.08-1.71,1.63h-1.6c-.37.64-.99.8-1.64.88-.48.9-1.34.66-2.19.7-.25.21-.54.45-.91.76h-3.07c-.31.28-.6.54-.92.82h-7.16c-.26-.25-.55-.51-.84-.79h-3.18c-.34-.4-.35-.4.07-.85.09-.1.19-.19.28-.29-.17-.15-.31-.39-.5-.43-.23-.05-.53,0-.74.1-.22.12-.36.41-.58.53-.21.11-.49.12-.74.13-.11,0-.28-.06-.33-.15-.4-.81-1.49-.41-1.94-1.12-.07-.11-.18-.19-.29-.3h-.76c-.3-.28-.59-.55-.89-.82h-.75c-.31-.28-.6-.54-.86-.79-.29-.03-.55-.05-.81-.07-1.69-1.69-3.39-3.39-5.08-5.08-.02-.26-.03-.52-.05-.81-.53-.55-1.07-1.12-1.6-1.68-.02-.29-.04-.55-.05-.81-.57-.4-.86-.94-.84-1.64l-1.42-1.42c.04-.71-.29-1.24-.87-1.66v-1.56c-.28-.3-.55-.59-.82-.88v-1.56c-.28-.3-.55-.59-.82-.89v-2.35c-.21-.21-.4-.4-.59-.59-.06-.11-.17-.21-.17-.33-.01-1.05,0-2.1,0-2.97.36-.63.8-.44,1.23-.49.33-.35.69-.74,1.07-1.14-.12-.13-.24-.38-.42-.42-.23-.06-.54-.03-.75.07-.23.11-.36.4-.58.54-.5.32-.97.22-1.34-.24v-2.36c.31-.69,1.28-.13,1.55-.87-.48-.48-.96-.96-1.46-1.46-.23-1.01-.04-2.06-.09-3.11-.02-.32.26-.54.84-.57.29-.02.51-.06.7-.38-.22-.26-.46-.53-.73-.84v-1.56c.25-.26.51-.55.78-.83v-.77c-.28-.3-.55-.59-.76-.83v-1.61c.41-.41.78-.78,1.17-1.17.25,0,.52.03.78-.01.11-.02.22-.15.28-.26.1-.19-.02-.42-.32-.51-.36-.1-.82.15-1.06-.42.2-.22.43-.5.7-.81v-1.5c.31-.76,1.29-.21,1.59-.88-.27-.29-.53-.58-.78-.85.07-1.04.07-1.08.73-1.13.29-.02.52-.03.71-.24.16-.18.19-.17-.51-.85-.03-.55.75-.65.67-1.22-.09-.65.46-.88.79-1.3v-.9c.33-.3.73-.65,1.11-1.01.38-.37.77-.73,1.13-1.13.34-.38,0-1.06.59-1.36.37,0,.76,0,1.52.24.26.07.16-.15,0-.23-.33-.17-.5,0-.33.33.08.16.29.27.47.36.03.02.24-.2-.13-.47ZM289.8,409.35c-.09.18,0,.37.27.52.03.02.19-.15.25-.25.1-.17,0-.36-.27-.51-.03-.02-.17.16-.26.25ZM295.28,413.07c.13,0,.27.04.38,0,.11-.05.21-.16.27-.27.09-.17-.01-.37-.3-.51-.1-.05-.26.02-.38-.01-.3-.08-.52,0-.66.28-.13.28.19.52.68.53ZM295.26,423.1c0,.13.03.26,0,.38-.08.29,0,.52.28.65.17.08.34-.03.55-.28.24-.29.5-.54.76-.81-.82-.54-.83-.54-1.58.05ZM296.86,418.93c-.2-.16-.52-.38-.78-.66-.22-.24-.38-.36-.55-.25-.26.15-.3.37-.27.67.04.38,0,.77,0,1.16.77.59.78.59,1.59.03v-.95ZM298.25,412.27c-.64.53-1.05.87-1.38,1.14-.02.39.03.68-.07.9-.15.31-.42.57-.64.85.26.43.69.27,1.07.31.29-.27.58-.54.88-.81h.76c.39-.39.76-.76,1.14-1.14.01-.26.03-.52.04-.78-.42-.79-1.16-.37-1.81-.47ZM297.66,406.7c0-.13.04-.28,0-.38-.14-.29-.34-.39-.51-.3-.11.06-.22.16-.27.27-.04.11,0,.25,0,.38,0,.5.25.82.53.68.27-.14.36-.36.27-.66ZM297.53,424.79c.09-.18,0-.37-.27-.52-.03-.02-.19.15-.25.25-.11.16,0,.36.27.51.03.02.17-.16.26-.25ZM299.79,418.8c-.18-.09-.37,0-.52.27-.02.03.15.19.25.25.17.11.36,0,.51-.27.02-.03-.17-.17-.25-.26ZM299.29,424.64c.3.68,1.33.15,1.52.83.09.33.04.53.43.38.11-.05.22-.16.28-.27.19-.35.21-.73-.02-1.06-.21-.3-.47-.58-.63-.76-.11-.75.28-1.47-.48-1.89-.37.03-.8-.11-1.08.37.21.25.45.52.69.81.01.22.03.48.05.76-.25.27-.51.55.8,2.05-.37,0-.75-.01-1.12,0-.1,0-.21.12-.28.2-.06.07-.14.2-.12.25.04.11.15.23.25.26.86.22,1.1.08-.3-1.94ZM301.25,406.68h-.78q-.55.78-.02,1.6h.78c.58-.78.58-.79.02-1.6ZM300.87,415.47c.13,0,.27.04.38,0,.11-.04.21-.16.27-.27.1-.17-.01-.38-.3-.51-.1-.05-.26.02-.38-.01-.3-.08-.52,0-.66.28-.14.27.19.52.68.53ZM302.03,397.89c.17,0,.3-.02.42,0,.29.07.51,0,.66-.26.1-.18,0-.34-.25-.55-.28-.25-.52-.55-.78-.83-.41.54-1.03.82-1.26,1.57.1.25.24.57.4.96.32-.35.58-.63.81-.89ZM302.47,385.11c.13,0,.27.04.38,0,.11-.04.21-.16.27-.27.09-.17-.01-.38-.3-.51-.1-.05-.26.02-.38-.01-.3-.08-.52,0-.66.28-.14.28.19.52.68.53ZM304.05,388.7c0-.13-.02-.27,0-.39.07-.29,0-.51-.26-.66-.18-.11-.34,0-.55.25-.25.28-.55.51-.87.79.63.53,1.16.6,1.68,0ZM302.46,399.9c0,.13.02.26,0,.38-.07.29,0,.51.26.66.18.11.34,0,.55-.25.25-.28.55-.51.84-.76-.59-.62-1.12-.62-1.64-.04ZM303.67,435.44c.39,0,.78-.03,1.16,0,.3.03.52,0,.67-.26.11-.18,0-.34-.25-.55-.29-.25-.52-.57-.71-.79h-.9q-.55.81.02,1.59ZM304.85,381.1c0-.13.04-.27,0-.38-.04-.11-.16-.21-.27-.27-.17-.1-.38.01-.51.3-.05.1.02.26-.01.38-.08.3,0,.52.28.66.28.14.52-.19.53-.68ZM306.46,389.1c.13,0,.27.04.38,0,.11-.04.21-.16.27-.27.1-.17-.01-.38-.3-.51-.1-.05-.26.02-.38-.01-.3-.08-.52,0-.66.28-.14.28.19.52.68.53ZM327.13,428.73c-.09-.17-.2-.39-.36-.47-.34-.17-.5,0-.34.33.08.16.29.27.47.36.03.02.25-.2-.48-.71,0-.13-.05-.31,0-.39.25-.3.53-.58.79-.84.01-.29.03-.54.04-.8.75-.75,1.5-1.5,2.27-2.27.19-1.02,0-2.08.1-3.11.04-.41.38-.64.85-.56.29.05.5-.06.66-.33-.04-.09-.08-.21-.14-.28-.18-.2-.37-.38-.57-.58v-.79c.25-.27.52-.56.79-.85v-5.55c.26-.29.52-.57.76-.83-.27-.31-.53-.6-.76-.87.1-1.04.11-1.05.76-1.12.13-.01.28.04.39,0,.3-.13.42-.33.31-.52-.06-.11-.17-.24-.28-.26-.37-.07-.81.15-1.08-.32-.31-1.39.13-2.84-.21-4.19-.24-.24-.42-.42-.61-.61-.27-.87.19-1.82-.27-2.67-.19-.19-.38-.38-.58-.58v-1.56c-.28-.29-.55-.58-.82-.87,0-.39,0-.79.48-1.89-.17.09-.39.2-.47.36-.17.34,0,.5.33.34.16-.08.27-.29.36-.47.02-.03-.2-.25-.71.48-.13,0-.32.06-.39,0-1.05-1.02-2.08-2.06-3.11-3.1-.7.02-1.24-.27-1.64-.84-.26-.02-.52-.03-.81-.05-.27-.25-.56-.52-.85-.8h-5.56c-.29.27-.58.54-.87.82h-1.56c-1.71,1.71-3.4,3.4-5.1,5.1.06.72-.3,1.23-.86,1.65v2.36c-.28.29-.55.59-.82.88v1.56c-.28.3-.55.59-.77.84v10.35c.29.33.55.62.82.93v3.06c.31.37.55.67.75.91.03.85-.2,1.71.7,2.19.08.65.23,1.26.88,1.63v1.55c.2.23.35.44.54.62.46.47.94.94,1.41,1.41.38.38.78.73,1.12,1.14.32.38,0,1.05.61,1.35h.74c.3.28.59.54.86.79.29.02.55.04.77.05.31.27.6.52.81.7h5.61c.24-.24.39-.51.62-.59.59-.21,1.21-.29,1.65-.85.5-.62,1.1-1.15,1.68-1.69.06-.06.25,0,1.09.47ZM307.92,437.32c-.09-.09-.17-.25-.27-.26-.25-.04-.51-.04-.77,0-.1.01-.21.14-.28.25-.04.07-.05.19-.02.27.17.4,1.05.42,1.31.02.04-.07.02-.18.03-.27ZM307.78,429.98c-.18-.09-.37,0-.52.27-.02.03.15.19.25.25.17.11.36,0,.51-.27.02-.03-.16-.17-.25-.26ZM308.58,425.73c.09-.09.27-.23.25-.26-.15-.28-.35-.38-.51-.27-.1.07-.27.22-.25.25.15.28.34.36.52.27ZM309.99,377.86c-.25.29-.47.59-.75.84-.24.22-.36.38-.25.55.26.42.69.21,1.04.26.59-.52.59-1.05-.04-1.65ZM311.24,435.85c.54.57,1.07.57,1.6,0-.53-.58-1.06-.58-1.6,0ZM313.51,440.77c0-.09.02-.2-.02-.27-.26-.41-1.14-.39-1.31.02-.03.08-.03.2.02.27.26.4,1.13.38,1.32-.02ZM313.25,381.91c-.35.25-.43.59-.41,1,.03.49-.13,1.04.45,1.42.16-.18.32-.37.49-.56.08-.09.18-.18.27-.28.54-.57.53-.79-.04-1.59-.26,0-.51,0-.77,0ZM315.77,445.17c-.18-.09-.37,0-.52.27-.02.03.15.19.25.25.17.11.36,0,.51-.27.02-.03-.16-.17-.25-.26ZM317.24,439.44c.57-.54.57-1.07,0-1.6-.58.53-.58,1.06,0,1.6ZM319.25,385.11c-.13,0-.28-.04-.38,0-.29.14-.39.34-.3.51.06.11.16.22.27.27.11.05.25,0,.38,0,.5,0,.82-.25.68-.53-.14-.27-.36-.36-.66-.27ZM321.5,433.58c.09-.18,0-.37-.27-.52-.03-.02-.19.15-.25.25-.11.16,0,.36.27.51.03.02.17-.16.26-.25ZM325.22,383.52c-.57.83-.57.84.06,1.6h.74c.31.28.59.54.86.79.17,0,.3-.01.43,0,.58.07.67.19.72.7.04.46-.14.78-.52.89-.12.04-.26,0-.39,0-.27-.01-.55.09-.61.37-.02.1.31.4.49.42.77.05,1.55.02,2.12.02.48-.35.76-.68,1.1-.77.38-.09.75-.08,1.01-.44v-1.57c-.92-.65-.92-.65-1.9.29-.58-.13-.83-1.01-1.62-.69-.28-.25-.56-.51-.88-.8h-.74c-.29-.28-.58-.55-.86-.81ZM326.96,437.18c-.18-.09-.37,0-.52.27-.02.03.15.19.25.25.17.11.36,0,.51-.27.02-.03-.17-.17-.25-.26ZM328.16,382.98c-.09.18,0,.37.27.52.03.02.19-.15.25-.25.11-.17,0-.36-.27-.51-.03-.02-.17.17-.26.25ZM332.55,388.44c-.18-.09-.37,0-.52.27-.02.03.15.19.25.25.17.11.36,0,.51-.27.02-.03-.16-.17-.25-.26ZM332.82,396.69c-.09-.09-.17-.2-.27-.26-.17-.11-.36,0-.51.27-.02.03.15.19.25.25.17.11.35,0,.53-.26ZM334.3,433.35c-.16-.31-.65-.39-.53-.85.46-.46.93-.93,1.39-1.39-.27-.59-.75-.5-1.23-.37-.37.37-.74.74-1.11,1.11v.78c-.26.28-.52.55-.78.83.38.37.75.75,1.12,1.12.47-.33.95-.66,1.14-1.23ZM334.14,388.43c-.09,0-.2-.02-.27.02-.41.26-.39,1.14.02,1.31.08.03.2.02.27-.02.41-.26.39-1.13-.02-1.32ZM334.42,395.1c.84.55,1.02.54,1.6,0,.28-.26.57-.51.8-.72,0-.36.03-.63-.01-.88-.01-.1-.16-.21-.26-.27-.17-.09-.36.02-.54.29-.25.35-.61.36-1,.4-.21.02-.39.26-.58.41,0,.25,0,.51,0,.77ZM334.68,429.72c.18.09.37,0,.52-.27.02-.03-.15-.19-.25-.25-.17-.11-.36,0-.51.27-.02.03.16.17.25.26ZM334.44,421.43c.07.09.14.18.21.27.08.09.17.2.27.27.27.19.41.68.8.54.46-.17.23-.66.28-1.01-.76-.6-.76-.59-1.57-.06ZM337.21,430.65c-.38.49-.99.78-1.1,1.12-.17.71,0,1.03.31,1.28.38-.49.99-.78,1.1-1.12.17-.71,0-1.02-.31-1.28ZM337.56,403.94c.29.25.59.47.84.75.22.24.38.36.55.25.42-.26.21-.69.26-1.04-.52-.59-1.05-.59-1.65.04ZM339.21,418.67c-.37,0-.75-.01-1.12,0-.1,0-.21.12-.28.2-.06.07-.14.2-.12.25.04.11.15.23.25.26.86.22,1.1.08,1.75-1.43-.17.09-.39.2-.47.36-.17.34,0,.5.34.34.16-.08.27-.29.36-.47.01-.03-.2-.25-.71.48ZM337.74,416.54c-.09.18,0,.37.27.52.03.02.19-.15.25-.25.1-.17,0-.36-.27-.51-.03-.02-.17.16-.26.25ZM339.61,402.69c.13.21.38.42.38.63.04,1.2,0,2.4.04,3.59,0,.2.29.38.44.57.38-.02.8.09,1.13-.46,0-.66-.01-1.45,0-2.24,0-.38-.13-.79.21-1.11.31-.3.75-.11,1.08-.29.11-.06.24-.17.27-.28.02-.07-.12-.22-.22-.27-.42-.26-1.06-.03-1.36-.57-.31-.55-.98-.2-1.36-.56-.19-.18-.38-.38-.57-.56-.26-.01-.52-.03-.78-.05-.65.73-.65.74-.07,1.6.27,0,.53,0,.8,0ZM338.41,414.27c.54.57,1.07.57,1.6,0-.53-.57-1.06-.57-1.6,0ZM339.58,410.65c.09-.07.18-.14.27-.21.09-.08.2-.17.27-.27.19-.27.68-.41.54-.8-.17-.46-.66-.23-1.01-.28-.6.76-.59.76-.06,1.57ZM339.21,398.29c.25.35.59.43,1,.41.49-.03,1.04.13,1.39-.39-.23-.35-.57-.41-.96-.42-.42-.01-.59-.43-.89-.65-.16-.12-.41,0-.51.29-.08.23-.02.51-.02.76ZM340.02,421.86c-.13,0-.28-.04-.38,0-.29.14-.39.34-.3.51.06.11.16.22.27.27.11.04.25,0,.38,0,.5,0,.82-.25.68-.53-.13-.27-.36-.36-.66-.27ZM341.48,419.99c0-.09.02-.21-.03-.27-.27-.4-1.14-.38-1.31.02-.03.08-.02.2.02.27.26.41,1.14.39,1.32-.02ZM342.8,408.28c-.57.54-.57,1.07,0,1.6.58-.53.58-1.07,0-1.6Z"/>
        <path class="cls-8" d="M379.72,375.93c1.44-.39,2.23-.39,2.98-.39.29.18.35.41.4.67.22,1.09.52,1.19,1.57.52v-.76q.38-.43,1.89-.46c.24.2.54.44.85.7.55-.13.81-1.01,1.64-.67.25.23.53.5.82.76.28-.26.56-.53.82-.76h1.57c.31.27.59.5.86.73.23-.23.42-.42.61-.61.89-.16,1.83-.55,2.41.67.35-.29.62-.52.95-.79h7.21c.58.58,1.24,1.23,1.89,1.89.29.3.02,1.18-.43,1.26-.38.07-.79-.02-1.05.4.25.27.5.55.75.82-.26.29-.53.57-.8.87v2.35c-.21.21-.4.4-.59.59-.06.11-.17.21-.17.33-.02.67,0,1.33,0,2-.13.21-.21.5-.39.63-.51.35-.25.99-.57,1.36-.32.38-.63.8-1.11.99-.29-.21-.45-.71-.84-.58-.48.17-.23.69-.29,1.06-.21.13-.42.37-.63.38-2.79.03-5.59.02-8.38,0-.11,0-.22-.1-.33-.15-.19-.19-.38-.38-.64-.64-.85,0-1.77.02-2.69,0-.66-.02-.95.28-.91.93.01.27-.12.48-.37.65-.52.35-.39.9-.44,1.42-.06.63.33.95.73,1.32.19,1.03.03,2.09.09,3.19-.23.26-.48.55-.76.88.23.26.48.54.75.83v2.35c.27.29.54.58.79.84v.8c-.49.49-.96.96-1.43,1.43-.48.76.07,1.19.54,1.64.04.12.1.24.1.35,0,1.73,0,3.46,0,5.25-.21.25-.46.55-.77.9v1.57c.21.23.47.52.75.83v7.15c-.25.28-.51.56-.76.84.26.29.53.58.75.82v21.56c-.4.4-.78.78-1.16,1.16h-4.78c-.28-.25-.56-.52-.84-.78h-.77c-.31.28-.6.54-.84.76h-6.4c-.41-.41-.78-.78-1.16-1.16v-.79c.26-.29.53-.57.81-.87v-2.35c.21-.35.39-.4.58-.2.18.19.38.38.56.56.39-.2.48-.54.43-.96-.33-.73-1.02-1.16-1.56-1.78v-2.4c.22-.24.48-.53.76-.83v-1.57c-.26-.28-.53-.57-.78-.85v-15.95c.49-.59,1.18-.97,1.48-1.69-.26-.46-.71-.25-1.13-.31-.06-.07-.21-.16-.23-.27-.07-.38-.13-.76-.13-1.14,0-7.31,0-14.63-.01-21.94,0-.65.13-1.31-.1-1.89-.19-.32-.42-.33-.72-.33-5.72.01-11.44.01-17.15,0-.09,0-.21-.16-.27-.27-.04-.07-.01-.21.04-.27.55-.62.78-.75,1.92-1.14.11-.04.19-.18.29-.29v-.79c-.25-.28-.52-.56-.78-.84v-.77c.28-.31.55-.6.82-.91v-1.55c.57-.62,1.28-.22,1.89-.36.3-.07.43-.3.35-.5-.04-.11-.17-.25-.28-.27-.26-.04-.53-.01-.79-.01-.47-.39-.57-.85-.25-1.36.25-.4.72-.18,1.09-.29.24-.15.35-.37.35-.64,0-.93-.06-1.87.02-2.79.04-.4.45-.58.89-.52.12.01.24-.05.36-.08.19-.19.38-.37.61-.61.98-.25,2.04-.03,3.17-.12.24.21.51.5.83.69.34.19.74.21,1.07-.06.21-.17.38-.37.63-.62h1.11c.63,0,.62,0,.89.94.07.23.25.43.38.65h.8c.28-.26.57-.53.84-.78h2.37c.42.27.36.67.42,1.05.06.4.42.58.89.53.49-.05.59-.15.69-.74.11-.62.26-.86.57-.86,1.06,0,2.13,0,3.19,0,.25,0,.5.07.75.11.58.73.58.73,1.25.12.09-.08.2-.15-.35.18-.99.39-1.36.38-1.73.4-.1,0-.21.12-.29.2-.06.07-.14.2-.12.25.04.11.15.23.25.26.86.22,1.1.08,1.89-1.11ZM359.53,378.72c.57-.54.57-1.07,0-1.6-.57.53-.57,1.06,0,1.6ZM373.24,407.61c-.18-.09-.37,0-.52.27-.02.03.15.19.25.25.17.11.36,0,.51-.27.02-.03-.16-.17-.25-.26ZM373.5,423.81c.04-.11.04-.32,0-.34-.25-.1-.45,0-.62.2-.16.19-.14.35.16.5.05.03.18-.05.25-.1.09-.07.18-.16.71-1.33-.17.09-.39.2-.47.36-.17.34,0,.5.34.34.16-.08.27-.29.36-.47.01-.03-.2-.25-.72.84ZM373.38,399.23c.09-.18,0-.37-.27-.52-.03-.02-.19.15-.25.25-.11.16,0,.36.27.51.03.02.17-.16.26-.25ZM375.37,386.04c-.09.09-.27.23-.25.26.15.28.35.38.51.27.1-.07.27-.22.25-.25-.15-.28-.34-.36-.52-.27ZM375.77,376.85c.09-.18,0-.37-.27-.52-.03-.02-.19.15-.25.25-.1.16,0,.36.27.51.03.02.17-.16.26-.25ZM383.89,387.51c0,.37-.01.75,0,1.12,0,.1.12.21.2.28.07.06.2.14.25.12.11-.05.23-.15.26-.25.22-.86.08-1.1-.72-1.26-.09-.3-.01-.6.28-.66.5-.1,1.02-.06,1.51-.16.22-.04.4-.26.6-.4v-.63c-.29-.88-1.3-.24-1.55-.98.24-.27.47-.54.71-.81-.4-.4-.77-.77-1.15-1.15h-.84c-.24.51-.48,1.06-.73,1.6-.69-.34-.23-1.18-.84-1.6-.41-.28-.68.68-.34.35-.02.34-.04.72-.05,1.11,0,.13-.04.28,0,.39.14.39.4.63.86.55.28-.05.52.05.65.32.11.23-.32.48-.82.47h-1.05c-.36-.3-.63-.53-.89-.75-.14.14-.25.22-.32.33-.19.27-.38.38-.56.29-.27-.14-.33-.37-.28-.67.04-.25,0-.52,0-.79h1.13c.34-.21.51-.5.47-.91-.05-.49-.2-.64-.69-.69-.42-.04-.7.12-.91.47v1.14c-.66,0-1.33-.01-1.99.01-.1,0-.21.16-.28.27-.04.07-.02.22.03.27.4.36.71.73.66,1.34-.01.16.32.34.49.51.4,0,.8,0,1.19,0,.27,0,.55.09.62.37.02.1-.31.38-.51.42-.5.09-1.03.05-1.54.15-.3.06-.38.36-.61.74-.16.04-.73-.33-1.26.34,1.34,1.34,2.69,2.69,3.99,3.99-.01.51-.03.9.36,1.15.85-.57.33-1.36.32-2.08-1.03-1.02-2.06-2.05-3.08-3.48h1.82c.89.29.29,1.28,1.01,1.6h1.54q.56-.79.01-1.6c-.26,0-.53.03-.78-.01-.1-.02-.22-.16-.27-.27-.09-.18.03-.48.32-.5.92-.06,1.84-.03,2.76-.03ZM377.1,401.89q-.52.82.02,1.6h.78c.56-.81.56-.82-.02-1.6h-.78ZM378.7,425.86c-.09.09-.2.16-.26.27-.11.17,0,.36.27.51.03.02.19-.15.25-.25.11-.17,0-.35-.26-.53ZM378.97,416c.09-.18,0-.37-.27-.52-.03-.02-.19.15-.25.25-.11.16,0,.36.27.51.03.02.17-.16.26-.25ZM378.97,432.78c.09-.18,0-.37-.27-.52-.03-.02-.19.15-.25.25-.11.16,0,.36.27.51.03.02.17-.16.26-.25ZM378.44,398.43c.09.09.23.27.26.25.28-.15.38-.35.27-.51-.07-.1-.22-.27-.25-.25-.28.15-.36.34-.27.52ZM379.5,411.48c.36-.36.72-.72,1.09-1.09-.18-.59-.71-.88-1.51-1.64.27,1.15-.45,1.94.42,2.72ZM379.77,381.38c-.09-.09-.23-.27-.26-.25-.28.15-.38.35-.27.51.07.1.22.27.25.25.28-.15.36-.34.27-.52ZM379.9,399.89v1.56c.16.28.34.4.52.31.11-.06.19-.18.28-.27v-1.56c-.16-.28-.34-.4-.52-.31-.11.05-.18.17-.28.27ZM380.57,395.23c.09-.18,0-.37-.27-.52-.03-.02-.19.15-.25.25-.11.16,0,.36.27.51.03.02.17-.16.26-.25ZM382.16,402.42c.09-.18,0-.37-.27-.52-.03-.02-.19.15-.25.25-.11.16,0,.36.27.51.03.02.17-.16.26-.25ZM382.83,390.83c-.18-.09-.37,0-.52.27-.02.03.15.19.25.25.17.11.36,0,.51-.27.02-.03-.16-.17-.25-.26ZM388.56,384.04c.09-.18,0-.37-.27-.52-.03-.02-.19.15-.25.25-.1.17,0,.36.27.51.03.02.17-.16.26-.25ZM403.74,377.39c-.09-.09-.23-.27-.26-.25-.28.15-.38.35-.27.51.07.1.22.27.25.25.28-.16.36-.34.27-.52Z"/>
        <path class="cls-8" d="M438.29,421.86c0,.13.06.32,0,.39-.36.39-.74.76-1.12,1.14-.25.02-.51.04-.81.08-.26.24-.55.5-.87.78h-.8c-.63.66-1.26,1.33-1.97,2.06v18.37c-.36.27-.78.58-1.39,1.03-3.45.16-10.81.16-14.35-.02-.08-.1-.25-.19-.25-.29-.02-.8-.01-1.59-.01-2.35.29-.32.55-.61.83-.91v-10.33c.47-.49,1.11-.87.52-1.81-.05-.05-.24-.24-.43-.43-.25-.9-.09-1.82-.12-2.73-.03-1.06,0-2.13,0-3.19,0-.93.02-1.86,0-2.79-.03-.91.14-1.84-.13-2.73-.2-.2-.38-.38-.59-.59.14-.16.27-.44.43-.46.51-.06,1.04-.02,1.44-.02.39-.23.45-.45.46-.73.02-.3-.01-.53-.25-.7-.19-.14-.37-.05-.57.24-.07.11-.18.19-.28.29-.21.05-.49-.07-.5-.35-.04-1.85-.02-3.71-.02-5.48.29-.34.52-.62.75-.88-.23-.23-.42-.42-.61-.61-.26-.49-.12-1.02-.13-1.53-.02-.92,0-1.83,0-2.6.33-.33.51-.51.75-.75v-1.62c-.17-.2-.43-.49-.72-.84v-3.17c.22-.24.49-.53.77-.83v-.77c-.27-.29-.54-.57-.78-.83v-3.16c.27-.31.51-.59.73-.85-.23-.33-.75-.48-.59-.88.17-.46.69-.22,1.06-.29.68-1.02.56-1.37-.5-1.58-.65-.12-.66-.12-.72-1.15.25-.27.51-.56.8-.86v-.77c-.26-.28-.53-.57-.78-.83v-1.57c.29-.33.55-.61.79-.88-.03-.29-.06-.55-.08-.8-.19-.19-.38-.38-.57-.57-.24-.62-.2-1.25-.03-1.87.16-.28.38-.37.69-.28.3.08.55,0,.67-.29.08-.19-.08-.39-.37-.5-.12-.05-.27.01-.4,0-.61-.11-.67-.18-.72-.71-.04-.48.12-.8.55-.87.39-.06.78-.03,1.04-.41.02-1.14.03-1.14,1.13-.5.1.06.24.07.36.08.13.01.26,0,.45,0,.26-.23.55-.49.9-.8h8.29c.66,0,.81.18.87.97.03.38.03.78.13,1.14.08.3.36.38.67.29v1.18c.27.29.54.57.79.84v3.16c-.28.31-.55.59-.79.86.02.29.04.55.06.8.19.19.38.38.56.56.06.11.17.21.17.32.01,1.58,0,3.16,0,4.6-.31.38-.53.65-.74.91.25.25.43.43.65.65.22,1.01.06,2.06.09,3.09.03,1.05,0,2.11,0,3.17v9.8c.59.72,1.32.2,1.89.47.61-.59,1.18-1.13,1.75-1.68h.74c.3-.27.58-.51.85-.75.22.22.4.41.59.59.19.15.37.08.56-.22.45-.69,1.64-.12,1.81-1.15.49-.02.87-.05,1.26-.06.74-.02.8-.06.92-.89.04-.27.09-.5.4-.68h1.51c.3-.27.59-.53.9-.82h1.54c.29-.27.58-.54.86-.81.39,0,.79,0,1.54.24.26.07.16-.15,0-.23-.34-.16-.5,0-.34.34.08.16.29.27.47.36.03.02.25-.2-.13-.47-.45-.55-.37-.8-.07-.91.23-.08.5-.09.88-.15.3-.28.68-.63,1.02-.95.09-.15.2-.26.21-.37.01-1.05,0-2.1,0-3.06-.29-.29-.47-.47-.66-.66-.08-.74-.51-1.52.32-2.15h.75c.39-.39.77-.77,1.14-1.14-.18-.15-.34-.38-.54-.42-.39-.07-.8,0-1.19-.02-.41-.02-.63-.32-.63-.8,0-.93,0-1.86,0-2.77.28-.3.55-.59.8-.87-.02-.29-.04-.54-.06-.8-.19-.19-.38-.38-.56-.56-.06-.11-.14-.21-.17-.33-.03-.12,0-.26,0-.4,0-1.33,0-2.66,0-3.99,0-.12.07-.24.09-.34.27-.46.71-.27,1.08-.31.6-.83.6-.84,0-1.55-.27.24-.55.47-.83.71-.68-.87-.22-1.83-.36-2.79.36-.32.76-.67,1.25-1.1.5-.06,1.17-.12,1.43-.84h1.71c.25.23.53.49.81.76.28-.26.57-.53.82-.76h9.57c.44.28.4.68.4,1.12-.24.26-.5.55-.79.87v.76c.25.28.52.56.77.84v1.56c-.27.3-.51.58-.75.85.22.22.41.41.6.6.25.52.27,6.06.04,11.47-.96,1.04-.96,1.11.05,2.21.02.26.04.51.07.8-.25.27-.51.56-.8.87v9.56c.26.28.52.57.77.84v2.39c-.49.49-.96.96-1.43,1.43.06.53.06.54.66.55.13,0,.26,0,.38,0,.1.1.27.19.28.3.06.51.11,1.04.11,1.55,0,7.73,0,15.45,0,23.23-.22.25-.47.55-.77.89v4.77c.22.24.48.53.76.83v.77c-.24.37-.63.35-1.01.44-.34.09-.63.43-.98.69-.23-.2-.51-.44-.82-.71h-.76c-.27.25-.56.52-.84.77h-1.69c-.16-.45-.31-.91-.49-1.37-.03-.08-.21-.16-.27-.14-.11.05-.25.16-.28.27-.05.25,0,.53-.08.77-.09.3-.29.41-.5.36-.19-.19-.38-.37-.63-.63-.26.21-.53.43-.91.74-2,0-4.12.01-6.24-.01-.28,0-.46-.29-.4-.47.11-.29.36-.37.66-.31.13.03.26,0,.4,0,.14-.2.38-.38.41-.6.07-.39.07-.8,0-1.19-.04-.21-.31-.57-.4-.54-.28.07-.41.35-.38.61.04.29-.01.53-.2.72-.2.22-.38.18-.59-.19v-1.6c.26-.69,1.26-.13,1.57-.8v-.77c-.31-.69-1.28-.14-1.55-.87.49-.49.96-.96,1.43-1.42q.12-.77-.33-1.35h-.75c-.11-.11-.27-.2-.29-.3-.06-.52-.08-1.04-.13-1.58.26-.3.52-.59.8-.89,0-.23.02-.5.04-.77-.26-.28-.53-.57-.8-.85v-3.99c.22-.13.42-.32.65-.38.98-.25.99-.25.88-1.27-.19-.19-.38-.38-.57-.56-.06-.24-.17-.48-.17-.73-.01-2.4,0-4.8-.01-7.19,0-.38-.05-.77-.12-1.15-.02-.11-.18-.19-.28-.29h-1.64c-.16.17-.33.37-.52.55-.38.35-.78.7-1.17,1.04-.9-.27-1.19,1.01-2.06.8-.31.22-.63.44-1.04.74.02,0-.1.05-.22.05-.4.01-.8,0-1.26,0-.26.23-.55.48-.86.76-.23.01-.49.03-.77.05-.27.25-.56.52-.85.8-.92-.02-1.85-.02-2.78-.02,0-.37.01-.75,0-1.12,0-.1-.12-.21-.2-.28-.07-.06-.2-.14-.25-.12-.11.05-.23.15-.26.25-.22.86-.08,1.1.72,1.26ZM422.71,385.91c-.57.54-.57,1.07,0,1.6.57-.53.57-1.07,0-1.6ZM424.3,409.08q1.34,0,1.88-.28c0-.71.55-1.5-.31-2.06-.28.24-.55.47-.82.7-.23-.23-.42-.42-.78-.78-.3.49-.85.72-1.1,1.29.38.38.75.75,1.13,1.13ZM425.1,418.67h-.78q-.58.78-.02,1.6h.78c.58-.78.58-.79.02-1.6ZM424.7,404.28h.8v1.17c.76.6.76.6,1.69-.02-.31-.26-.61-.5-.88-.76-.06-.07,0-.25,0-.38h1.14c.5-.55.49-.55.46-.91-.04-.49-.2-.64-.69-.69-.42-.04-.7.13-.91.47v1.14h-.8c.09-.29,0-.52-.26-.66-.28-.14-.46.08-.55,1.01.04-.11.04-.32,0-.34-.25-.1-.45,0-.62.2-.16.19-.14.35.16.5.05.03.18-.04.25-.1.08-.07.18-.16.22-.62ZM424.3,423.46c-.09.09-.2.17-.26.27-.11.16,0,.36.27.51.03.02.19-.15.25-.25.11-.16,0-.35-.26-.53ZM424.97,410.01c-.09.09-.27.23-.25.26.15.28.35.37.51.27.1-.07.27-.22.25-.25-.15-.28-.34-.36-.52-.27ZM424.97,432.38c-.09.09-.27.23-.25.26.15.28.35.38.51.27.1-.07.27-.22.25-.25-.15-.28-.34-.36-.52-.27ZM431.09,411.47v-1.18c-.61-.78-1.39-.36-2.12-.3-.18.18-.37.37-.62.62-.25-.21-.49-.47-.77-.64-.59-.36-1.19.02-1.28.77-.01.12-.03.25-.04.34-.27.3-.52.59-.76.85q.02,1.24.35,1.9c.28-.25.55-.49.85-.76h.89c.44-.52.94-1.11,1.36-1.61.84,0,1.49,0,2.14,0v.8c-.13,0-.31-.06-.38,0-.57.52-1.11,1.07-1.64,1.59-.3.01-.56.03-.8.04-.29.27-.58.53-.84.76-.17,0-.3.01-.42,0-.28-.04-.55.05-.62.33-.03.12.27.46.4.45.83-.05,1.17.29,1.12,1.12,0,.14.29.29.44.44.47-.47.93-.93,1.49-1.49.56.08,1.11-.17,1.51-.71.15-.21.35-.38.53-.56v-1.17c.3-.09.56-.01.67.28.28.75.08,1.54.12,2.31,0,.11-.08.23-.12.34-.19.19-.37.37-.56.56-.02.72-.5,1.52.32,2.09h.79c.38-.38.76-.76,1.15-1.15-.25-.27-.49-.55-.77-.86.37-.33.76-.68,1.16-1.05.12.09.42.22.42.36.04,1.05.02,2.1.02,3.1.21.35.39.41.59.23.34-.3.15-.72.28-1.08.37-.37.74-.74,1.12-1.12h.76c.56-.54,1.12-1.06,1.67-1.59.21.21.4.39.58.58.19.21.38.16.6-.23,0-.71.02-1.5-.02-2.27,0-.15-.3-.27-.46-.41-.11.11-.21.19-.29.29-.19.27-.38.38-.56.29-.27-.14-.33-.37-.28-.67.04-.25,0-.52,0-.79h2.78c.29.27.57.53.85.79h2.38q.58-.89-.07-1.53c-.45.47-.85,1.04-1.53.7-.38-.31-.67-.55-.93-.76-1.11.09-2.17-.16-3.19.14-.29.08-.38.37-.28.67-.3-.09-.52,0-.67.27-.23.42.01,1.04-.57,1.33h-3.18c-.24-.52-.48-1.06-.72-1.59h-.82c-.29-.27-.57-.54-.85-.8-.4,0-.79,0-1.18,0ZM425.77,439.57c-.09.09-.27.23-.25.26.15.28.35.38.51.27.1-.07.27-.22.25-.25-.15-.28-.34-.36-.52-.27ZM428.57,401.62c0-.09.02-.21-.03-.27-.27-.4-1.14-.38-1.31.02-.03.08-.02.2.02.27.27.41,1.14.39,1.32-.02ZM428.71,445.03c.13,0,.27.04.38,0,.11-.05.21-.16.27-.27.09-.17-.01-.38-.3-.51-.1-.05-.26.02-.38-.01-.3-.08-.52,0-.66.28-.14.28.19.52.68.53ZM428.96,422.53c.18.09.37,0,.52-.27.02-.03-.15-.19-.25-.25-.17-.11-.36,0-.51.27-.02.03.17.17.25.26ZM448.29,409.88c-.35.24-.34.62-.45.97-.14.45-.55.8-.75,1.24-.08.18,0,.52.12.7.29.41.66.77,1.01,1.16.81-.66.17-1.56.58-2.21.91-.94.9-.95.25-1.86-.26,0-.52,0-.77,0ZM451.08,410.68c.13,0,.27.04.38,0,.11-.04.21-.16.27-.27.1-.17-.01-.38-.3-.51-.1-.05-.26.02-.38-.01-.3-.08-.52,0-.66.28-.14.27.19.52.68.53ZM453.07,412.27c.09-.09.21-.17.27-.28.09-.18-.03-.36-.31-.52h-1.56c-.09.09-.21.17-.27.28-.09.18.03.36.31.52h1.56ZM453.46,408.7c-.17-.28-.36-.39-.54-.28-.1.07-.25.18-.25.28-.03.52-.01,1.04-.01,1.56.09.09.16.21.26.28.18.11.37,0,.54-.28,0-.52,0-1.04,0-1.56ZM452.93,389.24c-.09.09-.27.23-.25.26.15.28.35.38.51.27.1-.07.27-.22.25-.25-.15-.28-.34-.36-.52-.27ZM453.48,424.26c.13,0,.27.04.38,0,.11-.04.21-.16.27-.27.1-.17-.01-.38-.3-.51-.1-.05-.26.02-.38-.01-.3-.08-.52,0-.66.28-.13.27.19.52.68.53ZM456.61,404.74c-.15.15-.23.25-.33.33-.26.19-.37.37-.29.55.13.28.36.29.66.29.29,0,.51-.02.67-.27.05-.24.12-.47.14-.71.02-.25.05-.53,0-.77-.06-.22-.18-.5-.36-.6-.2-.11-.51-.11-.74-.04-.17.05-.28.3-.4.44.24.28.45.54.66.79ZM457.33,410.95c-.09-.09-.17-.25-.27-.26-.25-.04-.51-.04-.77,0-.1.01-.21.14-.28.25-.04.07-.05.19-.02.27.17.41,1.05.43,1.31.02.04-.07.02-.18.03-.27ZM456.66,394.3c.5.38.79,1.18,1.43,1.16.96-.04.96-.16.97-1.16-.5-.38-.78-1.18-1.43-1.16-.98.03-.99.14-.97,1.16ZM459.86,387.51c.09-.29.01-.57-.27-.66-.59-.18-1.15-.29-1.64-.79-.36-.37-.94-.21-1.29.27v2.49c.3.27.68.62,1.07.95.48.4,1.21.03,1.32-.67h1.17c.28-.27.56-.53.84-.8.26,0,.53.03.78-.01.1-.02.21-.16.27-.27.09-.18-.02-.47-.31-.5-.64-.06-1.3-.01-1.95-.01ZM457.86,431.45c-.57.54-.57,1.07,0,1.6.57-.53.57-1.07,0-1.6ZM457.99,429.19c-.18-.09-.37,0-.52.27-.02.03.15.19.25.25.17.11.36,0,.51-.27.02-.03-.16-.17-.25-.26ZM459.86,437.45c-.25-.35-.59-.43-1-.41-.49.03-1.04-.13-1.39.39.23.35.57.41.97.42.42.01.59.43.89.65.16.12.41,0,.51-.29.08-.23.02-.51.02-.76ZM458.67,409.88c.13,0,.26-.02.38,0,.3.07.51,0,.66-.26.11-.18,0-.34-.25-.55-.28-.25-.51-.55-.76-.84-.62.59-.62,1.12-.04,1.64ZM458.66,425.86c-.13.21-.34.39-.38.62-.04.22,0,.53.13.71.29.42.67.78.94,1.09.52-.06.94.12,1.2-.33.17-.85.19-1.73-.02-2.6-.03-.11-.17-.18-.26-.28-.28.26-.55.53-.83.79h-.78ZM460.26,384.31c-.4,0-.8.04-1.2-.01-.31-.04-.55,0-.68.29-.08.17.06.37.32.56.11.08.21.17.28.28.47.67,1.53.32,1.94,1.12.04.08.21.12.33.14.4.05.75-.04.97-.42-.66-.65-1.31-1.31-1.97-1.97ZM459.46,421.86c.25,0,.53.06.76-.02.15-.06.23-.32.34-.48-.38-.38-.74-.74-1.09-1.09-.25,0-.53-.06-.75.02-.15.06-.23.32-.34.48.37.37.73.74,1.09,1.09ZM459.73,439.71c-.09-.09-.17-.25-.27-.26-.25-.04-.51-.04-.77,0-.1.01-.21.14-.28.25-.04.07-.05.19-.02.26.17.4,1.05.42,1.31.02.04-.06.02-.17.03-.27ZM459.06,400.69c.38.37.75.75,1.16,1.16.27-.24.55-.48.87-.76.21,0,.48.03.73-.01.11-.01.22-.14.29-.25.12-.18.02-.42-.29-.52-.24-.08-.52-.01-.73-.01-.32-.28-.59-.52-.87-.76-.4.41-.78.78-1.16,1.16ZM459.59,392.44c-.18-.09-.37,0-.52.27-.02.03.15.19.25.25.17.11.36,0,.51-.27.02-.04-.16-.17-.25-.26ZM460.26,433.85c-.57.54-.57,1.07,0,1.6.58-.53.58-1.06,0-1.6ZM460.52,430.39c.09-.18,0-.37-.27-.52-.03-.02-.19.15-.25.25-.11.17,0,.36.27.51.03.02.17-.16.26-.25ZM461.09,393.13c-.09.07-.18.14-.27.22-.09.08-.2.17-.27.27-.19.27-.68.41-.54.8.17.46.66.23,1.01.28q.56-.76.06-1.57ZM461.46,432.24c0-.13.04-.27,0-.38-.04-.11-.16-.21-.27-.27-.17-.1-.38.01-.51.3-.05.1.02.26-.01.38-.08.3,0,.52.28.66.27.13.52-.19.53-.68ZM461.32,419.2c.09-.18,0-.37-.27-.52-.03-.02-.19.15-.25.25-.11.17,0,.36.27.51.03.02.17-.16.26-.25Z"/>
      </g>
      <g>
        <path class="cls-1" d="M88.65,375.27v72.78h-17.8v-19.73l-17.48,7.66c0,.55-.01,1.08-.01,1.6v10.42l-19.3.06-.07-2.07c-.04-1.04-.83-25.72,5.82-40.3,14.06-30.82,37.07-30.5,38.73-30.42h10.11ZM84.36,379.54h-5.98c-.86-.06-21.68-.61-34.69,27.92-5.17,11.34-5.51,30.08-5.48,36.3l10.85-.04v-6.16c0-.96.02-1.99.04-3.06l.03-1.36,25.98-11.37v21.99h9.24v-64.22ZM72.54,392.08l2.58-.55v18.66l-24.86,10.88,1.01-4.19c3.37-13.98,10.72-22.56,21.26-24.8ZM70.85,396.99c-6.52,2.32-11.28,7.89-14.19,16.62l14.19-6.21v-10.4Z"/>
        <path class="cls-7" d="M153.38,431.92l-5.52,18.21h-4.37c-8.42,0-16.05-4.96-19.45-12.63-4.83-10.9-7.42-12.07-8.3-12.07h-.66v22.43h-19.59v-72.6h29.15c12.26,0,22.23,9.97,22.23,22.23v5.7c0,7.51-3.81,14.42-10.08,18.52,1.22,2.29,2.49,4.98,4.04,8.3h0c2.23,4.77,8.7,3,8.77,2.99l3.77-1.07ZM147.18,437.61c-3.63.06-8.04-1.15-10.22-5.79-1.95-4.16-3.44-7.3-4.9-9.84l-1.11-1.93,1.97-1.03c5.97-3.13,9.68-9.19,9.68-15.83v-5.7c0-9.9-8.06-17.95-17.96-17.95h-24.87v64.04h11.03v-22.43h4.94c4.07,0,7.61,4.24,12.21,14.62,2.72,6.13,8.82,10.09,15.54,10.09h1.19l2.5-8.24ZM133.2,401.71c0,4.63-3.77,8.41-8.41,8.41h-13.99v-19.55h13.99c4.64,0,8.41,3.77,8.41,8.41v2.73ZM128.93,398.98c0-2.28-1.86-4.13-4.13-4.13h-9.72v10.99h9.72c2.28,0,4.13-1.85,4.13-4.13v-2.73Z"/>
        <path class="cls-6" d="M211.4,375.27v72.78h-17.8v-19.73l-17.48,7.66c0,.55-.01,1.08-.01,1.6v10.42l-19.3.06-.07-2.07c-.04-1.04-.83-25.72,5.82-40.3,14.06-30.82,37.07-30.5,38.73-30.42h10.11ZM207.11,379.54h-5.98c-.86-.06-21.68-.61-34.69,27.92-5.17,11.34-5.51,30.08-5.48,36.3l10.85-.04v-6.16c0-.96.02-1.99.04-3.06l.03-1.36,25.98-11.37v21.99h9.24v-64.22ZM195.29,392.08l2.58-.55v18.66l-24.86,10.88,1.01-4.19c3.37-13.98,10.72-22.56,21.26-24.8ZM193.6,396.99c-6.52,2.32-11.28,7.89-14.19,16.62l14.19-6.21v-10.4Z"/>
        <path class="cls-4" d="M280.31,375.26v72.78h-17.79v-27.11l-10.77,19.7h-4.05l-10.77-19.7v27.11h-17.79v-72.78h19.28l11.32,21.97,11.32-21.97h19.27ZM276.03,379.54h-12.39l-11.86,23.03h-4.12l-11.86-23.03h-12.39v64.22h9.24v-39.57l17.07,31.23,17.07-31.24v39.58h9.24v-64.22Z"/>
        <path class="cls-3" d="M348.85,411.34c0,12.56-3.42,22.25-10.16,28.81-8.44,8.21-19.15,8.57-20.95,8.57-.22,0-.18,0-.46,0-1.69,0-12.41-.35-20.85-8.57-6.74-6.55-10.16-16.25-10.16-28.81,0-24.28,14.49-32.74,23.14-35.63,5.26-1.76,11.05-1.76,16.3,0,8.65,2.89,23.14,11.35,23.14,35.63ZM344.58,411.34c0-20.51-11-28.49-20.22-31.57-2.19-.74-4.5-1.1-6.79-1.1s-4.6.37-6.8,1.1c-9.22,3.08-20.22,11.05-20.22,31.57,0,11.34,2.97,19.99,8.82,25.71,7.71,7.54,18.02,7.37,18.13,7.4.2.01,10.52.15,18.24-7.4,5.85-5.72,8.83-14.37,8.83-25.71ZM325.21,393.05c4.44,3.66,6.69,9.87,6.69,18.44,0,11.37-4.07,17.13-7.48,19.96-1.99,1.64-4.42,2.46-6.85,2.46s-4.86-.82-6.85-2.46c-3.42-2.84-7.48-8.59-7.48-19.96,0-8.58,2.25-14.78,6.69-18.44,4.5-3.71,10.79-3.71,15.29,0ZM327.6,411.49c0-7.14-1.78-12.38-5.13-15.14-1.44-1.19-3.18-1.79-4.91-1.79s-3.47.59-4.92,1.79c-3.36,2.77-5.13,8.01-5.13,15.14,0,9.71,3.23,14.42,5.93,16.66,2.38,1.97,5.85,1.98,8.24,0,2.71-2.24,5.93-6.95,5.93-16.66Z"/>
        <path class="cls-2" d="M408.74,375.08l-5.63,17.8h-14.39v54.98h-19.59v-54.98h-17.89l5.63-17.8h51.87ZM402.9,379.36h-42.89l-2.93,9.24h16.32v54.98h11.03v-54.98h15.54l2.93-9.24Z"/>
        <path class="cls-5" d="M467.51,375.26v72.78h-19.59v-26.8l-13.64,5.97v20.83h-19.59v-72.78h19.59v31.03l13.64-5.97v-25.06h19.59ZM463.23,379.54h-11.03v23.58l-22.19,9.72v-33.29h-11.03v64.22h11.03v-19.35l22.19-9.71v29.07h11.03v-64.22Z"/>
      </g>
    </g>
    <g>
      <path class="cls-9" d="M119.88,486.6h13.18l-2.33,7.35h-19.17v-34.93l-1.47-2.32h9.83l-.03.05v29.86Z"/>
      <path class="cls-9" d="M172.98,456.7v7.35h-14.14v7.5h12.4l-2.33,7.35h-10.07v7.67h14.14v7.35l-22.47.03v-34.93l-1.47-2.32h23.94Z"/>
      <path class="cls-9" d="M218.61,476.35v13.8h-.01v.09s-2.29,3.61-11.74,3.61c-8.72,0-17.9-7.35-17.9-17.96,0-9.26,4.38-19.31,17.17-19.31,7.49,0,11.26,6.44,11.26,6.44l-4.07,7.15c-1.81-1.81-3.72-5.54-9.54-5.54-9.46,0-9.67,21.86,5.55,21.86.32,0,.64-.05.96-.09v-7.68l-1.5-2.37,9.83-.02Z"/>
      <path class="cls-9" d="M258.55,456.7v7.35h-14.14v7.5h12.4l-2.33,7.35h-10.07v7.67h14.14v7.35l-22.47.03v-34.93l-1.47-2.32h23.94Z"/>
      <path class="cls-9" d="M299.08,456.7h8.32v37.15h-11.31l-11.8-21.45v21.45h-8.32v-34.87l-1.45-2.28h11.22l13.33,25.69v-25.69Z"/>
      <path class="cls-9" d="M352.73,475.27c0,19.02-15.37,18.59-15.37,18.59h-12.47v-34.78l-1.5-2.37h13.97v.02s15.37.72,15.37,18.55ZM343.79,474.81c0-10.22-6.43-10.2-6.43-10.2l-4.14-.04v21.31h4.14s6.43-.85,6.43-11.07Z"/>
      <path class="cls-9" d="M398.47,482.53c0,5.35-2.55,11.72-14.72,11.72-9.76,0-14.8-5.93-15.02-6.22l5.37-5.68c.13.17,3.3,4.02,9.65,4.02,6.84,0,7.11-2.13,6.84-3.85-.27-1.72-1.51-2.6-7.36-4.17-5.28-1.42-12.52-3.36-12.52-10.93,0-3.3,1.29-6.07,3.73-8.01,6.37-5.06,18.58-2.56,20.97-2.01l-2.56,7.51c-4.28-.98-11-1.33-13.51.67-.37.29-.75.69-.75,1.84,0,1.31,2.06,2.08,6.68,3.32,5.25,1.41,13.19,3.54,13.19,11.77Z"/>
    </g>
  </g>
</svg>