<?xml version="1.0" encoding="UTF-8"?>
<svg id="Capa_1" data-name="Capa 1" xmlns="http://www.w3.org/2000/svg" xmlns:xlink="http://www.w3.org/1999/xlink" version="1.1" viewBox="0 0 332.76 110.77">
  <defs>
    <style>
      .cls-1 {
        fill: url(#Degradado_sin_nombre_46);
      }

      .cls-1, .cls-2, .cls-3, .cls-4, .cls-5, .cls-6, .cls-7, .cls-8, .cls-9 {
        stroke-width: 0px;
      }

      .cls-2 {
        fill: #000;
      }

      .cls-3 {
        fill: url(#Degradado_sin_nombre_46-6);
      }

      .cls-4 {
        fill: url(#Degradado_sin_nombre_46-5);
      }

      .cls-5 {
        fill: url(#Degradado_sin_nombre_46-4);
      }

      .cls-6 {
        fill: url(#Degradado_sin_nombre_46-7);
      }

      .cls-7 {
        fill: url(#Degradado_sin_nombre_46-3);
      }

      .cls-8 {
        fill: url(#Degradado_sin_nombre_46-2);
      }

      .cls-9 {
        fill: red;
      }
    </style>
    <linearGradient id="Degradado_sin_nombre_46" data-name="Degradado sin nombre 46" x1="34.13" y1="64.78" x2="34.13" y2="13.68" gradientUnits="userSpaceOnUse">
      <stop offset=".09" stop-color="#666e76"/>
      <stop offset=".51" stop-color="#fff"/>
    </linearGradient>
    <linearGradient id="Degradado_sin_nombre_46-2" data-name="Degradado sin nombre 46" x1="78.45" y1="66.24" x2="78.45" y2="13.68" xlink:href="#Degradado_sin_nombre_46"/>
    <linearGradient id="Degradado_sin_nombre_46-3" data-name="Degradado sin nombre 46" x1="120.29" x2="120.29" xlink:href="#Degradado_sin_nombre_46"/>
    <linearGradient id="Degradado_sin_nombre_46-4" data-name="Degradado sin nombre 46" x1="166.4" y1="64.77" x2="166.4" y2="13.68" xlink:href="#Degradado_sin_nombre_46"/>
    <linearGradient id="Degradado_sin_nombre_46-5" data-name="Degradado sin nombre 46" x1="214.02" y1="65.25" x2="214.02" y2="13.07" xlink:href="#Degradado_sin_nombre_46"/>
    <linearGradient id="Degradado_sin_nombre_46-6" data-name="Degradado sin nombre 46" x1="257.85" y1="64.64" x2="257.85" y2="13.55" xlink:href="#Degradado_sin_nombre_46"/>
    <linearGradient id="Degradado_sin_nombre_46-7" data-name="Degradado sin nombre 46" x1="300.75" y1="64.77" x2="300.75" y2="13.68" xlink:href="#Degradado_sin_nombre_46"/>
  </defs>
  <g>
    <g>
      <path class="cls-9" d="M30.17,20.65c1.68-1.31,2.35-1,3-1.35.05-.41.1-.85.15-1.28.19-.32.49-.2.76-.23.2-.19.4-.37.61-.56h1.09c.22-.2.42-.39.63-.58h1.06c.23-.13.27-.29.28-.49.03-.41.15-.6.38-.61.28-.02.56,0,.84,0,.15-.09.34-.15.44-.28.34-.48,1.14-.13,1.37-.81h1.72c.16.14.36.32.57.51.39-.37.78-.74,1.18-1.12h6.14c.15-.15.29-.29.42-.42.07-.02.17-.07.19-.04.46.45.92.91,1.33,1.32.02.37-.04.6-.24.83-.5.58-.47.65.17,1.34.02.08.07.17.07.25,0,1.4,0,2.8,0,4.25-.15.18-.33.39-.54.63v6.66c-.19.21-.38.41-.57.63v.54c.18.19.37.4.55.59v8.95c-.2.22-.38.42-.54.59-.11.47.12.74.42.98.04.18.11.35.12.52,0,1.31,0,2.62,0,3.92,0,.27.03.54.04.77.17.17.3.3.43.43.03.08.08.16.08.24,0,5.14,0,10.27,0,15.41-.19.41-.52.69-.89.93-.77-.71-.82-.71-1.55-.03-.38,0-.45-.53-.85-.48-.09,0-.19,0-.31,0-.19.17-.39.35-.61.55h-2.22c-.19-.17-.39-.35-.59-.53-.2.19-.41.37-.57.51h-1.69c-.29-.29-.55-.55-.81-.81.21-.49.94-.05,1.1-.67v-1.02c-.13-.21-.28-.3-.47-.27-.32.04-.59-.09-.61-.38-.06-.55-.02-1.1-.02-1.59.2-.2.35-.31.45-.46.16-.24.18-.53,0-.75-.24-.28-.55-.51-.42-1.07.49-.49,1.07-1.07,1.64-1.64-.13-.22-.29-.31-.48-.29-.32.04-.61-.1-.61-.38-.03-1.48-.02-2.97-.02-4.35-.34-.36-.59-.63-.82-.88h-1.14c-.22.2-.42.38-.63.58h-1.08l-1.01,1.01c-.25.07-.5.13-.76.2-.31.66-1.27.29-1.56,1h-1.1c-.21.2-.42.38-.62.58h-1.1c-.27.27-.56.51-.79.8-.36.44-1.08.22-1.36.79-.36.04-.72.08-1.19.13-.13.11-.33.28-.55.47-.49-.05-.83.22-1.14.61h-.52c-.62.26.02,1.25-.86,1.22v6.29c-.25.27-.5.54-.74.79-2.13.16-5.95.18-9.74.06-.07-.07-.19-.13-.19-.2-.02-.55-.02-1.11-.02-1.69.17-.19.36-.39.54-.58v-1.1c-.2-.22-.38-.43-.53-.59v-4.49l.45-.45c.05-.4.1-.84.14-1.27.15-.15.28-.28.46-.46-.15-.18-.3-.37-.5-.61v-4.46c.14-.16.33-.36.53-.59v-1.63c.2-.21.38-.42.58-.62v-.53c.19-.21.36-.4.53-.6-.15-.15-.29-.28-.42-.41-.15-.36.3-.36.3-.26.08-.51.12-.68.14-.86.03-.27-.07-.55.11-.79.2-.27.51-.12.76-.2.08-.03.16-.12.19-.19.02-.04-.04-.14-.08-.19-.12-.14-.29-.17-.5-.14-.19.02-.34-.08-.46-.28v-.55c.37-.39.75-.79,1.14-1.19v-1.09c.15-.15.29-.28.42-.42.27-.52-.02-1.09.05-1.28.14-.79.77-.97.63-1.52.16-.21.36-.41.5-.64.13-.22-.02-.54.2-.76.13-.13.26-.26.41-.4v-.53c.39-.41.77-.81,1.15-1.22v-1.09c.35-.35.68-.68,1.02-1.02.13-.31.04-.69.38-.96.36-.29.67-.65,1-.98.13-.07.27,0,.4.19.13.22.27.27.4.13.06-.06.14-.14.14-.22,0-.18-.02-.36-.04-.54-.13-.13-.26-.26-.4-.4-.07-.37-.29.08-.04-.2.06-.07.13-.13.2-.2,1.12-1.12,2.24-2.25,3.37-3.36.05-.05.18,0,.28,0-.06-.35.15-.5.45-.56.18-.03.37,0,.56,0,.56-.03.67-.13.68-.61,0-.28,0-.55-.84.1-.9,1.26-.85,1.43-.67,1.51.15.07.31.09.47.11.18.02.36-.05.4-.23.02-.08-.16-.29-.27-.31-.25-.05-.52-.02.06-1.08ZM18.02,45.46c-.06-.06-.16-.19-.18-.18-.2.11-.26.24-.19.36.05.07.16.19.18.18.19-.11.25-.24.19-.36ZM19.53,51.98c-.4.62-.4.74-.02,1.15.18.19.35.4.49.56.64,0,1.18.03,1.72-.02.2-.02.28-.22.22-.35-.04-.08-.12-.18-.19-.19-.18-.03-.36,0-.6,0-.15-.18-.32-.38-.48-.56h-.64c-.15-.17-.33-.38-.51-.59ZM20.91,49.47c.25.37.63.27.98.29.28.02.53-.03.71-.29v-.43c-.19-.64-.88-.2-1.12-.71,0-.32.02-.69-.02-1.05-.01-.1-.22-.18-.32-.25-.27.26-.53.51-.79.76.19.2.38.4.56.59v1.09ZM21.39,45.08c0-.06.01-.14-.02-.19-.19-.28-.8-.27-.92.01-.02.05-.02.14.01.19.19.28.8.27.93-.01ZM22.23,52.47c.13.06.26,0,.36-.19.01-.02-.11-.13-.18-.18-.12-.07-.25,0-.36.19-.01.02.11.12.18.18ZM23.63,49.95c-.06-.06-.16-.19-.18-.18-.2.11-.26.24-.19.36.05.07.16.19.18.18.19-.11.25-.24.19-.36ZM24.78,48.98c-.07-.12-.14-.27-.25-.33-.23-.12-.35,0-.23.23.06.11.21.19.33.25.02.01.17-.14-.34-.5.06-.2,0-.37-.17-.45-.15-.07-.31-.09-.47-.11-.18-.03-.36.05-.4.23-.02.08.16.29.27.31.25.05.51.01,1.28.35ZM25.96,46.68c-.06-.06-.12-.17-.19-.19-.61-.16-1.23-.14-1.84,0-.08.02-.13.12-.2.19v.53c.23.38.57.4.91.23.23-.12.4-.39.63-.45.26-.07.53-.06.7-.3ZM23.91,42.38c.13.06.26,0,.36-.19.01-.02-.11-.13-.18-.18-.12-.07-.25,0-.36.19-.01.02.11.12.18.18ZM24.75,52.76c-.06-.06-.12-.17-.19-.18-.18-.03-.36-.02-.54,0-.07,0-.15.1-.19.17-.03.05-.04.13-.02.19.12.29.74.3.92.01.03-.05.01-.13.02-.19ZM24.56,62.67c.4-.37.4-.74,0-1.12-.06.06-.13.12-.19.18-.07.06-.14.12-.19.19-.12.19-.49.27-.35.56.14.3.47.15.72.18ZM24.86,37.13c.18.19.38.38.54.58.04.06-.03.21.01.27.22.3-.1-.02.28,0,.26-.26.51-.52.78-.79.08-.84.02-.9-.82-.86-.26.26-.52.52-.25,1.89.02-.07.03-.23,0-.24-.18-.07-.32,0-.44.14-.11.13-.1.25.11.35.04.02.13-.03.17-.07.06-.05.13-.11-.39-1.29ZM27.09,51.17c0-.09-.02-.19,0-.27.05-.21,0-.36-.18-.47-.13-.08-.23-.01-.39.17-.17.2-.38.37-.58.56.4.42.77.41,1.14.02ZM25.96,34.34c.25.25.51.51.77.77.53-.07.31-.48.35-.77-.38-.4-.75-.4-1.12,0ZM43.85,32.15c-.07-.12-.14-.27-.25-.33-.24-.12-.35,0-.24.23.06.11.21.19.33.25.02.01.17-.14-.34-.5v-.83c-.19-.2-.38-.41-.56-.6,0-.2-.02-.38-.03-.54-.19-.22-.37-.42-.51-.58-.23-.64.44-.8.49-1.03v-1.04c-.34-.45-.57-.75-.74-.97h-1.21c-.28.73-1.26.32-1.56,1.01-.25.07-.5.13-.75.19-.33.33-.66.66-.99.99-.18.01-.36.02-.49.03-1.35,1.34-2.66,2.66-3.93,3.92h-.65c-.6.38-.08,1.06-.4,1.51l-.99.99c0,.18-.02.36-.03.56-.18.19-.37.4-.56.6v.54c-.19.21-.38.41-.56.6,0,.2-.02.38-.03.54-.19.22-.37.42-.56.64v1.03c-.21.26-.39.46-.57.69v1.04c-.18.18-.34.29-.44.45-.28.45,0,.91.53.91.09,0,.18-.02.26-.03.13-.13.24-.3.4-.39.38-.21.9-.13,1.15-.6.03-.06.15-.09.23-.1.36-.04.77.13,1.07-.11.29-.23.51-.46.93-.48.22,0,.43-.31.66-.49.18.16.37.33.57.51.47-.22.08-.91.59-1.11.18,0,.37-.02.53-.03.22-.19.42-.37.6-.53.31,0,.59-.02.77.25.13.19.27.28.39.22.2-.09.26-.26.19-.48-.06-.21,0-.37.24-.49.41-.05.85-.1,1.27-.14.26-.33.53-.57.97-.47.2-.18.4-.36.62-.56h1.05c.48-.48.94-.94,1.44-1.44,0-.11.02-.3.03-.5-.18-.19-.36-.4-.56-.61v-1.66c.18-.19.36-.39.53-.58-.19-.21-.37-.41-.54-.6,0-.31-.03-.59.19-.73.41.03.46.61,1.43.83ZM29.7,31.17c.06-.06.17-.12.18-.19.03-.18.03-.36,0-.54,0-.07-.1-.15-.17-.19-.05-.03-.13-.04-.19-.02-.29.12-.3.74-.01.92.05.03.13.01.19.02ZM31.29,47.52c-.4.38-.4.75,0,1.12.4-.37.4-.75,0-1.12ZM36.56,46.17c-.07-.12-.14-.27-.25-.33-.24-.12-.35,0-.24.24.06.11.21.19.33.25.02.01.17-.14-.34-.5,0-.09,0-.18,0-.27.03-.26-.13-.59.18-.73.29-.13.37.25.59.36.4-.13.63-.48.88-.8-.57-.3-.57-.29-2.04-.12-.06,0-.11.13-.17.2,0,.45,0,.91,0,1.61.03-.08.03-.23,0-.24-.18-.07-.32,0-.44.14-.11.14-.1.24.11.35.04.02.13-.03.17-.07.06-.05.13-.11.16-.43.19,0,.37,0,1.06.34ZM36.53,47.15c-.06-.06-.12-.17-.19-.18-.18-.03-.36-.03-.54,0-.07,0-.15.1-.19.17-.03.05-.04.13-.02.19.12.28.73.29.92.01.03-.04.02-.13.02-.19ZM43.91,45.28c.06.33-.15.71.16,1,.5.14,1.01.28,1.46-.1.16-.42-.07-.88.16-1.28.1-.18.26-.24.46-.18v1.39c.25.34.6.42.93.19.29-.19.5-.49.74-.72-.19-.23-.35-.42-.51-.61.1-.1.15-.17.23-.23.19-.13.27-.27.2-.39-.1-.19-.26-.23-.47-.2-.18.03-.37,0-.55,0,0-.09-.04-.22,0-.27.16-.21.36-.39.53-.58-.19-.29-.47-.24-.74-.28-.27-.04-.4-.3-.36-.63.03-.34.11-.41.52-.48.53-.09.67-.23.6-.67-.03-.16-.17-.3-.27-.45h-1.11c-.2-.19-.4-.38-.6-.56h-.55c-.47.35-.16,1.13-.8,1.36-.01.18-.03.36-.05.63.24.19.53.42.96.77.04.01.31.05.55.15.24.1.22.26-.17.46-.48-.11-1.1.1-1.73-.11-.34-.12.07.07-.19-.27,0-.32,0-.69,0-1.06,0-.07-.12-.13-.19-.2-.11.1-.29.19-.32.32-.1.43.17.93-.26,1.29-.19,0-.37.02-.57.02-.19-.18-.39-.37-.6-.56h-.27c-.09,0-.19,0-.28,0-.26.03-.62-.14-.74.2-.1.28.26.39.42.62-.15.18-.32.37-.5.57.17.19.35.38.53.58v.55c.26.26.53.52.81.81.19-.17.38-.33.6-.52h.51c.21-.19.4-.38.61-.57.28,0,.55,0,.83,0ZM42.78,20.85c.05-.16.01-.36.01-.6-.38-.29-1.02-.18-1.32-.68-.06-.1-.28,0-.35.21-.06.16-.01.36-.01.6.38.29,1.02.18,1.32.68.06.1.28,0,.35-.21h0ZM41.67,22.56c.38.4.75.4,1.12,0-.38-.4-.75-.4-1.12,0ZM42.04,42c-.13-.06-.26,0-.36.19-.01.02.11.14.18.18.12.08.25,0,.36-.19.01-.02-.11-.12-.18-.19ZM43.63,18.35c-.4.57-.4.57.01,1.12h.55c.4-.57.4-.57-.01-1.12h-.55ZM46.16,19.75c-.61-.39-.63-.41-1.14.04-.24.21-.47.25-.74.24-.36.27-.72.55-.92.97q0,1.38.28,1.83c.2-.19.4-.38.59-.55.64-.09,1.31.24,1.91-.25-.17-.19-.33-.39-.51-.59,0-.16-.02-.34-.03-.54.18-.19.37-.4.56-.6,0-.18,0-.36,0-.55ZM45.22,36.77c.13.06.26,0,.36-.19.01-.02-.11-.13-.18-.18-.12-.07-.25,0-.36.19-.02.02.11.12.18.18ZM46.63,23.03c-.06-.06-.12-.17-.19-.18-.18-.03-.36-.02-.54,0-.08,0-.15.1-.19.17-.03.05-.04.13-.02.19.12.29.74.3.92.01.03-.05.02-.13.02-.19ZM47.02,48.64h-.59c-.32.27-.38.59-.17.95.1.18.28.17.49.18.43.03.45.05.51.47.03.19.02.36.15.5.14.14.26.11.41-.13v-1.11c-.17-.18-.35-.38-.55-.85.27,0,.54.01.81,0,.07,0,.13-.1.2-.16.23-.6.09-1.21.09-1.82-.25-.22-.49-.19-.53.07-.03.17,0,.35,0,.5-.2.21-.39.41-.56.59,0,.28,0,.55-.26.82ZM47.09,32.28c.06-.06.19-.16.18-.18-.11-.2-.24-.26-.36-.19-.08.04-.19.16-.18.18.11.2.24.26.36.19ZM47.09,55.28c.06-.06.19-.16.18-.18-.11-.2-.24-.26-.36-.19-.07.05-.19.16-.18.18.11.19.24.25.36.19ZM47,20.59c-.06.06-.14.12-.19.19-.07.12,0,.26.19.36.02.01.13-.11.18-.18.08-.12,0-.25-.18-.37ZM46.81,33.87c.06.06.16.19.18.18.2-.11.26-.24.19-.36-.05-.07-.16-.19-.18-.18-.19.11-.25.24-.19.36ZM47.65,22.37c-.06,0-.14-.01-.19.02-.28.19-.27.8.01.92.05.02.14.02.19-.01.28-.19.27-.8-.01-.93ZM47.84,52.85c-.06-.06-.12-.14-.19-.19-.12-.08-.25,0-.36.19-.01.02.11.13.18.18.12.08.24,0,.37-.18ZM48.4,38.82c-.06-.06-.12-.14-.19-.19-.12-.08-.25,0-.36.19-.01.02.11.13.18.18.12.07.24,0,.37-.18ZM48.97,54.25c.09,0,.19.02.27,0,.08-.03.15-.11.19-.19.07-.12,0-.26-.21-.36-.07-.03-.18.01-.27,0-.21-.05-.37,0-.46.19-.1.19.13.37.48.37Z"/>
      <path class="cls-9" d="M61.26,45.04c.15-.6.05-.77-.51-.89,0-.09-.04-.22,0-.27.17-.21.37-.4.56-.6-.01-.2-.02-.38-.03-.56-.11-.18-.27-.22-.45-.26-.63-.12-.64-.13-.63-.64,0-.27.02-.54.03-.79.16-.16.29-.29.45-.45.18-.7.03-1.44.08-2.17.04-.64-.08-1.29.08-1.92.68-.73.67-.78-.06-1.58v-1.13c.15-.16.33-.37.52-.57-.18-.19-.36-.4-.53-.58v-1.09c.19-.21.36-.41.52-.6-.15-.15-.29-.29-.42-.42-.04-.08-.11-.15-.11-.23,0-1.31,0-2.61,0-3.92,0-.36-.07-.73.07-1.09.41-.41.4-.41.49-.92-.22-.54-.8-.75-1.06-1.28.13-.15.32-.34.5-.54v-.54c-.19-.21-.38-.41-.56-.61,0-.29-.03-.57.23-.77.14-.1.22-.28.29-.37v-1.1c-.17-.17-.3-.3-.43-.43-.13-.44-.15-.88,0-1.31.12-.19.28-.24.49-.19.2.05.39-.02.46-.22.05-.13-.08-.28-.28-.34-.17-.05-.36-.04-.53-.06-.3-.18-.23-.48-.24-.73.2-.54.88-.17,1.12-.62.24-.45.92-.09,1.12-.63,0-.16.02-.35.03-.53.11-.18.26-.25.45-.25,1.21,0,2.42,0,3.67,0,.19.16.39.35.61.54.16,0,.35.02.54.02.19-.18.4-.37.6-.56h1.11c.38.38.75.75,1.13,1.13q.26-.39.27-.84c.06-.07.11-.17.19-.2.53-.19,1.09-.07,1.69-.11.18.14.38.31.61.5.14.02.32.04.53.07.19-.16.39-.34.63-.55h3.34c.17.16.37.35.57.53.19-.18.4-.37.58-.54h2.22c.23.2.43.38.61.55.31,0,.59.02.77-.25.13-.19.27-.28.4-.22.2.1.26.26.19.48-.06.21,0,.41.21.46.11.02.26-.14.39-.23.08-.05.13-.13.22-.22.19.17.39.34.6.53h1.09c.4.39.8.77,1.17,1.12.23.02.49-.03.57.07.31.39.72.49,1.17.59.21.05.27.25.2.59.02.05.03-.1,0-.11-.18-.07-.32,0-.44.14-.11.14-.1.24.11.35.04.02.13-.03.17-.07.06-.05.13-.11.15-.31.36-.19.53.03.55.32.02.29.07.55.34.67.16.07.4-.02.48.05.51.46.98.92,1.44,1.36v.58c.34.34.67.67,1,1,.22.53.07,1.09.12,1.63.09.15.17.31.28.44.25.28.52.53.81.82v2.2c.19.21.38.42.58.64v5.58c-.18.19-.36.4-.55.6v2.78c-.2.21-.38.42-.58.63v1.06c-.21.24-.39.45-.54.63v.97c-.13.15-.34.34-.46.57-.12.23-.14.5-.2.75l-.99.99c0,.18-.02.37-.03.55-.41.33-.6.98-1.36.87-.56.55-1.16,1.12-1.74,1.69-.2,0-.38.02-.56.02-.26.26-.53.53-.8.8v.56c.17.19.36.39.55.59v.55c.14.14.28.26.4.4.27.35.72.54.75,1.1.02.31.47.58.5.89.04.43.31.63.52.92.15.21-.02.54.21.75.13.13.26.26.41.41v.53c.2.21.39.41.58.62v.55c.2.2.4.4.6.6.13.13.26.26.5.5.16.16-.17.67.32.82.16-.15.36-.33.55-.5.21.19.42.37.64.56h1.07c.16.16.29.29.46.46.4.04.85.09,1.26.14.4.42.11.91.22,1.35.15.09.29.23.45.26.27.04.56-.02.84.02.13.02.24.2.35.31-.13.13-.26.26-.4.4-.28.61,0,1.27-.2,1.88-.13.13-.26.26-.45.45-.01.3-.03.66-.05,1.1-.13.15-.3.36-.55.66,0,.36-.01.82,0,1.27.02.45-.18.68-.64.65-.19-.01-.32.09-.46.25-.11.13-.28.3-.43.3-.73-.01-1.48.1-2.19-.05-.15-.15-.28-.28-.43-.43-.72-.14-1.46,0-2.19-.07-.29-.03-.45-.27-.4-.6.03-.2-.05-.35-.26-.48-.19.16-.38.34-.59.52h-.54c-.19-.18-.4-.37-.61-.56h-.52c-.22-.2-.43-.38-.61-.55-.21-.02-.39-.04-.35-.03-.77-.77-1.43-1.42-2.13-2.11.01-.2,0-.47-.29-.65h-.57c-.24-.26-.49-.53-.8-.86v-1.16c-.37-.29-.81-.64-1.15-.91v-1.29c-.27-.27-.53-.52-.79-.8-.12-.13-.33-.3-.31-.42.11-.56-.49-.74-.57-1.17-.03-.16.02-.36.1-.51.09-.16.25-.27.39-.4-.07-.32-.29-.37-.57-.35-.19.02-.34-.07-.49-.3v-.78c0-.47,0-.47-.68-.61-.08-.02-.16-.05-.34-.11-.66-.67-1.37-1.41-2.07-2.14h-.56c-.29-.23-.45-.61-.91-.56-.32.04-.45-.28-.68-.46-.31-.2-.69-.05-1.04-.1-.46.16-.7.57-1.03.91v2.73c-.19.22-.35.42-.51.61.16.16.3.3.43.43.05.32-.27.39-.42.64.15.18.31.37.5.59v9.58c-.22.18-.51.41-.99.8-.28.11-.84-.13-1.38.04-.24-.2-.45-.37-.67-.56-.15-.02-.33-.03-.53-.06-.19.17-.39.35-.61.54-.19-.17-.39-.35-.58-.53h-.54c-.22.2-.42.38-.59.54h-5.05c-.28-.28-.55-.55-.82-.82v-.73c.34-.26.77-.61,1.13-.89-.03-.33-.05-.51-.07-.69-.13-.13-.26-.26-.47-.47-.02-.29-.03-.64-.05-.98.24-.55.73-.85,1.11-1.29-.36-.39-.73-.78-1.09-1.16v-2.21c.2-.23.38-.43.55-.62-.02-.21-.04-.39-.06-.56-.13-.13-.26-.26-.4-.4-.04-.17-.1-.34-.1-.51,0-2.24,0-4.48,0-6.72,0-.27.02-.55.09-.8.07-.21.27-.26.48-.2,0,.26,0,.52,0,.78,0,.07.08.14.14.2.05.04.14.1.18.08.08-.03.16-.1.18-.18h0ZM63,22.27c0-.09.02-.19,0-.27-.03-.08-.11-.15-.19-.19-.12-.07-.26,0-.36.21-.03.07.01.18,0,.27-.05.21,0,.37.19.46.19.09.37-.13.37-.48ZM66.36,23.4c-.21.06-.36,0-.47-.19-.17-.29,0-.72-.39-.93-.24.03-.53-.11-.83.34.04.63-.06,1.42.05,2.22,0,.07.12.13.23.24.22,0,.48-.02.75,0,.29.02.51-.08.66-.33v-1.35h.84c.09-.15.21-.28.28-.44.07-.16.04-.36.13-.5.09-.16.25-.27.39-.4-.37-.47-.41-.48-1.04-.08,0,.18-.02.36-.03.52-.14.35-.64.44-.56.91ZM66.65,27.89c.32-.26.39-.6.18-.93-.19-.3-.46-.56-.65-.77-.39.06-.69-.06-.94.38.24.34-.32.93.32,1.33.36,0,.73,0,1.09,0ZM66.09,54.25c-.09,0-.19.02-.27,0-.21-.05-.36,0-.47.18-.13.22-.15.62-.03.74.44.45.88.9,1.31,1.35.52-.45.26-.99.22-1.49-.26-.26-.51-.51-.77-.77ZM66.65,40.23c.4-.38.4-.75,0-1.12-.4.37-.4.75,0,1.12ZM84.31,38.55h-.84c-.45.46-.91.92-1.37,1.38.12.1.24.26.38.29.35.07.72.04,1.08.11.21.04.26.25.2.46h-.96c-.29.35-.64.77-.94,1.13-.85-.03-.85-.04-.91-.77-.25-.34-.5-.68-.92-.85-.13.13-.26.26-.4.4-.31.04-.39-.27-.6-.4-.61-.09-1.23-.16-1.84.05-.07.02-.12.13-.18.2v1.93c-.44.07-.55-.37-.86-.56-.5,0-1.02,0-1.55,0-.21,0-.32-.17-.4-.56.27,0,.54.01.81,0,.07,0,.13-.1.32-.25-.02-.51.03-1.11-.03-1.73,0-.07-.12-.13-.18-.19-.06.02-.14.02-.19.06-.25.24-.5.5-.72.73v1.39c-.09,0-.22.04-.28,0-.21-.17-.4-.37-.6-.56-.2.01-.51-.04-.55.04-.32.67-1.25.34-1.58.98-.03.06-.15.09-.23.1-.28.03-.53-.03-.68-.29.19-.2.37-.41.58-.64-.17-.41.18-.92-.3-1.3-.19.18-.38.37-.58.54-.06.04-.18,0-.28,0,0-.27.03-.54-.02-.8-.02-.1-.22-.17-.33-.25-.26.26-.52.52-.78.78,0,.71.02,1.42-.02,2.14,0,.13-.2.26-.3.39-.27,0-.54,0-1.93.6.58-.19.67-.7,1.12-.6-.09-.35.21-.49.4-.67.17-.16.18-.27-.16-.45h-.72c-.48,0-.64.16-.64.64,0,.27,0,.54,1.12.48,0,.37,0,.75,0,1.37.02-.08.03-.23,0-.24-.18-.07-.32,0-.44.14-.11.13-.1.24.11.35.04.02.13-.03.17-.07.06-.05.13-.11.16-.43.09,0,.22-.04.27,0,.27.25.53.52.8.79.02.17.03.35.06.56.16.18.36.37.53.58.14.18.27.27.4.21.2-.09.24-.26.2-.48-.03-.18,0-.37,0-.56h1.41c.21-.31.65-.47.77-.89-.16-.2-.31-.38-.43-.53.29-.31.54-.57.8-.82.05-.04.17,0,.26,0v1.67q0,.48.38.48l.98-.98c.18-.01.36-.03.56-.04.19-.17.39-.35.57-.52.53.18.1.87.62,1.08h.52c.2-.19.4-.36.58-.53.21.18.4.34.59.5.09-.09.17-.15.22-.23.14-.19.27-.27.39-.21.19.1.24.26.2.47-.03.18,0,.37,0,.56h-.83c-.26.18-.32.43-.29.72.1.14.19.3.31.42.19.19.4.37.58.54.31,0,.59,0,.87,0,.19,0,.38-.07.43-.26.02-.07-.22-.27-.35-.28-.28-.03-.54-.04-.72-.3v-.83c.09,0,.22-.04.27,0,.21.17.39.36.58.53.21-.19.41-.37.58-.52h1.1c.24.21.44.38.65.57.37,0,.75-.07,1.05.02.26.07.36.5.62.42.33-.11.18-.47.21-.72-.19-.2-.38-.4-.56-.6v-1.38c.09,0,.21.04.26,0,.19-.18.36-.38.51-.55h.59c.19-.17.38-.35.61-.57.3,0,.65.04.99-.01.26-.04.46-.22.4-.55h1.24c.61-.17.34-.64.54-.93.32-.32.64-.64.97-.97.08-.34.16-.67-.25-.85-.19.16-.38.32-.55.46-.24-.2-.45-.37-.61-.51-.6-.03-1.15.06-1.6-.05-.28-.2-.47-.4-.71-.5-.33-.14-.63.11-.69.55ZM67.49,46.68c-.38-.4-.75-.4-1.12,0,.37.4.75.4,1.12,0ZM67.39,36.49c-.06-.06-.16-.19-.18-.18-.2.11-.26.24-.19.36.05.07.16.19.18.18.19-.11.25-.24.19-.36ZM68.89,21.16c.4-.57.4-.57-.01-1.12h-.55c-.4.57-.4.57.01,1.12h.55ZM68.61,23.68c.17.24.42.3.7.29.35-.02.73.09,1-.31-.19-.17-.39-.35-.58-.54-.4-.37-.55-.37-1.11.03v.54ZM70.66,22.19c.06-.06.17-.12.18-.19.03-.18.02-.36,0-.54,0-.07-.1-.15-.17-.19-.05-.03-.13-.04-.19-.02-.29.12-.3.74-.01.92.05.03.13.02.19.02ZM84.31,27.61c-.7-.7-1.28-1.3-1.89-1.87-.11-.1-.36-.03-.51-.1-.24-.13-.44-.31-.75-.55h-1.53c-.46,0-.93.02-1.4,0-.54-.03-1.1.12-1.62-.11-.14-.14-.27-.27-.44-.44-1.07,0-2.18,0-3.29,0-.07,0-.15.09-.22.14-.13.13-.26.26-.42.42-.16,0-.34-.01-.52,0-.26.02-.56-.11-.83.26-.08.71-.07,1.53,0,2.31.16.16.29.29.42.42.03.08.08.16.08.24,0,1.58,0,3.16,0,4.74,0,.08-.06.16-.08.24-.13.13-.26.26-.43.43.15.19.31.37.5.61v1.08c.33.29.56.7.98.88.56-.03,1.11.07,1.65-.09.13-.13.26-.26.44-.44.19.15.37.31.59.48.18-.16.37-.33.58-.51h.53c.19.18.4.36.6.55h3.34c.2-.19.4-.38.6-.56.2,0,.38-.02.56-.03.29-.38.64-.63,1.12-.59.22-.19.43-.36.59-.49.5-.09,1,.19,1.35-.29v-.55c.19-.2.36-.4.54-.58-.19-.22-.37-.42-.51-.57v-1.1c.21-.25.39-.46.49-.59v-1.1c-.22-.28-.39-.49-.52-.65v-1.59ZM70.85,17.51v.55q.55.41,1.12.01v-.55c-.55-.41-.55-.41-1.12-.01ZM71.41,19.75c.38.4.75.4,1.12,0-.37-.4-.75-.4-1.12,0ZM73.1,19.84c.14.12.37.28.55.48.16.17.26.25.39.18.18-.11.21-.26.19-.47-.03-.27,0-.54,0-.82-.54-.41-.55-.41-1.12-.02v.65ZM75.25,15.18c-.06-.06-.16-.19-.18-.18-.2.11-.26.24-.19.36.05.07.16.19.18.18.19-.11.25-.24.19-.36ZM75.9,19.19v.55q.55.41,1.12.01v-.55q-.55-.4-1.12-.01ZM76.37,40.04c.06-.13,0-.26-.19-.36-.02-.01-.13.11-.18.18-.07.12,0,.25.19.36.02.01.12-.12.18-.18ZM76.74,37.98c.25-.25.51-.51.77-.77-.07-.53-.48-.31-.77-.35-.4.38-.4.75,0,1.12ZM77.49,15.36c0-.06.01-.14-.02-.19-.19-.29-.8-.28-.92.01-.02.05-.02.14.01.19.19.28.8.27.93-.01ZM81.88,47.99c.06-.06.17-.12.18-.19.03-.18.03-.36,0-.54,0-.07-.1-.15-.17-.19-.05-.03-.14-.04-.19-.02-.29.12-.3.74-.01.92.05.03.13.02.19.02ZM84.61,21.16c.28,0,.56.04.83,0,.37-.07,0,.11,0-.28-.26-.25-.52-.51-.82-.81h-1.12c-.14.12-.32.33-.54.47-.22.13-.53-.02-.75.2-.14.14-.11.26.14.41h1.11c.17-.16.37-.34.57-.53.19.18.38.36,1.41.54v.83c.19.2.38.4.57.6v1.1c.27.27.53.53.83.83h.78c.52,0,.88-.54.55-.88-.34-.35-.47-.73-.58-1.16-.05-.21-.25-.26-.47-.2,0-.26.03-.52-.02-.77-.02-.12-.2-.21-.3-.3-.18.17-.36.34-.54.5-.2-.19-.38-.37-.58-.53-.05-.04-.17,0-1.08,0ZM82.35,19.48c-.06.06-.14.12-.19.19-.08.12,0,.25.19.36.02.01.13-.11.18-.18.08-.12,0-.25-.18-.37ZM86.56,36.85c0-.09.03-.19,0-.27-.03-.08-.11-.15-.19-.19-.12-.07-.26,0-.36.21-.03.07.01.18,0,.27-.05.21,0,.37.19.46.19.1.37-.13.37-.48ZM86.46,20.22c-.06-.06-.16-.19-.18-.18-.2.11-.26.24-.19.36.05.07.16.19.18.18.19-.11.25-.24.19-.36ZM88.24,35.74c-.26,0-.53-.03-.78.02-.11.02-.2.2-.29.31.25.25.5.5.75.75.11-.1.29-.18.31-.29.05-.26.02-.52.02-.78.5-.19.5-.19,1.05-.91-.55-.32-.6-.33-1.05.13v.78ZM89.27,27.14c.06-.13,0-.26-.19-.36-.02-.01-.13.11-.18.18-.08.12,0,.25.19.36.02.01.12-.12.18-.18ZM90.02,32.19c.06.06.16.19.18.18.2-.11.26-.24.19-.36-.05-.07-.16-.19-.18-.18-.2.11-.25.24-.19.36Z"/>
      <path class="cls-9" d="M115.56,20.65c1.68-1.31,2.35-1,3-1.35.05-.41.1-.85.15-1.28.19-.32.49-.2.76-.23.2-.19.4-.37.61-.56h1.09c.22-.2.42-.39.63-.58h1.06c.23-.13.27-.29.28-.49.03-.41.15-.6.38-.61.28-.02.56,0,.84,0,.15-.09.34-.15.44-.28.34-.48,1.14-.13,1.37-.81h1.72c.16.14.36.32.57.51.39-.37.78-.74,1.18-1.12h6.14c.15-.15.29-.29.42-.42.07-.02.17-.07.19-.04.46.45.92.91,1.33,1.32.02.37-.04.6-.24.83-.5.58-.47.65.17,1.34.02.08.07.17.07.25,0,1.4,0,2.8,0,4.25-.15.18-.33.39-.54.63v6.66c-.19.21-.38.41-.57.63v.54c.18.19.37.4.55.59v8.95c-.2.22-.38.42-.54.59-.11.47.12.74.42.98.04.18.11.35.12.52,0,1.31,0,2.62,0,3.92,0,.27.03.54.04.77.17.17.3.3.43.43.03.08.08.16.08.24,0,5.14,0,10.27,0,15.41-.19.41-.52.69-.89.93-.77-.71-.82-.71-1.55-.03-.38,0-.45-.53-.85-.48-.09,0-.19,0-.31,0-.19.17-.39.35-.61.55h-2.22c-.19-.17-.39-.35-.59-.53-.2.19-.41.37-.57.51h-1.69c-.29-.29-.55-.55-.81-.81.21-.49.94-.05,1.1-.67v-1.02c-.13-.21-.28-.3-.47-.27-.32.04-.59-.09-.61-.38-.06-.55-.02-1.1-.02-1.59.2-.2.35-.31.45-.46.16-.24.18-.53,0-.75-.24-.28-.55-.51-.42-1.07.49-.49,1.07-1.07,1.64-1.64-.13-.22-.29-.31-.48-.29-.32.04-.61-.1-.61-.38-.03-1.48-.02-2.97-.02-4.35-.34-.36-.59-.63-.82-.88h-1.14c-.22.2-.42.38-.63.58h-1.08l-1.01,1.01c-.25.07-.5.13-.76.2-.31.66-1.27.29-1.56,1h-1.1c-.21.2-.42.38-.62.58h-1.1c-.27.27-.56.51-.79.8-.36.44-1.08.22-1.36.79-.36.04-.72.08-1.19.13-.13.11-.33.28-.55.47-.49-.05-.83.22-1.14.61h-.52c-.62.26.02,1.25-.86,1.22v6.29c-.25.27-.5.54-.74.79-2.13.16-5.95.18-9.74.06-.07-.07-.19-.13-.19-.2-.02-.55-.02-1.11-.02-1.69.17-.19.36-.39.54-.58v-1.1c-.2-.22-.38-.43-.53-.59v-4.49l.45-.45c.05-.4.1-.84.14-1.27.15-.15.28-.28.46-.46-.15-.18-.3-.37-.5-.61v-4.46c.14-.16.33-.36.53-.59v-1.63c.2-.21.38-.42.58-.62v-.53c.19-.21.36-.4.53-.6-.15-.15-.29-.28-.42-.41-.15-.36.3-.36.3-.26.08-.51.12-.68.14-.86.03-.27-.07-.55.11-.79.2-.27.51-.12.76-.2.08-.03.16-.12.19-.19.02-.04-.04-.14-.08-.19-.12-.14-.29-.17-.5-.14-.19.02-.34-.08-.46-.28v-.55c.37-.39.75-.79,1.14-1.19v-1.09c.15-.15.29-.28.42-.42.27-.52-.02-1.09.05-1.28.14-.79.77-.97.63-1.52.16-.21.36-.41.5-.64.13-.22-.02-.54.2-.76.13-.13.26-.26.41-.4v-.53c.39-.41.77-.81,1.15-1.22v-1.09c.35-.35.68-.68,1.02-1.02.13-.31.04-.69.38-.96.36-.29.67-.65,1-.98.13-.07.27,0,.4.19.13.22.27.27.4.13.06-.06.14-.14.14-.22,0-.18-.02-.36-.04-.54-.13-.13-.26-.26-.4-.4-.07-.37-.29.08-.04-.2.06-.07.13-.13.2-.2,1.12-1.12,2.24-2.25,3.37-3.36.05-.05.18,0,.28,0-.06-.35.15-.5.45-.56.18-.03.37,0,.56,0,.56-.03.67-.13.68-.61,0-.28,0-.55-.84.1-.9,1.26-.85,1.43-.67,1.51.15.07.31.09.47.11.18.02.36-.05.4-.23.02-.08-.16-.29-.27-.31-.25-.05-.52-.02.06-1.08ZM103.41,45.46c-.06-.06-.16-.19-.18-.18-.2.11-.26.24-.19.36.05.07.16.19.18.18.19-.11.25-.24.19-.36ZM104.92,51.98c-.4.62-.4.74-.02,1.15.18.19.35.4.49.56.64,0,1.18.03,1.72-.02.2-.02.28-.22.22-.35-.04-.08-.12-.18-.19-.19-.18-.03-.36,0-.6,0-.15-.18-.32-.38-.48-.56h-.64c-.15-.17-.33-.38-.51-.59ZM106.3,49.47c.25.37.63.27.98.29.28.02.53-.03.71-.29v-.43c-.19-.64-.88-.2-1.12-.71,0-.32.02-.69-.02-1.05-.01-.1-.22-.18-.32-.25-.27.26-.53.51-.79.76.19.2.38.4.56.59v1.09ZM106.78,45.08c0-.06.01-.14-.02-.19-.19-.28-.8-.27-.92.01-.02.05-.02.14.01.19.19.28.8.27.93-.01ZM107.61,52.47c.13.06.26,0,.36-.19.01-.02-.11-.13-.18-.18-.12-.07-.25,0-.36.19-.01.02.11.12.18.18ZM109.01,49.95c-.06-.06-.16-.19-.18-.18-.2.11-.26.24-.19.36.05.07.16.19.18.18.19-.11.25-.24.19-.36ZM110.17,48.98c-.07-.12-.14-.27-.25-.33-.23-.12-.35,0-.23.23.06.11.21.19.33.25.02.01.17-.14-.34-.5.06-.2,0-.37-.17-.45-.15-.07-.31-.09-.47-.11-.18-.03-.36.05-.4.23-.02.08.16.29.27.31.25.05.51.01,1.28.35ZM111.35,46.68c-.06-.06-.12-.17-.19-.19-.61-.16-1.23-.14-1.84,0-.08.02-.13.12-.2.19v.53c.23.38.57.4.91.23.23-.12.4-.39.63-.45.26-.07.53-.06.7-.3ZM109.29,42.38c.13.06.26,0,.36-.19.01-.02-.11-.13-.18-.18-.12-.07-.25,0-.36.19-.01.02.11.12.18.18ZM110.14,52.76c-.06-.06-.12-.17-.19-.18-.18-.03-.36-.02-.54,0-.07,0-.15.1-.19.17-.03.05-.04.13-.02.19.12.29.74.3.92.01.03-.05.01-.13.02-.19ZM109.95,62.67c.4-.37.4-.74,0-1.12-.06.06-.13.12-.19.18-.07.06-.14.12-.19.19-.12.19-.49.27-.35.56.14.3.47.15.72.18ZM110.24,37.13c.18.19.38.38.54.58.04.06-.03.21.01.27.22.3-.1-.02.28,0,.26-.26.51-.52.78-.79.08-.84.02-.9-.82-.86-.26.26-.52.52-.25,1.89.02-.07.03-.23,0-.24-.18-.07-.32,0-.44.14-.11.13-.1.25.11.35.04.02.13-.03.17-.07.06-.05.13-.11-.39-1.29ZM112.47,51.17c0-.09-.02-.19,0-.27.05-.21,0-.36-.18-.47-.13-.08-.23-.01-.39.17-.17.2-.38.37-.58.56.4.42.77.41,1.14.02ZM111.35,34.34c.25.25.51.51.77.77.53-.07.31-.48.35-.77-.38-.4-.75-.4-1.12,0ZM129.24,32.15c-.07-.12-.14-.27-.25-.33-.24-.12-.35,0-.24.23.06.11.21.19.33.25.02.01.17-.14-.34-.5v-.83c-.19-.2-.38-.41-.56-.6,0-.2-.02-.38-.03-.54-.19-.22-.37-.42-.51-.58-.23-.64.44-.8.49-1.03v-1.04c-.34-.45-.57-.75-.74-.97h-1.21c-.28.73-1.26.32-1.56,1.01-.25.07-.5.13-.75.19-.33.33-.66.66-.99.99-.18.01-.36.02-.49.03-1.35,1.34-2.66,2.66-3.93,3.92h-.65c-.6.38-.08,1.06-.4,1.51l-.99.99c0,.18-.02.36-.03.56-.18.19-.37.4-.56.6v.54c-.19.21-.38.41-.56.6,0,.2-.02.38-.03.54-.19.22-.37.42-.56.64v1.03c-.21.26-.39.46-.57.69v1.04c-.18.18-.34.29-.44.45-.28.45,0,.91.53.91.09,0,.18-.02.26-.03.13-.13.24-.3.4-.39.38-.21.9-.13,1.15-.6.03-.06.15-.09.23-.1.36-.04.77.13,1.07-.11.29-.23.51-.46.93-.48.22,0,.43-.31.66-.49.18.16.37.33.57.51.47-.22.08-.91.59-1.11.18,0,.37-.02.53-.03.22-.19.42-.37.6-.53.31,0,.59-.02.77.25.13.19.27.28.39.22.2-.09.26-.26.19-.48-.06-.21,0-.37.24-.49.41-.05.85-.1,1.27-.14.26-.33.53-.57.97-.47.2-.18.4-.36.62-.56h1.05c.48-.48.94-.94,1.44-1.44,0-.11.02-.3.03-.5-.18-.19-.36-.4-.56-.61v-1.66c.18-.19.36-.39.53-.58-.19-.21-.37-.41-.54-.6,0-.31-.03-.59.19-.73.41.03.46.61,1.43.83ZM115.09,31.17c.06-.06.17-.12.18-.19.03-.18.03-.36,0-.54,0-.07-.1-.15-.17-.19-.05-.03-.13-.04-.19-.02-.29.12-.3.74-.01.92.05.03.13.01.19.02ZM116.68,47.52c-.4.38-.4.75,0,1.12.4-.37.4-.75,0-1.12ZM121.95,46.17c-.07-.12-.14-.27-.25-.33-.24-.12-.35,0-.24.24.06.11.21.19.33.25.02.01.17-.14-.34-.5,0-.09,0-.18,0-.27.03-.26-.13-.59.18-.73.29-.13.37.25.59.36.4-.13.63-.48.88-.8-.57-.3-.57-.29-2.04-.12-.06,0-.11.13-.17.2,0,.45,0,.91,0,1.61.03-.08.03-.23,0-.24-.18-.07-.32,0-.44.14-.11.14-.1.24.11.35.04.02.13-.03.17-.07.06-.05.13-.11.16-.43.19,0,.37,0,1.06.34ZM121.92,47.15c-.06-.06-.12-.17-.19-.18-.18-.03-.36-.03-.54,0-.07,0-.15.1-.19.17-.03.05-.04.13-.02.19.12.28.73.29.92.01.03-.04.02-.13.02-.19ZM129.3,45.28c.06.33-.15.71.16,1,.5.14,1.01.28,1.46-.1.16-.42-.07-.88.16-1.28.1-.18.26-.24.46-.18v1.39c.25.34.6.42.93.19.29-.19.5-.49.74-.72-.19-.23-.35-.42-.51-.61.1-.1.15-.17.23-.23.19-.13.27-.27.2-.39-.1-.19-.26-.23-.47-.2-.18.03-.37,0-.55,0,0-.09-.04-.22,0-.27.16-.21.36-.39.53-.58-.19-.29-.47-.24-.74-.28-.27-.04-.4-.3-.36-.63.03-.34.11-.41.52-.48.53-.09.67-.23.6-.67-.03-.16-.17-.3-.27-.45h-1.11c-.2-.19-.4-.38-.6-.56h-.55c-.47.35-.16,1.13-.8,1.36-.01.18-.03.36-.05.63.24.19.53.42.96.77.04.01.31.05.55.15.24.1.22.26-.17.46-.48-.11-1.1.1-1.73-.11-.34-.12.07.07-.19-.27,0-.32,0-.69,0-1.06,0-.07-.12-.13-.19-.2-.11.1-.29.19-.32.32-.1.43.17.93-.26,1.29-.19,0-.37.02-.57.02-.19-.18-.39-.37-.6-.56h-.27c-.09,0-.19,0-.28,0-.26.03-.62-.14-.74.2-.1.28.26.39.42.62-.15.18-.32.37-.5.57.17.19.35.38.53.58v.55c.26.26.53.52.81.81.19-.17.38-.33.6-.52h.51c.21-.19.4-.38.61-.57.28,0,.55,0,.83,0ZM128.17,20.85c.05-.16.01-.36.01-.6-.38-.29-1.02-.18-1.32-.68-.06-.1-.28,0-.35.21-.06.16-.01.36-.01.6.38.29,1.02.18,1.32.68.06.1.28,0,.35-.21h0ZM127.06,22.56c.38.4.75.4,1.12,0-.38-.4-.75-.4-1.12,0ZM127.43,42c-.13-.06-.26,0-.36.19-.01.02.11.14.18.18.12.08.25,0,.36-.19.01-.02-.11-.12-.18-.19ZM129.02,18.35c-.4.57-.4.57.01,1.12h.55c.4-.57.4-.57-.01-1.12h-.55ZM131.54,19.75c-.61-.39-.63-.41-1.14.04-.24.21-.47.25-.74.24-.36.27-.72.55-.92.97q0,1.38.28,1.83c.2-.19.4-.38.59-.55.64-.09,1.31.24,1.91-.25-.17-.19-.33-.39-.51-.59,0-.16-.02-.34-.03-.54.18-.19.37-.4.56-.6,0-.18,0-.36,0-.55ZM130.61,36.77c.13.06.26,0,.36-.19.01-.02-.11-.13-.18-.18-.12-.07-.25,0-.36.19-.02.02.11.12.18.18ZM132.01,23.03c-.06-.06-.12-.17-.19-.18-.18-.03-.36-.02-.54,0-.08,0-.15.1-.19.17-.03.05-.04.13-.02.19.12.29.74.3.92.01.03-.05.02-.13.02-.19ZM132.41,48.64h-.59c-.32.27-.38.59-.17.95.1.18.28.17.49.18.43.03.45.05.51.47.03.19.02.36.15.5.14.14.26.11.41-.13v-1.11c-.17-.18-.35-.38-.55-.85.27,0,.54.01.81,0,.07,0,.13-.1.2-.16.23-.6.09-1.21.09-1.82-.25-.22-.49-.19-.53.07-.03.17,0,.35,0,.5-.2.21-.39.41-.56.59,0,.28,0,.55-.26.82ZM132.48,32.28c.06-.06.19-.16.18-.18-.11-.2-.24-.26-.36-.19-.08.04-.19.16-.18.18.11.2.24.26.36.19ZM132.48,55.28c.06-.06.19-.16.18-.18-.11-.2-.24-.26-.36-.19-.07.05-.19.16-.18.18.11.19.24.25.36.19ZM132.38,20.59c-.06.06-.14.12-.18.19-.07.12,0,.26.19.36.02.01.13-.11.18-.18.08-.12,0-.25-.18-.37ZM132.2,33.87c.06.06.16.19.18.18.2-.11.26-.24.19-.36-.05-.07-.16-.19-.18-.18-.19.11-.25.24-.19.36ZM133.03,22.37c-.06,0-.14-.01-.19.02-.28.19-.27.8.01.92.05.02.14.02.19-.01.28-.19.27-.8-.01-.93ZM133.23,52.85c-.06-.06-.12-.14-.19-.19-.12-.08-.25,0-.36.19-.01.02.11.13.18.18.12.08.24,0,.37-.18ZM133.79,38.82c-.06-.06-.12-.14-.19-.19-.12-.08-.25,0-.36.19-.01.02.11.13.18.18.12.07.24,0,.37-.18ZM134.36,54.25c.09,0,.19.02.27,0,.08-.03.15-.11.19-.19.07-.12,0-.26-.21-.36-.07-.03-.18.01-.27,0-.21-.05-.37,0-.46.19-.1.19.13.37.48.37Z"/>
      <path class="cls-9" d="M177.18,58.49c-.38.32-.59.26-.63.05-.07-.35-.09-.72-.09-1.08,0-1.2,0-2.4,0-3.49.23-.23.37-.37.53-.53-.16-.19-.33-.38-.51-.6v-3.9c.16-.18.35-.38.54-.59v-.54c-.19-.2-.37-.4-.56-.61,0-2.42,0-4.84,0-7.26,0-.07-.12-.13-.2-.2-.58.28-.88.87-1.43,1.23-.02.37-.03.73-.05,1.17-.13.15-.29.36-.51.62v1.03c-.19.22-.37.42-.56.64,0,.16-.02.34-.03.55-.37.38-.75.78-1.12,1.17,0,.2-.02.38-.03.54-.19.22-.37.42-.56.64v1.07c-.36.36-.69.69-1.02,1.02-.13.59-.19.75-.61,1.18v1.08c-.39.4-.77.8-1.15,1.21v1.09c-.2.22-.38.42-.55.61-.02.21-.03.39-.05.57-.41.27-.58.67-.59,1.07-.28.33-.53.6-.75.86h-1.14c-.23.2-.43.38-.61.55-.76-.06-.73-.07-.82-.82-.02-.21-.36-.38-.53-.6-.05-.06,0-.18,0-.27.26,0,.52,0,.78,0,.07,0,.14-.08.2-.14.04-.05.1-.14.08-.18-.03-.08-.1-.16-.18-.18-.6-.15-.77-.05-.89.51-.21.07-.42,0-.47-.2-.08-.35-.08-.72-.13-1.18-.11-.13-.28-.34-.48-.57.15-.18.32-.37.5-.57-.37-.39-.74-.78-1.09-1.15-.02-.22-.03-.4-.05-.58-.53-.53-1.05-1.05-1.58-1.58.05-.51-.21-.86-.6-1.16v-1.1c-.39-.41-.77-.81-1.13-1.19-.02-.21-.03-.4-.04-.57-.33-.33-.66-.66-1.01-1.01-.05-.43-.17-.84-.56-1.15-.1-.08-.05-.34-.09-.7-.32-.25-.76-.6-1.1-.87v-.71c-.19-.21-.38-.41-.58-.62v-1.09c-.08-.08-.14-.17-.22-.21-.32-.17-.89.04-.89.32,0,.74,0,1.47,0,2.15.19.19.33.33.46.46.03.08.1.16.1.24,0,1.03,0,2.05,0,3.08,0,.08-.06.16-.08.24-.13.13-.26.26-.44.44.15.19.31.38.5.61v13.47c-.32.32-.72.71-1.09,1.11-.05.05,0,.18,0,.4.02.05.03-.1,0-.11-.18-.07-.32,0-.44.14-.11.14-.1.24.11.35.04.02.13-.03.17-.07.06-.05.13-.11.15-.31.1-.13.21-.16.28-.12.26.16.32.43.28.72-.03.25-.2.35-.6.4-.09,0-.18.02-.24.03-.22.19-.42.37-.57.5h-7.27c-.31-.3-.58-.56-.84-.8v-1.69c.19-.21.38-.41.57-.62v-7.79c.19-.22.35-.41.51-.61-.16-.16-.29-.29-.43-.43-.13-2.44-.13-5.95,0-8.6q.31-.19.76-.2c.26-.26.53-.53.79-.79-.12-.11-.22-.27-.35-.31-.16-.04-.37,0-.52.07-.16.08-.26.26-.41.38-.04.03-.14.02-.19-.02-.07-.05-.17-.13-.17-.2-.01-.74,0-1.49,0-2.19.2-.23.37-.42.53-.61-.35-.35-.69-.69-1.02-1.02-.14-.55-.05-1.1-.08-1.69.15-.18.33-.39.54-.63v-1.61c.19-.21.38-.42.58-.63v-.55c-.21-.48-.9-.09-1.11-.57v-1.11c.2-.22.38-.43.56-.61-.02-.21-.04-.39-.05-.56-.13-.13-.26-.26-.42-.42-.16-.41-.15-.86,0-1.29.07-.21.26-.27.72-.03.19.05.11-.1,0-.16-.24-.12-.35,0-.24.23.06.11.21.19.33.25.02.01.17-.14-.09-.33-.25-1.01-.25-1.85-.25-2.68.19-.2.36-.4.53-.58-.19-.22-.37-.42-.53-.6-.01-.32-.02-.59.26-.77.19.18.4.35.59.53.46-.72.39-.96-.35-1.11-.45-.09-.46-.08-.5-.81.18-.19.36-.39.56-.61v-.54c-.19-.2-.37-.4-.55-.58v-1.1c.19-.22.35-.41.52-.6-.36-.35-.69-.69-1.02-1.02-.14-.54-.05-1.1-.08-1.69.15-.18.33-.39.53-.61-.16-.18-.33-.37-.52-.58v-.54c.32-.51.83-.21,1.34-.3.15-.13.36-.29.61-.5.17.14.36.31.57.48.3.04.65.13.79-.26-.14-.28-.55-.35-.38-.66.16-.29.51-.22.72-.13.25.12.43.35.65.54h6.11c.16.16.29.29.46.46.4.04.84.09,1.27.14.44.41.03.92.37,1.51.03.03.22.23.39.42.01.2.02.39.03.54.19.22.37.42.56.64v1.03c.22.37.52.25.77.28.43.19.23.66.42.94.15.22.48.34.45.65-.04.45.3.64.54.9.01.18.02.36.04.56.18.19.36.39.56.6v.54c.19.21.38.41.56.6,0,.2.02.38.03.53.19.23.5.44.5.66.02.42.24.65.47.94.15.19.15.49.21.75.64.34.44.95.47,1.49.14.41.77.59.53,1.25.47.4.97.81,1.64,1.38,0,0,.28,0,.55,0,.46.02.68-.18.65-.64-.01-.19.07-.34.25-.45.35-.23.3-.62.35-.91.57-.57,1.1-1.1,1.63-1.63-.18-.2-.35-.4-.52-.59.18-.2.37-.41.53-.59.02-.21.04-.39.05-.57.13-.13.26-.26.4-.4.04-.17.08-.34.11-.51.04-.27.02-.55.09-.8.06-.21.25-.27.47-.2-.06.2,0,.37.17.45.15.07.31.09.47.11.18.02.37-.05.4-.24.02-.08-.16-.29-.27-.31-.25-.05-.52-.02-.78-.02v-.84c.26-.26.53-.53.79-.79.29-.11.72.09.83-.38q-.66-.72-.19-1.36h.54c.56-.56.17-1.25.28-1.91.15-.18.33-.38.52-.6,0-.16.02-.35.03-.54.18-.19.37-.39.56-.6v-.52c.21-.51.92-.07,1.07-.63-.14-.18-.5-.32-.42-.57.09-.33.47-.19.73-.22.2-.19.4-.37.6-.55h1.65c.22.19.41.35.6.52.16-.16.29-.29.48-.48.94-.15,1.95.02,2.88-.08.19-.19.33-.33.5-.5h1.14c.13.11.34.29.59.5h2.15c.16.14.31.25.44.37.7.69.69.79-.04,1.58.16.19.33.38.51.6v1.08c-.18.52-.89.09-1.08.61.17.19.35.39.55.6v2.77c.15.15.28.28.42.42.17,2.1.19,7.89.06,11.97-.13.13-.26.26-.4.4-.03.08-.09.16-.09.24,0,1.78,0,3.55,0,5.33-.09.44-.77.59-.54,1.24.14.16.32.36.52.59v14.53c.19.21.38.41.57.62v4.47c-.19.2-.38.4-.56.6,0,.2-.02.38-.03.52-.48.48-.94.94-1.41,1.41h-.52c-.22-.2-.42-.38-.59-.53h-4.49c-.15.15-.27.32-.42.41-.14.08-.34.14-.5.11-.16-.02-.33-.14-.44-.27-.2-.23-.45-.26-.73-.29-.14-.02-.27-.2-.4-.31.02-.74.03-.71.8-.82.2-.03.38-.35.59-.52.19-.15.27-.27.2-.4-.11-.19-.27-.24-.48-.19-.09.02-.18.01-.25.02-.21.18-.4.35-.59.52-.09-.09-.21-.15-.21-.22-.02-.37,0-.74,0-1.16.15-.16.34-.36.53-.56,0-.27,0-.55.17-1.08.05-.18-.1-.11-.16,0-.12.23,0,.35.23.23.11-.06.19-.21.25-.33.01-.02-.14-.17-.33.09ZM145.98,36.96c-.13-.06-.26,0-.36.19-.01.02.11.13.18.18.12.08.25,0,.36-.19.01-.02-.12-.12-.18-.18ZM146.54,16.2c-.13-.06-.26,0-.36.19-.01.02.11.13.18.18.12.07.25,0,.36-.19.02-.02-.11-.12-.18-.18ZM146.82,43.97c.06.06.16.19.18.18.2-.11.26-.24.19-.36-.05-.07-.16-.19-.18-.18-.19.11-.25.24-.19.36ZM148.69,27.89c.4-.38.4-.75,0-1.12-.4.38-.4.75,0,1.12ZM148.41,29.85c.07.07.12.15.19.19.13.07.25-.02.36-.22v-1.09c-.07-.07-.12-.15-.19-.19-.13-.07-.26.02-.36.22v1.09ZM162.43,34.9v1.12c.23.47.92.08,1.12.61,0,.18-.02.36-.03.55q-.5.54-.26.8h.55c.19-.18.4-.36.59-.55.26-.03.57.1.76-.22.02-.07.06-.15.07-.24,0-.19,0-.37,0-.56,0-.51-.14-.64-.62-.67-.35-.02-.75.14-1.03-.25.17-.19.34-.39.53-.59v-1.08c.23-.5.92-.11,1.13-.62q-.01-.44-.22-.75c-.08-.02-.17-.06-.25-.06-.19,0-.37,0-.56,0-.5,0-.64.14-.65.63,0,.27,0,.55,0,.77-.31.31-.58.58-1.12.84v-1.41c-.26-.25-.52-.51-.8-.77-.48.03-.85-.2-1.15-.62h-1.08c-.19,0-.38.03-.56,0-.21-.05-.33-.23-.25-.34.15-.22.45-.35.47-.64.01-.29.06-.53.34-.7h.45c.39-.17.35-.46.35-.74-.24-.38-.55-.71-.95-.94q-2.45,0-2.97.27v.57c.2.48.88.1,1.11.58v1.67q-.59.41-1.11-.03v-.55q.52-.56.27-.83c-.34,0-.71.03-1.07-.01-.21-.02-.28-.2-.25-.35.13-.13.26-.26.4-.4-.14-.43-.5-.66-.84-.93-.28,0-.56.02-.74-.27.18-.19.37-.37.53-.58.04-.06,0-.18,0-.27.2.06.37,0,.45-.18.2-.41.11-.84.05-1.27,0-.07-.16-.19-.17-.18-.12.08-.31.19-.32.3-.04.44-.02.89-.02,1.33-.21.07-.37,0-.48-.19-.16-.29.03-.73-.38-.9-.2.18-.4.36-.58.53-.3,0-.59.04-.78-.27v-1.06c-.19-.21-.37-.41-.56-.61.18-.19.36-.39.54-.58,0-.46,0-.93.34-1.89-.12.07-.27.14-.33.25-.12.23,0,.35.24.23.11-.06.19-.21.25-.33.01-.02-.14-.17-.5.34h-.85c-.25.26-.51.52-.78.8-.02.16-.04.34-.08.69-.32.26-.76.6-1.1.87v.72c.22.47.9.08,1.09.57-.19.2-.37.41-.54.6.05.72.05.72.5.8.63.12.66.14.55.91l-.99.99c-.12.86-.04.94.75.88.5-.48.97-.92,1.43-1.36v-.58q.61-.4,1.12.06c0,.18-.02.36-.03.52-.19.22-.37.42-.5.57v1.1c.21.25.39.46.52.62.12.67-.29,1.36.29,1.9h.56c.48-.21.09-.89.58-1.1.4.34.67.82,1.16,1.03.22-.18.42-.35.61-.5.4.02.77.03,1.06.05.19.19.33.33.45.45.63.1,1.25.17,1.87-.05.13-.13.26-.26.39-.39.47.13.27.56.38.82.28.28.53.55.79.81.3,0,.57,0,.85.28ZM150.56,44.91c-.06-.06-.12-.17-.19-.18-.18-.03-.36-.02-.54,0-.07,0-.15.1-.19.17-.03.05-.04.14-.02.19.12.29.74.3.92.01.03-.05.02-.13.02-.19ZM151.78,33.8c0,.31-.03.68.01,1.05.03.21.21.3.35.24.08-.03.19-.13.19-.19.01-.75.01-1.49,0-2.24,0-.07-.13-.13-.25-.25-.38,0-.82-.14-1.24.07-.41.41-.81.81-1.2,1.21-.03.03-.03.14,0,.19.05.08.13.17.2.18.18.02.37,0,.52,0,.23-.21.43-.39.62-.56.3,0,.59-.04.8.3ZM151.22,31.53c-.38-.4-.75-.4-1.12,0,.37.4.75.4,1.12,0ZM151.03,35.27c-.13-.06-.26,0-.36.19-.01.02.11.13.18.18.12.07.25,0,.36-.19.01-.02-.11-.12-.18-.18ZM151.12,19.29c.06-.13,0-.26-.19-.36-.02-.01-.13.11-.18.18-.08.12,0,.25.19.36.02.01.12-.11.18-.18ZM154.02,24.8c0-.09-.02-.18,0-.27.05-.21,0-.36-.18-.47-.13-.08-.24-.01-.39.17-.17.2-.38.37-.58.56.4.42.77.41,1.14.02ZM154.02,36.02c-.37-.4-.74-.4-1.12,0,.04.29-.17.7.35.77.26-.26.51-.51.77-.77ZM153.93,21.35c-.06-.06-.12-.17-.19-.18-.18-.03-.36-.02-.54,0-.07,0-.15.1-.19.17-.03.05-.04.14-.02.19.12.28.73.29.92.01.03-.04.02-.12.02-.19ZM154.49,20.22c-.06-.06-.16-.19-.18-.18-.2.11-.26.24-.19.36.05.07.16.19.18.18.19-.11.25-.24.19-.36ZM155.7,23.12c0-.09-.02-.19,0-.27.05-.21,0-.36-.18-.46-.13-.08-.24,0-.39.18-.18.2-.39.36-.61.56.44.37.81.42,1.18,0ZM155.52,15.08c-.13-.06-.26,0-.36.19-.01.02.11.13.18.18.12.08.25,0,.36-.19.01-.02-.12-.12-.18-.18ZM156.17,25.46c.06-.13,0-.26-.19-.36-.02-.01-.13.11-.18.18-.08.12,0,.25.19.36.02.01.12-.11.18-.18ZM156.26,27.07c0,.09.02.19,0,.27-.05.21,0,.36.19.46.12.06.24-.02.38-.2.17-.2.35-.38.54-.57-.58-.38-.58-.38-1.11.04ZM158.42,34.43c.06-.13,0-.26-.19-.36-.02-.01-.13.11-.18.18-.08.12,0,.25.19.36.02.01.12-.11.18-.18ZM160,34.71c-.13-.06-.26,0-.36.19-.01.02.11.13.18.18.12.07.25,0,.36-.19.01-.02-.11-.12-.18-.18ZM162.43,39.39c-.38-.4-.75-.4-1.12,0,.38.4.75.4,1.12,0ZM162.8,44.07c.06-.06.17-.12.18-.19.03-.18.02-.36,0-.54,0-.07-.1-.15-.17-.19-.05-.03-.13-.04-.19-.02-.28.12-.29.73-.01.92.04.03.12.01.19.02ZM162.43,41.07c.57.4.57.4,1.12-.01v-.55c-.57-.4-.57-.4-1.12.01v.55ZM163.56,45.83c0-.09.03-.19,0-.27-.03-.08-.11-.15-.19-.19-.12-.07-.26,0-.36.21-.03.07.01.18,0,.27-.05.21,0,.37.19.46.19.1.37-.13.37-.48ZM164.4,45.28c.09,0,.19-.02.27,0,.21.05.36,0,.47-.18.08-.13.01-.23-.17-.39-.2-.17-.37-.38-.56-.58-.42.4-.42.77-.02,1.14ZM165.24,41.63q-.57-.37-1.12.01v.55c.57.4.57.4,1.12-.01v-.55ZM167.29,40.14c.06-.06.17-.12.18-.19.03-.18.02-.36,0-.54,0-.07-.1-.15-.17-.19-.05-.03-.13-.04-.19-.02-.28.12-.29.73-.01.92.05.03.13.01.19.02ZM166.92,44.43v.55q.55.41,1.12.01v-.55c-.55-.4-.55-.4-1.12-.01ZM167.95,34.99c0-.06.01-.14-.02-.19-.19-.28-.8-.27-.92.01-.02.05-.02.14.01.19.19.28.8.27.93-.01ZM167.95,37.23c0-.06.01-.14-.02-.19-.19-.29-.8-.28-.92.01-.02.05-.02.14.01.19.19.29.8.27.93-.01ZM167.74,34.04c.06-.05.13-.1.19-.15.07-.06.14-.12.19-.19.13-.19.48-.29.38-.56-.12-.33-.46-.16-.71-.2-.42.53-.42.54-.05,1.1ZM167.95,42.28c.06-.13,0-.26-.19-.36-.02-.01-.13.11-.18.18-.08.12,0,.25.19.36.02.01.12-.11.18-.18ZM169.54,28.92c.06-.06.19-.16.18-.18-.11-.2-.24-.26-.36-.19-.07.05-.19.16-.18.18.11.19.24.25.36.19ZM170.03,26.79c.24-.25.52-.49.71-.78.21-.32.15-.66-.21-.94-.24.25-.52.49-.71.78-.21.32-.14.66.21.94ZM173.1,32.93c-.09,0-.19-.03-.27,0-.2.1-.28.24-.21.36.04.08.11.15.19.19.08.03.18,0,.27,0,.35,0,.58-.18.48-.37-.1-.19-.25-.25-.46-.19ZM177.02,30.13h.82l.58.56c.07-.07.17-.12.19-.19.13-.66.14-.76,0-1.29-.06-.2-.25-.25-.46-.19,0-.18,0-.35,0-.53,0-.32-.18-.59-.38-.59-.62,0-1.25,0-1.81-.01-.2-.32.16-.74-.4-1.12-.34.25-.94-.33-1.35.33.02.26-.08.56.26.77.18-.15.37-.32.56-.48.32.1.41.61.86.52.07.21,0,.39-.19.47-.24.09-.54.07-.74.21-.37.25-.15.67-.18,1.02-.03.37,0,.74-.01,1.36.02-.08.03-.23,0-.24-.18-.07-.32,0-.44.14-.11.14-.1.24.11.35.04.02.13-.03.17-.07.06-.05.13-.11.16-.43h.82c.2.19.4.37.59.56.28,0,.55,0,1.32.34-.07-.12-.14-.27-.25-.33-.24-.12-.35,0-.24.24.06.11.21.19.33.25.02.01.17-.14-.34-.5v-1.12ZM175.89,15.8c.02-.08.03-.23,0-.24-.18-.07-.32,0-.44.14-.11.14-.1.24.11.35.04.02.13-.03.17-.07.06-.05.13-.11.5-.93-.12.07-.27.14-.33.25-.12.23,0,.35.24.23.11-.06.19-.21.25-.33.01-.02-.14-.17-.5.59ZM175.8,25.46c.06-.13,0-.26-.19-.36-.02-.01-.13.11-.18.18-.08.12,0,.25.19.36.02.01.12-.11.18-.18ZM177.21,34.66c-.07.09-.14.18-.2.26.38.17.77.34,1.14.5v.58c.37.41.75.41,1.12,0v-.55c-.33-.29-.55-.71-.86-.81h-1.19ZM177.02,23.12c.37.4.74.4,1.14-.02-.09-.26.17-.69-.37-.75-.26.26-.51.51-.77.77ZM179.54,18.35h-.53c-.25.16-.26.41-.33.67-.07.29-.3.54-.45.79.26.28.5.54.79.84.31-.44.26-1.02.7-1.39.27-.23.14-.65-.18-.91ZM180.94,29.01c-.45.08-.55-.4-.87-.54-.43.35-.26.83-.23,1.26.02.22.29.43.57.81.14.26-.35.9.27,1.26l1.36-1.36c-.02-.3.19-.7-.34-.78-.07.07-.14.13-.19.2-.13.19-.26.26-.39.19-.18-.11-.22-.26-.19-.47.03-.18,0-.36,0-.55.26,0,.52,0,.78,0,.07,0,.14-.08.2-.14.04-.05.1-.14.08-.18-.03-.08-.1-.16-.18-.18-.6-.15-.77-.05-.89.51ZM180.63,38.57c.35-.29.42-.62.21-.95-.19-.29-.47-.52-.71-.78-.35.29-.42.62-.21.95.19.29.47.52.71.78ZM179.82,24.24c.57.4.57.4,1.12-.01v-.55q-.57-.37-1.12.01v.55ZM180.94,36.02c.57.4.57.4,1.12-.01v-.55c-.57-.4-.57-.4-1.12.01v.55ZM181.78,46.4c.4-.37.4-.74,0-1.12-.06.06-.13.12-.19.18-.07.06-.14.12-.19.19-.12.19-.49.27-.35.56.14.3.47.15.72.18ZM182.34,21.2c-.33.31-.58.55-.84.79.18.26.43.29.7.3.28.02.41.3.61.45.11.09.29.02.36-.19.06-.16.01-.35.01-.57-.24-.22-.5-.46-.85-.78ZM182.91,36.86c-.4.38-.4.75,0,1.12.4-.37.4-.75,0-1.12Z"/>
      <path class="cls-9" d="M200.86,20.76c-.25-.45-.25-.73-.25-.99.21-.41.69-.18.95-.42.28-.25.53-.52.8-.79.2-.2.4-.4.6-.6.6-.6,1.19-1.19,1.8-1.8.43-.07.91-.08,1.08-.57.24-.02.43-.03.63-.05.19-.17.39-.35.61-.55h2.2c.5-.23.12-.92.6-1.12h.56c.19.12.24.28.28.46.14.66.15.65.63.65.27,0,.55,0,.77,0-.21.21.46.02.28-.27-.29-.45-.9-.11-1.11-.59v-.55c.28-.32.61-.39.96-.15.15.1.27.26.4.39.18.02.36.03.56.04.19-.18.4-.36.61-.56h2.22c.19.18.39.36.58.53.2-.17.4-.34.58-.5.23.13.3.29.26.49-.05.21,0,.38.18.49.13.08.23-.02.4-.17.5-.43.76-.4,1.15.04.06.07.13.13.22.22h1.65c.21.19.41.38.63.58h1.09c.21.19.41.38.61.56.19,0,.38.02.56.03.33.33.66.66.97.97.29.24.79-.05.99.65,0,.03-.14.4.19.5.25.08.38-.31.6-.41.07-.03.24.21.39.3.44.27.47.73.56,1.14.42.37.92.08,1.27.19.52.5.99.95,1.45,1.39v.57c.34.34.67.67,1,1,.07.25.13.5.2.76l.99.99c.02.18.03.36.05.57.17.19.35.39.55.61v1.64c.17.28.42.31.71.34.15.01.28.19.43.3v1.08c.2.22.38.43.58.64v1.64c.16.16.29.29.45.46.2.69.03,1.43.08,2.16.04.64-.08,1.29.08,1.92.13.13.27.27.4.4.03.08.08.16.08.25,0,2.52,0,5.05,0,7.62-.15.18-.32.38-.54.63v3.29c-.19.22-.38.42-.58.64v1.08c-.19.21-.38.41-.58.63v1.1c-.27.27-.54.54-.8.8-.09,0-.18.02-.27.03-.56.05-.8.48-.52.92.1.15.26.27.43.44-.15.19-.31.37-.48.58-.01.15-.03.33-.06.64-.41.36-.91.78-1.53,1.32-.71.17-.75.08-.7.93,0,.09,0,.19,0,.28,0,.09-.03.17-.05.26-.66.65-1.31,1.31-1.9,1.89-.29.04-.47.06-.65.09-.53.53-1.06,1.06-1.59,1.59-.18,0-.37.02-.56.03-.4.38-.79.76-1.2,1.14h-1.12c-.26.45-.69.56-1.15.61-.34.63-.94.46-1.54.49-.17.14-.38.32-.64.53h-2.16c-.22.19-.42.38-.65.58h-5.03c-.19-.17-.39-.36-.59-.55h-2.23c-.24-.28-.24-.28.05-.6.06-.07.13-.13.2-.2-.12-.11-.22-.27-.35-.3-.16-.04-.37,0-.52.07-.16.08-.25.29-.41.37-.15.08-.34.09-.52.09-.08,0-.2-.04-.23-.11-.28-.57-1.05-.29-1.36-.79-.05-.08-.13-.14-.21-.21h-.53c-.21-.2-.42-.39-.63-.58h-.53c-.22-.2-.42-.38-.61-.55-.21-.02-.39-.03-.57-.05-1.19-1.19-2.38-2.38-3.57-3.57-.01-.18-.02-.36-.03-.57-.37-.39-.75-.79-1.12-1.18-.01-.2-.02-.39-.03-.57-.4-.28-.6-.66-.59-1.15l-.99-.99c.02-.5-.2-.87-.61-1.16v-1.1c-.19-.21-.38-.41-.58-.62v-1.1c-.19-.21-.38-.41-.58-.62v-1.65c-.15-.15-.28-.28-.41-.41-.04-.07-.12-.15-.12-.23,0-.74,0-1.48,0-2.09.25-.44.56-.31.86-.34.23-.25.49-.52.75-.8-.08-.09-.17-.26-.29-.3-.16-.04-.38-.02-.53.05-.16.08-.25.28-.4.38-.35.22-.68.16-.94-.17v-1.66c.22-.49.9-.09,1.09-.61-.34-.34-.67-.67-1.02-1.02-.16-.71-.03-1.45-.07-2.18-.01-.23.19-.38.59-.4.2-.01.36-.04.49-.27-.16-.18-.32-.37-.51-.59v-1.1c.17-.18.36-.39.55-.58v-.54c-.2-.21-.38-.42-.54-.58v-1.13c.29-.29.55-.55.82-.82.18,0,.37.02.55,0,.08-.01.16-.11.2-.19.07-.13-.01-.29-.23-.36-.25-.07-.57.1-.74-.29.14-.16.3-.35.49-.57v-1.05c.22-.53.91-.14,1.12-.62-.19-.21-.37-.41-.55-.6.05-.73.05-.76.51-.79.2-.02.36-.02.5-.17.11-.13.13-.12-.36-.6-.02-.38.53-.45.47-.85-.07-.46.33-.62.55-.91v-.63c.23-.21.51-.45.78-.71.27-.26.54-.51.79-.79.24-.27,0-.74.42-.95.26,0,.54,0,1.07.17.19.05.11-.1,0-.16-.23-.12-.35,0-.23.23.06.11.21.19.33.25.02.01.17-.14-.09-.33ZM194.54,37.61c-.06.13,0,.26.19.36.02.01.13-.11.18-.18.07-.12,0-.25-.19-.36-.02-.02-.12.11-.18.18ZM198.38,40.23c.09,0,.19.02.27,0,.08-.03.15-.11.19-.19.07-.12,0-.26-.21-.36-.07-.03-.18.01-.27,0-.21-.05-.37,0-.46.19-.09.19.13.37.48.37ZM198.37,47.26c0,.09.02.19,0,.27-.05.21,0,.36.19.46.12.06.24-.02.38-.2.17-.2.35-.38.54-.57-.58-.38-.58-.38-1.11.04ZM199.49,44.34c-.14-.11-.36-.27-.55-.46-.16-.17-.26-.25-.39-.18-.18.11-.21.26-.19.47.03.27,0,.54,0,.82.54.41.55.41,1.12.02v-.66ZM200.46,39.66c-.45.37-.74.61-.97.8-.02.27.02.48-.05.63-.11.22-.29.4-.45.6.19.3.49.19.75.22.2-.19.41-.38.62-.57h.54c.27-.27.54-.54.8-.8,0-.18.02-.36.03-.55-.29-.56-.81-.26-1.27-.33ZM200.05,35.75c0-.09.03-.19,0-.27-.1-.2-.24-.28-.36-.21-.08.04-.15.11-.19.19-.03.08,0,.18,0,.27,0,.35.18.58.37.48.19-.1.25-.25.19-.46ZM199.96,48.45c.06-.13,0-.26-.19-.36-.02-.01-.13.11-.18.18-.08.12,0,.25.19.36.02.01.12-.11.18-.18ZM201.55,44.25c-.13-.06-.26,0-.36.19-.01.02.11.13.18.18.12.07.25,0,.36-.19.01-.02-.12-.12-.18-.18ZM201.2,48.35c.21.48.93.1,1.07.58.07.23.03.37.3.26.08-.03.15-.11.19-.19.13-.25.15-.51-.01-.75-.15-.21-.33-.4-.44-.54-.08-.52.2-1.03-.34-1.33-.26.02-.56-.08-.76.26.15.18.31.37.49.57,0,.16.02.34.03.54-.17.19-.36.39.56,1.44-.26,0-.52,0-.78,0-.07,0-.14.08-.2.14-.04.05-.1.14-.08.18.03.07.1.16.18.18.6.15.77.05-.21-1.36ZM202.58,35.74h-.55q-.38.55-.01,1.12h.55c.41-.55.41-.55.01-1.12ZM202.31,41.91c.09,0,.19.02.27,0,.08-.03.15-.11.19-.19.07-.12,0-.26-.21-.36-.07-.03-.18.01-.27,0-.21-.05-.37,0-.46.19-.1.19.13.37.48.37ZM203.12,29.57c.12,0,.21-.02.3,0,.21.05.36,0,.46-.19.07-.13,0-.24-.18-.38-.2-.17-.36-.38-.55-.58-.29.38-.72.57-.88,1.1.07.17.17.4.28.67.23-.24.41-.44.57-.62ZM203.43,20.59c.09,0,.19.03.27,0,.08-.03.15-.11.19-.19.07-.12,0-.26-.21-.36-.07-.03-.18.01-.27,0-.21-.05-.37,0-.46.19-.1.19.13.37.48.37ZM204.54,23.12c0-.09-.02-.19,0-.27.05-.21,0-.36-.18-.46-.13-.08-.24,0-.39.18-.18.2-.39.36-.61.56.44.37.81.42,1.18,0ZM203.42,30.98c0,.09.02.19,0,.27-.05.21,0,.36.18.46.13.08.24,0,.39-.18.18-.2.39-.36.59-.53-.42-.43-.79-.43-1.15-.02ZM204.27,55.93c.27,0,.55-.02.82,0,.21.02.36,0,.47-.18.08-.13,0-.24-.17-.39-.2-.18-.36-.4-.5-.55h-.63q-.39.57.02,1.12ZM205.1,17.78c0-.09.03-.19,0-.27-.03-.08-.11-.15-.19-.19-.12-.07-.26,0-.36.21-.03.07.01.18,0,.27-.05.21,0,.37.19.46.19.1.37-.13.37-.48ZM206.23,23.4c.09,0,.19.03.27,0,.08-.03.15-.11.19-.19.07-.12,0-.26-.21-.36-.07-.03-.18.01-.27,0-.21-.05-.37,0-.46.19-.1.19.13.37.48.37ZM220.74,51.22c-.07-.12-.14-.27-.25-.33-.24-.12-.35,0-.24.23.06.11.21.19.33.25.02.01.17-.14-.34-.5,0-.09-.04-.22,0-.27.17-.21.37-.4.55-.59,0-.2.02-.38.03-.56.53-.53,1.05-1.05,1.59-1.59.13-.72,0-1.46.07-2.19.03-.29.27-.45.6-.4.2.03.35-.04.46-.23-.03-.07-.05-.14-.1-.19-.13-.14-.26-.27-.4-.41v-.55c.18-.19.36-.4.55-.6v-3.9c.19-.2.36-.4.53-.58-.19-.22-.37-.42-.54-.61.07-.73.08-.74.53-.78.09,0,.2.03.28,0,.21-.09.29-.23.22-.36-.04-.07-.12-.17-.2-.19-.26-.05-.57.1-.76-.23-.22-.97.09-1.99-.15-2.94-.17-.17-.3-.3-.43-.43-.19-.61.13-1.28-.19-1.88-.13-.13-.26-.26-.41-.41v-1.09c-.19-.21-.38-.41-.57-.61,0-.27,0-.55.34-1.33-.12.07-.27.14-.33.25-.12.24,0,.35.23.24.11-.06.19-.21.25-.33.01-.02-.14-.17-.5.34-.09,0-.23.04-.27,0-.73-.72-1.46-1.45-2.18-2.17-.49.02-.87-.19-1.15-.59-.18-.01-.36-.02-.57-.03-.19-.18-.39-.36-.6-.56h-3.91c-.2.19-.4.38-.61.57h-1.09c-1.2,1.2-2.39,2.39-3.58,3.58.04.51-.21.86-.61,1.16v1.66c-.19.21-.38.41-.58.61v1.1c-.19.21-.38.41-.54.59v7.27c.2.23.39.44.58.65v2.15c.22.26.39.47.53.64.02.6-.14,1.2.49,1.54.05.46.16.89.61,1.15v1.09c.14.16.25.31.38.44.33.33.66.66.99.99.26.26.55.51.79.8.23.27,0,.74.43.95h.52c.21.19.41.38.6.56.2.02.39.03.54.04.22.19.42.37.57.49h3.94c.17-.17.28-.36.43-.42.42-.14.85-.2,1.16-.6.35-.44.77-.81,1.18-1.19.04-.04.18,0,.77.33ZM207.26,57.25c-.06-.06-.12-.17-.19-.18-.18-.03-.36-.02-.54,0-.07,0-.15.1-.19.17-.03.05-.04.14-.02.19.12.28.73.29.92.01.03-.05.02-.13.02-.19ZM207.16,52.1c-.13-.06-.26,0-.36.19-.01.02.11.13.18.18.12.08.25,0,.36-.19.01-.02-.11-.12-.18-.18ZM207.72,49.11c.06-.06.19-.16.18-.18-.11-.2-.24-.26-.36-.19-.07.05-.19.16-.18.18.11.19.24.25.36.19ZM208.71,15.51c-.18.2-.33.42-.53.59-.17.15-.25.26-.18.39.19.29.48.15.73.18.41-.36.41-.74-.03-1.16ZM209.59,56.21c.38.4.75.4,1.12,0-.37-.4-.75-.4-1.12,0ZM211.18,59.67c0-.06.01-.14-.02-.19-.19-.29-.8-.28-.92.01-.02.05-.02.14.01.19.19.28.79.27.93-.01ZM210.99,18.35c-.24.17-.3.42-.29.7.02.34-.09.73.31,1,.11-.13.23-.26.35-.39.06-.07.13-.13.19-.19.38-.4.37-.55-.02-1.11-.18,0-.36,0-.54,0ZM212.77,62.76c-.13-.06-.26,0-.36.19-.01.02.11.13.18.18.12.07.25,0,.36-.19.01-.02-.11-.12-.18-.18ZM213.8,58.74c.4-.38.4-.75,0-1.12-.4.37-.4.75,0,1.12ZM215.21,20.59c-.09,0-.19-.03-.27,0-.2.1-.28.24-.21.36.04.08.11.15.19.19.08.03.18,0,.27,0,.35,0,.58-.18.48-.37-.1-.19-.25-.25-.46-.19ZM216.79,54.62c.06-.13,0-.26-.19-.36-.02-.01-.13.11-.18.18-.08.12,0,.25.19.36.02.01.12-.11.18-.18ZM219.4,19.48c-.4.58-.4.59.04,1.13h.52c.22.2.42.38.61.55.12,0,.21,0,.3,0,.41.05.47.13.5.49.03.32-.1.55-.37.63-.08.02-.19,0-.28,0-.19,0-.38.06-.43.26-.02.07.22.28.34.29.54.03,1.09.02,1.49.02.34-.25.54-.48.77-.54.26-.07.53-.05.71-.31v-1.1c-.64-.45-.65-.46-1.33.2-.4-.09-.58-.71-1.14-.49-.19-.18-.4-.36-.62-.56h-.52c-.21-.19-.41-.38-.61-.57ZM220.62,57.15c-.13-.06-.26,0-.36.19-.01.02.11.13.18.18.12.08.25,0,.36-.19.01-.02-.12-.12-.18-.18ZM221.46,19.1c-.06.13,0,.26.19.36.02.01.13-.11.18-.18.08-.12,0-.25-.19-.36-.02-.01-.12.12-.18.18ZM224.54,22.93c-.13-.06-.26,0-.36.19-.01.02.11.13.18.18.12.07.25,0,.36-.19.02-.02-.11-.12-.18-.18ZM224.73,28.73c-.06-.06-.12-.14-.19-.19-.12-.08-.25,0-.36.19-.01.02.11.13.18.18.12.08.24,0,.37-.18ZM225.77,54.46c-.11-.22-.46-.27-.37-.6.33-.33.65-.65.98-.98-.19-.42-.52-.35-.86-.26-.26.26-.52.52-.78.78v.55c-.19.19-.37.39-.55.58.26.26.52.52.78.78.33-.23.67-.46.8-.87ZM225.66,22.93c-.06,0-.14-.01-.19.02-.29.19-.28.8.01.92.05.02.14.02.19-.01.29-.19.27-.8-.01-.92ZM225.86,27.61c.59.38.72.38,1.12,0,.2-.19.4-.36.56-.5,0-.25.02-.44,0-.61,0-.07-.11-.15-.18-.19-.12-.07-.25.02-.38.2-.17.25-.43.25-.7.28-.14.02-.27.19-.41.29,0,.18,0,.36,0,.54ZM226.04,51.91c.13.06.26,0,.36-.19.01-.02-.11-.13-.18-.18-.12-.07-.25,0-.36.19-.01.02.11.12.18.18ZM225.87,46.1c.05.06.1.13.15.19.06.07.12.14.19.19.19.13.29.48.56.38.33-.12.16-.46.2-.71-.53-.42-.54-.41-1.1-.04ZM227.82,52.57c-.26.34-.7.55-.77.78-.12.5,0,.72.22.9.26-.34.7-.55.77-.78.12-.5,0-.72-.22-.9ZM228.06,33.82c.2.18.42.33.59.53.15.17.26.25.39.18.29-.19.15-.48.18-.73-.36-.41-.74-.41-1.16.03ZM229.22,44.15c-.26,0-.52,0-.78,0-.07,0-.14.08-.2.14-.04.05-.1.14-.08.18.03.08.11.16.18.18.6.15.77.05,1.23-1.01-.12.07-.27.14-.33.25-.12.24,0,.35.24.24.11-.06.19-.21.25-.33,0-.02-.14-.17-.5.34ZM228.19,42.66c-.06.13,0,.26.19.36.02.01.13-.11.18-.18.07-.12,0-.25-.19-.36-.02-.01-.12.11-.18.18ZM229.5,32.93c.09.15.26.29.27.45.03.84,0,1.68.03,2.52,0,.14.2.27.31.4.27-.01.56.07.8-.32,0-.46,0-1.02,0-1.57,0-.26-.09-.55.14-.78.22-.21.52-.08.76-.2.08-.04.17-.12.19-.2.01-.05-.08-.15-.15-.19-.3-.18-.74-.02-.95-.4-.22-.39-.69-.14-.96-.4-.13-.13-.26-.26-.4-.4-.18,0-.36-.02-.55-.03-.46.51-.46.52-.05,1.12.19,0,.37,0,.56,0ZM228.66,41.07c.38.4.75.4,1.12,0-.37-.4-.75-.4-1.12,0ZM229.48,38.52c.06-.05.13-.1.19-.15.07-.06.14-.12.19-.19.13-.19.48-.29.38-.56-.12-.33-.46-.16-.71-.2-.42.53-.41.54-.04,1.1ZM229.22,29.85c.17.24.42.3.7.29.35-.02.73.09.97-.28-.16-.24-.4-.28-.68-.29-.29,0-.42-.3-.62-.45-.11-.08-.29,0-.36.2-.06.16-.01.36-.01.54ZM229.79,46.4c-.09,0-.19-.03-.27,0-.2.1-.28.24-.21.36.04.07.11.15.19.19.08.03.18,0,.27,0,.35,0,.58-.18.48-.37-.09-.19-.25-.25-.46-.19ZM230.81,45.08c0-.06.01-.14-.02-.19-.19-.28-.8-.27-.92.01-.02.05-.02.14.01.19.19.29.8.28.93-.01ZM231.74,36.86c-.4.38-.4.75,0,1.12.4-.37.4-.75,0-1.12Z"/>
      <path class="cls-9" d="M257.66,14.15c1.01-.27,1.57-.27,2.1-.27.21.13.24.29.28.47.15.77.37.83,1.1.37v-.54q.26-.3,1.33-.32c.17.14.38.31.6.49.38-.09.57-.71,1.15-.47.17.16.37.35.57.53.19-.18.4-.37.57-.53h1.1c.22.19.41.35.6.51.16-.16.29-.29.43-.43.62-.11,1.29-.39,1.69.47.25-.21.44-.37.66-.56h5.06c.41.41.87.86,1.32,1.33.21.21.02.83-.3.89-.27.05-.56-.01-.74.28.17.19.35.39.52.58-.19.2-.37.4-.56.61v1.65c-.15.15-.28.28-.41.41-.04.07-.12.15-.12.23-.01.47,0,.93,0,1.4-.09.15-.14.35-.27.44-.36.24-.18.7-.4.96-.22.26-.44.56-.78.7-.2-.14-.31-.5-.59-.41-.34.12-.16.48-.21.74-.14.09-.29.26-.44.26-1.96.02-3.92.01-5.88,0-.08,0-.16-.07-.23-.11-.13-.13-.26-.26-.45-.45-.6,0-1.24.01-1.89,0-.46-.01-.67.2-.64.65,0,.19-.08.34-.26.45-.37.25-.27.63-.31.99-.04.44.23.66.51.93.13.72.02,1.46.06,2.24-.16.19-.34.39-.53.61.16.18.34.38.52.58v1.65c.19.21.38.41.55.59v.56c-.34.34-.67.67-1,1-.34.54.05.83.38,1.15.02.08.07.17.07.25,0,1.21,0,2.43,0,3.69-.15.18-.33.38-.54.63v1.1c.15.16.33.37.53.58v5.02c-.18.19-.36.4-.53.59.19.2.37.41.52.58v15.14c-.28.28-.55.55-.82.82h-3.36c-.19-.18-.4-.37-.59-.55h-.54c-.22.2-.42.38-.59.53h-4.49c-.29-.29-.55-.55-.82-.82v-.56c.19-.2.37-.4.57-.61v-1.65c.14-.24.27-.28.41-.14.13.14.26.26.4.4.27-.14.34-.38.3-.67-.23-.51-.72-.81-1.1-1.25v-1.68c.15-.17.34-.37.54-.58v-1.1c-.18-.2-.37-.4-.55-.6v-11.2c.34-.41.83-.68,1.04-1.19-.19-.32-.5-.17-.79-.22-.04-.05-.14-.11-.16-.19-.05-.26-.09-.53-.09-.8,0-5.13,0-10.27,0-15.4,0-.45.09-.92-.07-1.33-.13-.22-.29-.23-.5-.23-4.01,0-8.03,0-12.04,0-.07,0-.15-.11-.19-.19-.03-.05,0-.15.03-.19.38-.44.55-.52,1.35-.8.08-.03.13-.13.21-.2v-.56c-.18-.19-.36-.4-.55-.59v-.54c.2-.22.38-.42.58-.64v-1.09c.4-.43.9-.15,1.33-.25.21-.05.3-.21.25-.35-.03-.08-.12-.18-.19-.19-.18-.03-.37,0-.55,0-.33-.27-.4-.6-.18-.95.18-.28.5-.13.76-.21.17-.11.24-.26.24-.45,0-.65-.04-1.31.02-1.96.03-.28.32-.4.63-.37.08,0,.17-.03.25-.05.13-.13.26-.26.43-.43.69-.18,1.43-.02,2.23-.08.17.15.35.35.58.48.24.14.52.15.75-.04.14-.12.27-.26.44-.44h.78c.44,0,.43,0,.63.66.05.16.17.3.27.45h.56c.2-.18.4-.37.59-.55h1.66c.29.19.25.47.29.74.04.28.29.4.62.37.34-.03.41-.1.49-.52.08-.43.19-.6.4-.6.75,0,1.49,0,2.24,0,.18,0,.35.05.53.08.41.51.4.51.88.08.06-.06.14-.11-.24.13-.7.27-.96.26-1.22.28-.07,0-.14.08-.2.14-.04.05-.1.14-.08.18.03.08.1.16.18.18.6.15.77.05,1.32-.78ZM243.48,16.11c.4-.38.4-.75,0-1.12-.4.37-.4.75,0,1.12ZM253.11,36.39c-.13-.06-.26,0-.36.19-.01.02.11.13.18.18.12.08.25,0,.36-.19.01-.02-.11-.12-.18-.18ZM253.29,47.77c.02-.07.03-.23,0-.24-.18-.07-.32,0-.44.14-.11.13-.1.24.11.35.04.02.13-.03.17-.07.06-.05.13-.11.5-.93-.12.07-.27.14-.33.25-.12.24,0,.35.24.24.11-.06.19-.21.25-.33,0-.02-.14-.17-.5.59ZM253.2,30.51c.06-.13,0-.26-.19-.36-.02-.01-.13.11-.18.18-.08.12,0,.25.19.36.02.01.12-.12.18-.18ZM254.61,21.25c-.06.06-.19.16-.18.18.11.2.24.26.36.19.07-.05.19-.16.18-.18-.11-.19-.24-.25-.36-.19ZM254.89,14.8c.06-.13,0-.26-.19-.36-.02-.01-.13.11-.18.18-.07.12,0,.25.19.36.02.02.12-.11.18-.18ZM260.59,22.28c0,.26,0,.52,0,.78,0,.07.08.14.14.2.05.04.14.1.18.08.08-.03.16-.1.18-.18.16-.6.05-.77-.51-.89-.06-.21,0-.42.19-.46.35-.07.72-.04,1.06-.11.15-.03.28-.19.42-.28v-.44c-.2-.62-.91-.17-1.09-.69.17-.19.33-.38.5-.57-.28-.28-.54-.54-.81-.81h-.59c-.17.36-.34.74-.51,1.12-.48-.24-.16-.83-.59-1.13-.29-.19-.48.48-.24.24-.01.24-.02.51-.03.78,0,.09-.03.19,0,.28.1.27.28.45.6.39.2-.03.36.03.45.23.08.16-.22.34-.58.33h-.74c-.25-.21-.44-.37-.63-.53-.1.1-.18.16-.23.23-.13.19-.27.27-.39.2-.19-.1-.23-.26-.19-.47.03-.18,0-.37,0-.55h.8c.24-.15.36-.35.33-.64-.03-.35-.14-.45-.48-.48-.29-.03-.49.09-.64.33v.8c-.46,0-.93,0-1.4,0-.07,0-.15.11-.19.19-.02.05-.02.16.02.19.28.25.5.51.46.94,0,.11.22.24.34.36.28,0,.56,0,.84,0,.19,0,.38.07.43.26.02.07-.22.26-.35.29-.35.07-.72.04-1.08.11-.21.04-.26.25-.43.52-.11.03-.51-.23-.88.24.94.94,1.89,1.89,2.8,2.8,0,.35-.02.63.25.81.6-.4.23-.96.23-1.46-.72-.72-1.44-1.44-2.16-2.44h1.28c.63.2.2.9.71,1.12h1.08q.39-.55,0-1.12c-.19,0-.37.02-.55,0-.07-.01-.15-.11-.19-.19-.06-.13.02-.34.22-.35.65-.04,1.29-.02,1.94-.02ZM255.82,32.38q-.37.57.01,1.12h.55c.4-.57.4-.57-.01-1.12h-.55ZM256.94,49.2c-.06.06-.14.12-.19.19-.08.12,0,.25.19.36.02.01.13-.11.18-.18.08-.12,0-.24-.18-.37ZM257.13,42.28c.06-.13,0-.26-.19-.36-.02-.01-.13.11-.18.18-.08.12,0,.25.19.36.02.01.12-.11.18-.18ZM257.13,54.06c.06-.13,0-.26-.19-.36-.02-.01-.13.11-.18.18-.08.12,0,.25.19.36.02.01.12-.11.18-.18ZM256.76,29.95c.06.06.16.19.18.18.2-.11.26-.24.19-.36-.05-.07-.16-.19-.18-.18-.2.11-.25.24-.19.36ZM257.5,39.11c.25-.25.5-.51.76-.76-.13-.41-.5-.62-1.06-1.15.19.81-.31,1.36.3,1.91ZM257.69,17.98c-.06-.06-.16-.19-.18-.18-.2.11-.26.24-.19.36.05.07.16.19.18.18.2-.11.25-.24.19-.36ZM257.78,30.97v1.1c.11.19.24.28.36.22.08-.04.13-.13.19-.19v-1.09c-.11-.19-.24-.28-.36-.22-.08.04-.13.12-.19.19ZM258.25,27.7c.06-.13,0-.26-.19-.36-.02-.01-.13.11-.18.18-.08.12,0,.25.19.36.02.02.12-.11.18-.18ZM259.37,32.75c.06-.13,0-.26-.19-.36-.02-.01-.13.11-.18.18-.08.12,0,.25.19.36.02.01.12-.11.18-.18ZM259.84,24.62c-.13-.06-.26,0-.36.19-.01.02.11.13.18.18.12.08.25,0,.36-.19.01-.02-.11-.12-.18-.18ZM263.86,19.85c.06-.13,0-.26-.19-.36-.02-.01-.13.11-.18.18-.07.12,0,.25.19.36.02.01.12-.11.18-.18ZM274.52,15.18c-.06-.06-.16-.19-.18-.18-.2.11-.26.24-.19.36.05.07.16.19.18.18.19-.11.25-.24.19-.36Z"/>
      <path class="cls-9" d="M298.77,46.4c0,.09.04.22,0,.27-.25.28-.52.53-.79.8-.18.02-.36.03-.57.05-.18.17-.39.35-.61.55h-.56c-.44.46-.89.93-1.38,1.45v12.9c-.25.19-.55.41-.98.73-2.42.12-7.59.11-10.07-.02-.06-.07-.17-.14-.18-.2-.02-.56,0-1.12,0-1.65.2-.23.39-.43.58-.64v-7.25c.33-.34.78-.61.37-1.27-.03-.03-.17-.17-.3-.3-.17-.63-.07-1.28-.08-1.92-.02-.75,0-1.49,0-2.24,0-.65.02-1.31,0-1.96-.02-.64.1-1.29-.09-1.91-.14-.14-.27-.27-.41-.41.1-.11.19-.31.3-.32.36-.04.73-.02,1.01-.02.28-.16.32-.32.33-.51.01-.21,0-.37-.18-.49-.13-.1-.26-.04-.4.17-.05.08-.13.14-.19.2-.14.03-.35-.05-.35-.25-.02-1.3-.01-2.61-.01-3.85.2-.24.37-.43.53-.62-.16-.16-.29-.29-.43-.43-.19-.34-.08-.72-.09-1.08-.02-.64,0-1.28,0-1.83.23-.23.36-.36.53-.53v-1.14c-.12-.14-.3-.35-.51-.59v-2.22c.16-.17.35-.37.54-.58v-.54c-.19-.2-.38-.4-.55-.58v-2.22c.19-.22.35-.41.51-.6-.16-.23-.52-.34-.42-.62.12-.33.49-.16.74-.21.48-.72.39-.96-.35-1.11-.46-.09-.46-.08-.5-.81.18-.19.36-.39.56-.61v-.54c-.19-.2-.37-.4-.55-.58v-1.1c.2-.23.38-.43.55-.62-.02-.21-.04-.39-.06-.56-.13-.13-.26-.26-.4-.4-.17-.43-.14-.88-.02-1.31.11-.2.27-.26.49-.2.21.06.39,0,.47-.21.05-.13-.05-.27-.26-.35-.08-.03-.19,0-.28,0-.43-.08-.47-.13-.5-.5-.03-.34.08-.56.39-.61.27-.04.55-.02.73-.29.01-.8.02-.8.79-.35.07.04.17.05.25.06.09,0,.19,0,.31,0,.19-.16.39-.35.63-.56h5.82c.46,0,.57.13.61.68.02.27.02.55.09.8.06.21.25.27.47.2v.83c.19.2.38.4.56.59v2.22c-.2.22-.38.42-.56.61.02.2.03.38.04.56.13.13.26.26.4.4.04.07.12.15.12.23,0,1.11,0,2.21,0,3.23-.22.27-.37.45-.52.64.17.17.3.3.45.45.16.71.04,1.44.06,2.17.02.74,0,1.48,0,2.23v6.88c.42.51.93.14,1.33.33.43-.41.83-.79,1.23-1.18h.52c.21-.19.4-.36.6-.53.15.15.28.29.41.41.13.11.26.05.4-.15.32-.49,1.15-.09,1.27-.81.34-.02.61-.03.88-.04.52-.02.56-.04.65-.62.03-.19.06-.35.28-.48h1.06c.21-.19.41-.37.63-.57h1.08c.2-.19.4-.38.61-.57.27,0,.55,0,1.08.17.19.05.11-.1,0-.16-.24-.12-.35,0-.24.24.06.11.21.19.33.25.02.01.17-.14-.09-.33-.32-.38-.26-.56-.05-.64.16-.06.35-.06.61-.1.21-.19.48-.44.72-.66.06-.11.14-.18.14-.26,0-.74,0-1.48,0-2.15-.2-.2-.33-.33-.46-.46-.06-.52-.36-1.07.23-1.51h.53c.27-.27.54-.54.8-.8-.13-.1-.24-.27-.38-.29-.27-.05-.56,0-.84-.02-.29-.01-.44-.22-.44-.56,0-.65,0-1.31,0-1.94.2-.21.39-.42.56-.61-.02-.2-.03-.38-.04-.56-.13-.13-.26-.26-.4-.4-.04-.08-.1-.15-.12-.23-.02-.09,0-.19,0-.28,0-.93,0-1.87,0-2.8,0-.08.05-.17.07-.24.19-.33.5-.19.76-.22.42-.58.42-.59,0-1.08-.19.17-.39.33-.58.5-.48-.61-.16-1.28-.25-1.96.25-.22.53-.47.88-.77.35-.04.82-.08,1-.59h1.2c.17.16.37.35.57.53.19-.18.4-.37.57-.53h6.72c.31.19.28.48.28.78-.17.19-.35.39-.55.61v.54c.18.19.36.4.54.59v1.09c-.19.21-.36.41-.53.6.15.15.29.29.42.42.18.36.19,4.26.03,8.05-.68.73-.68.78.04,1.55.02.18.03.36.05.56-.18.19-.36.4-.56.61v6.71c.18.2.37.4.54.59v1.67c-.34.34-.67.67-1,1,.04.37.04.38.46.39.09,0,.18,0,.27,0,.07.07.19.14.2.21.04.36.08.73.08,1.09,0,5.42,0,10.84,0,16.31-.15.18-.33.39-.54.63v3.35c.15.17.34.37.54.58v.54c-.17.26-.44.24-.71.31-.24.06-.44.3-.69.49-.16-.14-.36-.31-.57-.5h-.53c-.19.18-.4.36-.59.54h-1.19c-.11-.31-.22-.64-.34-.96-.02-.05-.14-.12-.19-.1-.08.03-.18.11-.19.19-.04.18,0,.37-.05.54-.06.21-.21.29-.35.25-.13-.13-.26-.26-.44-.44-.19.15-.37.3-.64.52-1.4,0-2.89,0-4.38,0-.2,0-.33-.2-.28-.33.08-.2.25-.26.46-.22.09.02.18,0,.28,0,.1-.14.26-.27.29-.42.05-.27.05-.56,0-.84-.03-.15-.22-.4-.28-.38-.19.05-.29.24-.26.43.02.21,0,.37-.14.51-.14.15-.27.13-.41-.13v-1.12c.19-.48.88-.09,1.1-.56v-.54c-.22-.48-.9-.1-1.09-.61.34-.34.67-.67,1-1q.09-.54-.23-.95h-.53c-.08-.08-.19-.14-.2-.21-.04-.36-.06-.73-.09-1.11.19-.21.37-.41.56-.63,0-.16.02-.35.03-.54-.19-.2-.37-.4-.56-.6v-2.8c.15-.09.29-.23.45-.27.69-.18.69-.18.62-.89-.13-.13-.26-.26-.4-.4-.04-.17-.12-.34-.12-.51,0-1.68,0-3.37,0-5.05,0-.27-.03-.54-.08-.81-.01-.08-.13-.14-.19-.2h-1.15c-.11.12-.23.26-.37.39-.27.25-.55.49-.82.73-.63-.19-.84.71-1.45.56-.22.15-.44.31-.73.52.01,0-.07.04-.16.04-.28,0-.56,0-.88,0-.18.16-.39.34-.61.53-.16,0-.34.02-.54.03-.19.18-.39.37-.6.56-.65-.02-1.3-.02-1.95-.02,0-.26,0-.52,0-.78,0-.07-.08-.14-.14-.2-.05-.04-.14-.1-.18-.08-.08.03-.16.1-.18.18-.15.6-.05.77.51.89ZM287.83,21.16c-.4.38-.4.75,0,1.12.4-.37.4-.75,0-1.12ZM288.95,37.42q.94,0,1.32-.2c0-.5.38-1.05-.22-1.45-.19.17-.39.33-.58.49-.16-.16-.29-.29-.55-.55-.21.34-.6.51-.77.91.27.27.53.53.79.79ZM289.51,44.15h-.55q-.41.55-.01,1.12h.55c.41-.55.41-.55.01-1.12ZM289.23,34.06h.56v.82c.53.42.54.42,1.19-.02-.22-.19-.43-.35-.62-.54-.04-.05,0-.18,0-.27h.8c.35-.39.34-.39.32-.64-.03-.35-.14-.45-.48-.49-.29-.03-.49.09-.64.33v.8h-.56c.06-.21,0-.37-.19-.46-.19-.1-.32.06-.38.71.02-.08.03-.23,0-.24-.18-.07-.32,0-.44.14-.11.14-.1.24.11.35.04.02.13-.03.17-.07.06-.05.13-.11.16-.43ZM288.95,47.52c-.06.06-.14.12-.19.19-.08.12,0,.25.19.36.02.01.13-.11.18-.18.08-.12,0-.24-.18-.37ZM289.42,38.08c-.06.06-.19.16-.18.18.11.2.24.26.36.19.07-.05.19-.16.18-.18-.11-.2-.24-.25-.36-.19ZM289.42,53.78c-.06.06-.19.16-.18.18.11.2.24.26.36.19.07-.05.19-.16.18-.18-.11-.2-.24-.25-.36-.19ZM293.72,39.1v-.83c-.43-.55-.98-.25-1.49-.21-.13.13-.26.26-.44.44-.18-.15-.34-.33-.54-.45-.41-.25-.84.01-.9.54,0,.09-.02.18-.03.24-.19.21-.37.41-.53.6q.01.87.25,1.34c.2-.17.39-.34.6-.53h.62c.31-.36.66-.78.96-1.13.59,0,1.04,0,1.5,0v.56c-.09,0-.22-.04-.27,0-.4.37-.78.75-1.15,1.11-.21,0-.39.02-.56.02-.21.19-.4.37-.59.54-.12,0-.21,0-.3,0-.19-.02-.39.04-.43.23-.02.09.19.32.28.31.58-.04.82.2.78.78,0,.1.2.21.31.31.33-.33.65-.65,1.04-1.04.4.05.78-.12,1.06-.5.11-.14.24-.26.37-.39v-.82c.21-.07.39,0,.47.19.2.53.05,1.08.09,1.62,0,.08-.06.16-.09.24-.13.13-.26.26-.39.39-.01.51-.35,1.07.23,1.47h.55c.27-.27.53-.53.81-.81-.17-.19-.35-.39-.54-.61.26-.23.53-.48.82-.73.08.07.29.15.29.25.03.73.02,1.47.02,2.17.15.25.27.29.41.16.24-.21.1-.51.19-.76.26-.26.52-.52.79-.79h.53c.4-.38.78-.75,1.17-1.12.14.14.28.27.4.41.13.15.26.11.42-.16,0-.5.02-1.05-.02-1.6,0-.1-.21-.19-.32-.29-.08.07-.15.13-.2.21-.13.19-.27.27-.39.2-.19-.1-.23-.26-.19-.47.03-.18,0-.37,0-.55h1.95c.2.19.4.37.6.56h1.67q.41-.63-.05-1.08c-.31.33-.6.73-1.08.49-.27-.22-.47-.39-.65-.54-.78.06-1.52-.11-2.24.1-.21.06-.26.26-.2.47-.21-.06-.37,0-.47.19-.16.29,0,.73-.4.93h-2.23c-.17-.36-.34-.75-.51-1.12h-.57c-.2-.19-.4-.38-.6-.56-.28,0-.55,0-.83,0ZM289.98,58.83c-.06.06-.19.16-.18.18.11.2.24.26.36.19.07-.05.19-.16.18-.18-.11-.19-.24-.25-.36-.19ZM291.95,32.18c0-.06.01-.14-.02-.19-.19-.28-.8-.27-.92.01-.02.05-.02.14.01.19.19.29.8.27.93-.01ZM292.05,62.66c.09,0,.19.03.27,0,.08-.03.15-.11.19-.19.07-.12,0-.26-.21-.36-.07-.03-.18.01-.27,0-.21-.05-.37,0-.46.19-.1.19.13.37.48.37ZM292.22,46.86c.13.06.26,0,.36-.19.01-.02-.11-.13-.18-.18-.12-.08-.25,0-.36.19-.01.02.12.12.18.18ZM305.79,37.98c-.25.17-.24.44-.31.68-.1.31-.38.56-.52.87-.06.13,0,.37.08.49.2.29.46.54.71.82.57-.46.12-1.1.41-1.55.64-.66.63-.67.18-1.31-.18,0-.36,0-.54,0ZM307.75,38.55c.09,0,.19.03.27,0,.08-.03.15-.11.19-.19.07-.12,0-.26-.21-.36-.07-.03-.18.01-.27,0-.21-.05-.37,0-.46.19-.1.19.13.37.48.37ZM309.15,39.67c.07-.07.15-.12.19-.19.07-.13-.02-.25-.22-.36h-1.09c-.07.07-.15.12-.19.19-.07.13.02.25.22.36h1.09ZM309.42,37.16c-.12-.2-.25-.27-.38-.19-.07.05-.18.13-.18.19-.02.36,0,.73,0,1.09.06.07.11.15.19.19.13.08.26,0,.38-.19,0-.36,0-.73,0-1.09ZM309.05,23.49c-.06.06-.19.16-.18.18.11.2.24.26.36.19.07-.05.19-.16.18-.18-.11-.19-.24-.25-.36-.19ZM309.43,48.08c.09,0,.19.02.27,0,.08-.03.15-.11.19-.19.07-.12,0-.26-.21-.36-.07-.03-.18.01-.27,0-.21-.05-.37,0-.46.19-.09.19.13.37.48.37ZM311.63,34.37c-.1.1-.16.18-.23.23-.18.13-.26.26-.2.38.09.19.25.21.46.21.2,0,.36-.01.47-.19.03-.17.08-.33.1-.5.02-.18.04-.37,0-.54-.04-.16-.13-.35-.25-.42-.14-.08-.36-.08-.52-.03-.12.04-.19.21-.28.31.17.19.32.38.46.56ZM312.14,38.74c-.06-.06-.12-.17-.19-.18-.18-.03-.36-.02-.54,0-.07,0-.15.1-.19.17-.03.05-.04.14-.02.19.12.29.74.3.92.01.03-.05.02-.13.02-.19ZM311.67,27.05c.35.26.55.83,1,.81.67-.03.67-.11.68-.81-.35-.26-.55-.82-1-.82-.69.02-.69.1-.68.82ZM313.91,22.28c.06-.21,0-.4-.19-.46-.41-.13-.81-.21-1.15-.56-.25-.26-.66-.15-.91.19v1.75c.21.19.48.44.75.67.34.28.85.02.93-.47h.82c.2-.19.4-.37.59-.56.18,0,.37.02.55,0,.07-.01.15-.11.19-.19.06-.13-.02-.33-.22-.35-.45-.04-.91,0-1.37,0ZM312.51,53.13c-.4.38-.4.75,0,1.12.4-.37.4-.75,0-1.12ZM312.6,51.54c-.13-.06-.26,0-.36.19-.01.02.11.13.18.18.12.08.25,0,.36-.19.01-.02-.11-.12-.18-.18ZM313.91,57.34c-.17-.24-.42-.3-.7-.29-.34.02-.73-.09-.97.28.16.24.4.29.68.29.29,0,.42.3.62.45.11.08.29,0,.36-.2.06-.16.01-.36.01-.54ZM313.08,37.98c.09,0,.19-.02.27,0,.21.05.36,0,.46-.18.08-.13,0-.24-.18-.39-.2-.18-.36-.39-.53-.59-.43.42-.44.79-.03,1.15ZM313.07,49.2c-.09.14-.24.28-.27.43-.03.16,0,.37.09.5.21.29.47.55.66.77.36-.04.66.08.84-.23.12-.6.13-1.21-.02-1.83-.02-.07-.12-.13-.19-.19-.19.19-.39.37-.58.56h-.55ZM314.19,20.03c-.28,0-.56.02-.84,0-.22-.02-.39,0-.48.21-.05.12.04.26.23.4.08.06.14.12.2.2.33.47,1.08.23,1.36.79.03.06.15.09.23.1.28.03.53-.03.68-.29-.46-.46-.92-.92-1.38-1.38ZM313.63,46.4c.18,0,.37.04.53-.02.11-.04.16-.22.24-.34-.26-.26-.52-.52-.77-.77-.18,0-.37-.04-.53.02-.11.04-.16.22-.24.34.26.26.51.52.77.77ZM313.82,58.93c-.06-.06-.12-.17-.19-.18-.18-.03-.36-.02-.54,0-.07,0-.15.1-.19.17-.03.05-.04.13-.02.19.12.28.73.29.92.01.03-.04.01-.12.02-.19ZM313.35,31.53c.26.26.53.53.82.82.19-.17.39-.34.61-.53.15,0,.34.02.51,0,.08,0,.15-.1.2-.18.08-.13.02-.29-.2-.37-.17-.05-.37,0-.51,0-.22-.19-.42-.36-.61-.53-.28.29-.55.55-.81.81ZM313.72,25.74c-.13-.06-.26,0-.36.19-.01.02.11.13.18.18.12.07.25,0,.36-.19.02-.03-.11-.12-.18-.18ZM314.19,54.81c-.4.38-.4.75,0,1.12.4-.37.4-.75,0-1.12ZM314.38,52.38c.06-.13,0-.26-.19-.36-.02-.01-.13.11-.18.18-.08.12,0,.25.19.36.02.01.12-.11.18-.18ZM314.78,26.23c-.06.05-.13.1-.19.15-.07.06-.14.12-.19.19-.13.19-.48.29-.38.56.12.33.46.16.71.2q.4-.54.04-1.1ZM315.04,53.68c0-.09.02-.19,0-.27-.03-.08-.11-.15-.19-.19-.12-.07-.26,0-.36.21-.03.07.01.18,0,.27-.05.21,0,.37.19.46.19.09.37-.13.37-.48ZM314.94,44.53c.06-.13,0-.26-.19-.36-.02-.01-.13.11-.18.18-.08.12,0,.25.19.36.02.01.12-.11.18-.18Z"/>
    </g>
    <g>
      <path class="cls-1" d="M53.33,13.69v51.09h-12.49v-13.85l-12.27,5.38c0,.38,0,.76,0,1.12v7.32l-13.55.05-.05-1.45c-.03-.73-.58-18.05,4.09-28.29,9.87-21.64,26.02-21.41,27.19-21.36h7.1ZM50.32,16.69h-4.2c-.6-.04-15.22-.43-24.35,19.6-3.63,7.96-3.87,21.12-3.84,25.48l7.62-.03v-4.32c0-.68.01-1.4.03-2.15l.02-.96,18.23-7.98v15.44h6.49V16.69ZM42.03,25.49l1.81-.39v13.1l-17.45,7.64.71-2.94c2.36-9.81,7.53-15.84,14.93-17.41ZM40.84,28.94c-4.58,1.63-7.92,5.54-9.96,11.66l9.96-4.36v-7.3Z"/>
      <path class="cls-8" d="M98.77,53.46l-3.87,12.78h-3.07c-5.91,0-11.27-3.48-13.66-8.87-3.39-7.65-5.21-8.48-5.83-8.48h-.46v15.75h-13.75V13.68h20.46c8.61,0,15.61,7,15.61,15.61v4c0,5.27-2.68,10.12-7.08,13,.85,1.61,1.75,3.5,2.84,5.82h0c1.57,3.35,6.11,2.11,6.16,2.1l2.65-.75ZM94.42,57.45c-2.55.05-5.65-.81-7.17-4.07-1.37-2.92-2.42-5.12-3.44-6.9l-.78-1.35,1.38-.72c4.19-2.2,6.79-6.45,6.79-11.11v-4c0-6.95-5.66-12.6-12.6-12.6h-17.46v44.95h7.74v-15.75h3.47c2.86,0,5.34,2.97,8.57,10.26,1.91,4.3,6.19,7.08,10.91,7.08h.83l1.75-5.78ZM84.61,32.25c0,3.25-2.65,5.9-5.9,5.9h-9.82v-13.72h9.82c3.26,0,5.9,2.65,5.9,5.9v1.92ZM81.61,30.33c0-1.6-1.3-2.9-2.9-2.9h-6.82v7.72h6.82c1.6,0,2.9-1.3,2.9-2.9v-1.92Z"/>
      <path class="cls-7" d="M139.5,13.69v51.09h-12.49v-13.85l-12.27,5.38c0,.38,0,.76,0,1.12v7.32l-13.55.05-.05-1.45c-.03-.73-.58-18.05,4.09-28.29,9.87-21.64,26.02-21.41,27.19-21.36h7.1ZM136.49,16.69h-4.2c-.6-.04-15.22-.43-24.35,19.6-3.63,7.96-3.87,21.12-3.84,25.48l7.62-.03v-4.32c0-.68.01-1.4.03-2.15l.02-.96,18.23-7.98v15.44h6.49V16.69ZM128.19,25.49l1.81-.39v13.1l-17.45,7.64.71-2.94c2.36-9.81,7.53-15.84,14.93-17.41ZM127,28.94c-4.58,1.63-7.92,5.54-9.96,11.66l9.96-4.36v-7.3Z"/>
      <path class="cls-5" d="M187.87,13.68v51.09h-12.49v-19.03l-7.56,13.83h-2.84l-7.56-13.83v19.03h-12.49V13.68h13.53l7.94,15.42,7.94-15.42h13.53ZM184.87,16.69h-8.7l-8.32,16.17h-2.89l-8.32-16.17h-8.7v45.08h6.48v-27.78l11.99,21.92,11.98-21.93v27.78h6.48V16.69Z"/>
      <path class="cls-4" d="M235.99,39.01c0,8.82-2.4,15.62-7.13,20.23-5.93,5.77-13.44,6.02-14.7,6.02-.16,0-.13,0-.32,0-1.19,0-8.71-.25-14.64-6.02-4.73-4.6-7.13-11.41-7.13-20.23,0-17.04,10.17-22.99,16.24-25.01,3.69-1.24,7.75-1.23,11.44,0,6.07,2.03,16.25,7.97,16.24,25.01ZM232.99,39.01c0-14.4-7.72-20-14.19-22.16-1.54-.52-3.16-.77-4.77-.77s-3.23.26-4.77.77c-6.47,2.16-14.19,7.76-14.19,22.16,0,7.96,2.08,14.03,6.19,18.05,5.41,5.29,12.65,5.17,12.73,5.19.14,0,7.39.1,12.81-5.19,4.11-4.02,6.2-10.09,6.2-18.05ZM219.39,26.17c3.11,2.57,4.69,6.93,4.69,12.95,0,7.98-2.86,12.02-5.25,14.01-1.39,1.15-3.1,1.73-4.81,1.73s-3.41-.58-4.81-1.73c-2.4-1.99-5.25-6.03-5.25-14.01,0-6.02,1.58-10.38,4.69-12.95,3.16-2.6,7.57-2.6,10.73,0ZM221.07,39.12c0-5.01-1.25-8.69-3.6-10.63-1.01-.83-2.23-1.26-3.45-1.26s-2.44.42-3.45,1.26c-2.36,1.95-3.6,5.62-3.6,10.63,0,6.81,2.26,10.12,4.17,11.7,1.67,1.38,4.11,1.39,5.78,0,1.9-1.57,4.17-4.88,4.16-11.7Z"/>
      <path class="cls-3" d="M278.03,13.55l-3.96,12.49h-10.1v38.6h-13.75V26.05h-12.56l3.95-12.49h36.41ZM273.93,16.56h-30.11l-2.05,6.49h11.46v38.6h7.74V23.04h10.91l2.06-6.49Z"/>
      <path class="cls-6" d="M319.29,13.68v51.09h-13.75v-18.81l-9.57,4.19v14.62h-13.75V13.68h13.75v21.78l9.57-4.19V13.68h13.75ZM316.28,16.69h-7.74v16.55l-15.58,6.82v-23.37h-7.74v45.08h7.74v-13.58l15.58-6.82v20.4h7.74V16.69Z"/>
    </g>
  </g>
  <g>
    <path class="cls-2" d="M75.26,91.84h9.25l-1.63,5.16h-13.46v-24.52l-1.03-1.63h6.9l-.02.03v20.96Z"/>
    <path class="cls-2" d="M112.53,70.85v5.16h-9.93v5.26h8.71l-1.63,5.16h-7.07v5.39h9.93v5.16l-15.77.02v-24.52l-1.03-1.63h16.8Z"/>
    <path class="cls-2" d="M144.56,84.65v9.69h0v.06s-1.61,2.54-8.24,2.54c-6.12,0-12.56-5.16-12.56-12.61,0-6.5,3.07-13.55,12.05-13.55,5.26,0,7.91,4.52,7.91,4.52l-2.86,5.02c-1.27-1.27-2.61-3.89-6.7-3.89-6.64,0-6.79,15.35,3.9,15.35.23,0,.45-.04.67-.06v-5.39l-1.06-1.67h6.9Z"/>
    <path class="cls-2" d="M172.6,70.85v5.16h-9.93v5.26h8.71l-1.63,5.16h-7.07v5.39h9.93v5.16l-15.77.02v-24.52l-1.03-1.63h16.8Z"/>
    <path class="cls-2" d="M201.05,70.85h5.84v26.08h-7.94l-8.28-15.06v15.06h-5.84v-24.48l-1.02-1.6h7.88l9.36,18.03v-18.03Z"/>
    <path class="cls-2" d="M238.71,83.89c0,13.35-10.79,13.05-10.79,13.05h-8.75v-24.42l-1.06-1.67h9.81s10.79.52,10.79,13.03ZM232.43,83.56c0-7.17-4.51-7.16-4.51-7.16l-2.91-.03v14.96h2.91s4.51-.6,4.51-7.77Z"/>
    <path class="cls-2" d="M270.82,88.98c0,3.75-1.79,8.23-10.33,8.23-6.85,0-10.39-4.16-10.54-4.37l3.77-3.99c.09.12,2.32,2.82,6.77,2.82,4.8,0,4.99-1.5,4.8-2.7-.19-1.21-1.06-1.82-5.17-2.93-3.71-.99-8.79-2.36-8.79-7.67,0-2.32.91-4.26,2.62-5.63,4.47-3.55,13.05-1.8,14.72-1.41l-1.8,5.27c-3-.69-7.72-.94-9.49.47-.26.2-.53.49-.53,1.29,0,.92,1.45,1.46,4.69,2.33,3.69.99,9.26,2.49,9.26,8.27Z"/>
  </g>
</svg>